<svg width="24" height="24" viewBox="0 0 24 24" fill="none" xmlns="http://www.w3.org/2000/svg">
<g clip-path="url(#clip0_443_953)">
<path d="M22.095 2.53939C21.3963 1.87142 20.4666 1.49907 19.5 1.5H4.5H4.335C3.36931 1.54253 2.45735 1.95632 1.78939 2.65502C1.12142 3.35373 0.749066 4.28338 0.75 5.25V15.915L0.765002 16.08C0.847489 17.0137 1.27667 17.8827 1.968 18.5157C2.65932 19.1487 3.56265 19.4999 4.5 19.5H8.88L12 23.31L15.12 19.5H19.665C20.6307 19.4575 21.5427 19.0437 22.2106 18.345C22.8786 17.6463 23.2509 16.7166 23.25 15.75V5.085C23.2075 4.11931 22.7937 3.20735 22.095 2.53939Z" fill="#00566D"/>
</g>
<defs>
<clipPath id="clip0_443_953">
<rect width="24" height="24" fill="white"/>
</clipPath>
</defs>
</svg>
