<svg width="20" height="20" viewBox="0 0 20 20" fill="none" xmlns="http://www.w3.org/2000/svg">
<path fill-rule="evenodd" clip-rule="evenodd" d="M8.4 1.79929C6.64957 1.79929 4.97084 2.49465 3.7331 3.73239C2.49536 4.97013 1.8 6.64886 1.8 8.39929C1.8 10.1497 2.49536 11.8285 3.7331 13.0662C4.97084 14.3039 6.64957 14.9993 8.4 14.9993C10.1504 14.9993 11.8292 14.3039 13.0669 13.0662C14.3046 11.8285 15 10.1497 15 8.39929C15 6.64886 14.3046 4.97013 13.0669 3.73239C11.8292 2.49465 10.1504 1.79929 8.4 1.79929ZM1.93913e-08 8.39929C0.000113324 7.0561 0.322335 5.73251 0.939635 4.53957C1.55694 3.34662 2.45131 2.31911 3.54774 1.54321C4.64418 0.767311 5.91069 0.265661 7.24104 0.0803377C8.57139 -0.104986 9.92678 0.0314225 11.1935 0.478119C12.4603 0.924816 13.6014 1.66878 14.5213 2.64759C15.4411 3.62641 16.1128 4.81153 16.48 6.10356C16.8472 7.39559 16.8992 8.75684 16.6317 10.0731C16.3641 11.3894 15.7849 12.6223 14.9424 13.6685L18.936 17.6633C19.0244 17.7457 19.0953 17.845 19.1445 17.9554C19.1937 18.0658 19.2202 18.185 19.2223 18.3059C19.2244 18.4267 19.2022 18.5467 19.1569 18.6588C19.1117 18.7709 19.0443 18.8727 18.9588 18.9581C18.8734 19.0436 18.7716 19.111 18.6595 19.1562C18.5474 19.2015 18.4274 19.2237 18.3066 19.2216C18.1857 19.2195 18.0666 19.193 17.9562 19.1438C17.8458 19.0946 17.7464 19.0237 17.664 18.9353L13.6692 14.9417C12.4351 15.9358 10.9449 16.5604 9.37081 16.7436C7.79673 16.9267 6.20295 16.6609 4.77354 15.9767C3.34413 15.2926 2.1374 14.218 1.29273 12.8772C0.448055 11.5364 -0.000107638 9.98399 1.93913e-08 8.39929Z" fill="#1D1D1F"/>
</svg>
