<svg width="24" height="24" viewBox="0 0 24 24" fill="none" xmlns="http://www.w3.org/2000/svg">
<path d="M12 20.9998C17.25 17.4523 22.5 13.4998 22.5 8.24979C22.502 7.55979 22.3675 6.87621 22.1044 6.23836C21.8413 5.60051 21.4546 5.02096 20.9667 4.53306C20.4788 4.04516 19.8993 3.65852 19.2614 3.39539C18.6236 3.13225 17.94 2.99781 17.25 2.99979C15.9 2.99979 14.565 3.50979 13.5375 4.53729L12 6.07479L10.4625 4.53729C9.976 4.04793 9.39754 3.65958 8.76041 3.39459C8.12328 3.12959 7.44005 2.99316 6.75 2.99316C6.05996 2.99316 5.37673 3.12959 4.7396 3.39459C4.10247 3.65958 3.52401 4.04793 3.0375 4.53729C2.54934 5.02434 2.16222 5.60304 1.89837 6.24014C1.63452 6.87725 1.49914 7.56021 1.5 8.24979C1.5 13.4998 6.75 17.4523 12 20.9998Z" stroke="#585858" stroke-width="2"/>
</svg>
