<svg width="24" height="21" viewBox="0 0 24 21" fill="none" xmlns="http://www.w3.org/2000/svg">
<path id="Vector" d="M12 18.9998C17.25 15.4523 22.5 11.4998 22.5 6.24979C22.502 5.55979 22.3675 4.87621 22.1044 4.23836C21.8413 3.60051 21.4546 3.02096 20.9667 2.53306C20.4788 2.04516 19.8993 1.65852 19.2614 1.39539C18.6236 1.13225 17.94 0.997808 17.25 0.999788C15.9 0.999788 14.565 1.50979 13.5375 2.53729L12 4.07479L10.4625 2.53729C9.976 2.04793 9.39754 1.65958 8.76041 1.39459C8.12328 1.12959 7.44005 0.993164 6.75 0.993164C6.05996 0.993164 5.37673 1.12959 4.7396 1.39459C4.10247 1.65958 3.52401 2.04793 3.0375 2.53729C2.54934 3.02434 2.16222 3.60304 1.89837 4.24014C1.63452 4.87725 1.49914 5.56021 1.5 6.24979C1.5 11.4998 6.75 15.4523 12 18.9998Z" stroke="#585858" stroke-width="2"/>
</svg>
