<svg width="24" height="24" viewBox="0 0 24 24" fill="none" xmlns="http://www.w3.org/2000/svg">
<g id="&#195;&#141;cone-lupa">
<path id="Vector" d="M9.93314 4.15227e-07C11.7676 -0.000529912 13.5664 0.506948 15.13 1.46618C16.6937 2.42541 17.9612 3.79892 18.792 5.43444C19.6228 7.06997 19.9845 8.90362 19.837 10.7321C19.6894 12.5606 19.0384 14.3126 17.9561 15.7937L24 21.8453L21.8453 24L15.7937 17.9561C14.0936 19.201 12.0403 19.8703 9.93314 19.8663C7.29871 19.8663 4.77218 18.8198 2.90935 16.9569C1.04652 15.0941 0 12.5676 0 9.93314C0 7.29871 1.04652 4.77218 2.90935 2.90935C4.77218 1.04652 7.29871 4.15227e-07 9.93314 4.15227e-07Z" fill="#00566D"/>
</g>
</svg>
