<svg width="24" height="24" viewBox="0 0 24 24" fill="none" xmlns="http://www.w3.org/2000/svg">
<path id="Vector" d="M11.995 0.75C13.4724 0.75 14.9353 1.04099 16.3002 1.60636C17.6651 2.17172 18.9053 3.00039 19.9499 4.04505C20.9946 5.08971 21.8233 6.3299 22.3886 7.69481C22.954 9.05972 23.245 10.5226 23.245 12C23.245 13.4774 22.954 14.9403 22.3886 16.3052C21.8233 17.6701 20.9946 18.9103 19.9499 19.955C18.9053 20.9996 17.6651 21.8283 16.3002 22.3936C14.9353 22.959 13.4724 23.25 11.995 23.25C9.01131 23.25 6.14983 22.0647 4.04004 19.955C1.93026 17.8452 0.744995 14.9837 0.744995 12C0.744995 9.01631 1.93026 6.15483 4.04004 4.04505C6.14983 1.93526 9.01131 0.75 11.995 0.75ZM11.995 6.75C11.1343 6.75101 10.3001 7.04809 9.63246 7.59138C8.96485 8.13466 8.50445 8.89107 8.32855 9.73364C8.15265 10.5762 8.27195 11.4536 8.66643 12.2187C9.06092 12.9837 9.70656 13.5897 10.495 13.935V15.51L10.3825 15.5325C8.26369 15.9542 6.39484 17.1903 5.1775 18.975C6.93999 20.6925 9.34 21.75 11.995 21.75C14.65 21.75 17.05 20.6925 18.8125 18.975C17.5969 17.1919 15.7311 15.9561 13.615 15.5325L13.495 15.51V13.935C14.1373 13.6556 14.6885 13.2019 15.0862 12.6253C15.4839 12.0486 15.7121 11.3722 15.745 10.6725V10.5C15.745 9.50544 15.3499 8.55161 14.6466 7.84835C13.9434 7.14509 12.9896 6.75 11.995 6.75ZM11.995 2.25C10.1881 2.24963 8.41666 2.75136 6.87834 3.69922C5.34003 4.64707 4.09536 6.00375 3.28326 7.61785C2.47115 9.23196 2.12355 11.04 2.27924 12.8401C2.43494 14.6403 3.08781 16.3618 4.16499 17.8125C5.22896 16.3777 6.6661 15.2622 8.32 14.5875L8.58249 14.49L8.5675 14.475C8.02101 14.005 7.57717 13.4275 7.26362 12.7784C6.95007 12.1294 6.77353 11.4227 6.745 10.7025V10.5C6.74576 9.62934 6.96305 8.77253 7.3773 8.00673C7.79155 7.24092 8.38975 6.59017 9.11805 6.11305C9.84635 5.63594 10.6819 5.34745 11.5494 5.27355C12.4169 5.19965 13.2892 5.34267 14.0877 5.68973C14.8862 6.03678 15.5859 6.57698 16.1237 7.26169C16.6615 7.94639 17.0206 8.7541 17.1686 9.61209C17.3166 10.4701 17.2489 11.3514 16.9716 12.1767C16.6943 13.0021 16.2161 13.7455 15.58 14.34L15.4075 14.49L15.4375 14.505C17.185 15.165 18.7075 16.3125 19.825 17.805C20.9 16.3543 21.5511 14.6335 21.7057 12.8346C21.8602 11.0356 21.5122 9.22898 20.7003 7.61617C19.8885 6.00335 18.6447 4.64766 17.1076 3.70018C15.5706 2.7527 13.8006 2.25066 11.995 2.25Z" fill="#585858"/>
</svg>
