<svg width="24" height="23" viewBox="0 0 24 23" fill="none" xmlns="http://www.w3.org/2000/svg">
<path id="Vector" d="M19.5 0.500002C20.4666 0.499066 21.3963 0.871425 22.095 1.53939C22.7937 2.20735 23.2075 3.11931 23.25 4.085V14.75C23.2509 15.7166 22.8786 16.6463 22.2106 17.345C21.5427 18.0437 20.6307 18.4575 19.665 18.5H15.12L12 22.31L8.88 18.5H4.5C3.56265 18.4999 2.65932 18.1487 1.968 17.5157C1.27667 16.8827 0.847489 16.0137 0.765002 15.08L0.750002 14.915V4.25C0.749066 3.28338 1.12142 2.35373 1.78939 1.65502C2.45735 0.956319 3.36931 0.542533 4.335 0.500002H4.5H19.5ZM19.5 2H4.5C3.92593 1.99897 3.37318 2.2174 2.9549 2.61059C2.53662 3.00377 2.28444 3.54197 2.25 4.115V14.75C2.24897 15.3241 2.4674 15.8768 2.86059 16.2951C3.25377 16.7134 3.79197 16.9656 4.365 17H9.6L12 19.94L14.4 17H19.5C20.0741 17.001 20.6268 16.7826 21.0451 16.3894C21.4634 15.9962 21.7156 15.458 21.75 14.885V4.25C21.751 3.67593 21.5326 3.12318 21.1394 2.7049C20.7462 2.28662 20.208 2.03444 19.635 2H19.5Z" fill="#585858"/>
</svg>
