<svg width="27" height="30" viewBox="0 0 27 30" fill="none" xmlns="http://www.w3.org/2000/svg">
<g id="_1655355322944">
<path id="Vector" fill-rule="evenodd" clip-rule="evenodd" d="M29.839 19.5857V18.7341L11.8917 18.7225L10.9686 13.1714C11.4801 13.2212 11.7514 13.4192 11.9975 13.6819C12.3522 14.0606 12.3222 14.5142 12.4952 14.7083C12.7749 15.0221 13.2698 14.8269 13.245 14.2423C13.1632 12.3128 15.0711 12.3281 15.7966 12.8119C16.114 13.0236 16.2457 13.2864 16.3774 13.7591C16.5171 14.2607 16.8838 14.2828 17.2409 13.9593C17.3072 13.8302 17.0457 12.8528 17.7054 12.3011C18.4741 11.6582 19.9983 11.6332 20.3671 13.0415C20.5739 13.8314 21.3756 13.5445 21.2021 12.6909C20.3226 8.36353 16.9911 5.08872 12.6634 4.2889C6.93281 3.22979 1.44441 7.09016 0.349009 12.7421C0.209312 13.4628 0.00411712 16.1919 0.401005 16.6636C0.581339 16.878 0.986339 16.8607 1.1467 16.6585C1.36115 16.3883 0.915165 15.0941 2.22871 14.5765C2.84309 14.3344 3.43125 14.5321 3.83325 14.8728C3.98629 15.0025 4.1857 15.222 4.28484 15.4855C4.39487 15.778 4.37728 16.0471 4.67875 16.1383C5.47886 16.3806 5.11566 15.2658 5.3469 14.7609C5.85349 13.6548 7.45861 13.5561 8.06307 14.3942C8.42679 14.8985 8.3244 15.6088 9.11126 15.4146C9.27859 15.1313 9.1897 13.5722 10.093 13.366C10.1946 13.6427 10.9771 18.5224 10.9538 18.7213L1.12805 18.7226C0.658371 18.7205 0.111838 18.6847 0.164408 19.2044C0.209758 19.6526 0.71508 19.599 1.18669 19.5977L8.27654 19.5976C9.15975 19.5976 10.2589 19.5399 11.1156 19.6079L11.5801 22.3191C10.969 22.0671 10.4055 21.4579 8.83816 20.8824C7.72597 20.474 6.37896 20.3907 5.1386 20.5942C4.008 20.7796 2.94525 21.2407 2.14326 21.7578C1.76692 22.0005 -0.117443 23.4026 0.200404 24.0287C0.54383 24.4125 0.812603 24.2292 1.06843 23.905C2.79987 21.7105 6.02162 20.7484 8.71345 21.7696C10.0572 22.2794 11.4486 23.3028 12.4165 24.0433C15.6173 26.4923 17.4513 27.2468 21.2637 25.995C21.5906 25.8877 22.0849 25.6021 21.7041 25.1879C21.278 24.7246 19.9948 25.8581 17.8836 25.7255C15.8696 25.5991 14.2408 24.2665 12.8763 23.2904C12.4538 22.9883 12.5562 22.8181 12.4523 22.1988C12.3608 21.6534 12.0256 20.0474 12.0544 19.6052L29.839 19.5858V19.5857ZM16.903 11.8964C17.1742 11.5714 17.515 11.266 18.0695 11.0806C18.8461 10.8208 19.1433 11.0184 19.8211 11.1368C19.035 8.47031 15.6 5.57515 12.6903 5.2051C12.835 5.39432 13.6138 5.941 14.0993 6.54085C15.3141 8.04152 16.1354 9.53075 16.6859 11.3949C16.7124 11.4847 16.7325 11.5875 16.7602 11.6648L16.903 11.8965V11.8964ZM12.964 12.4335C13.3586 12.1378 13.5305 11.8612 14.2221 11.6884C14.9911 11.4962 15.2602 11.6889 15.8914 11.828C15.3257 9.49644 13.0362 5.54332 10.5409 5.20369C10.6548 5.47472 10.8066 5.69475 10.9544 5.99402C11.7038 7.51173 12.4734 10.2374 12.8088 11.9474L12.964 12.4335L12.964 12.4335ZM8.97118 13.0239C9.39281 12.8337 10.2403 11.7502 12.0165 12.5717C12.03 11.671 10.4059 5.72794 9.27261 5.14546C8.21879 5.7627 8.8749 11.9051 8.97118 13.0239ZM5.93871 6.32179C5.37878 6.52514 4.47267 7.32368 4.09917 7.65905C2.42519 9.16215 1.15916 11.7352 1.05506 14.2555C1.29766 14.1416 1.41531 14.0021 1.69061 13.8639C2.84835 13.2829 3.45998 13.7305 4.12892 13.9472C4.10572 12.9246 4.08858 12.229 4.21917 11.1562C4.38348 9.80616 5.09363 10.5668 5.11174 10.6056C5.17785 10.9233 5.04431 11.6939 5.01881 12.0921C4.98479 12.6232 4.9936 13.1248 5.0028 13.6552C5.29857 13.5213 5.54472 13.1232 6.36388 12.9729C7.24322 12.8115 7.463 13.0764 8.11467 13.2702C7.94317 11.1123 7.70086 9.65889 7.8287 7.40352C7.86611 6.74363 8.01228 6.13855 8.05242 5.57932C7.13852 5.97179 6.18734 7.4088 5.75755 8.55171C5.6316 8.88665 5.50828 9.2758 5.03329 9.04825C4.49939 8.79247 5.19668 7.62612 5.43281 7.17369C5.59786 6.85745 5.80211 6.61875 5.93871 6.32184V6.32179Z" fill="#585858"/>
<path id="Vector_2" fill-rule="evenodd" clip-rule="evenodd" d="M24.765 2.50972C23.5881 2.76106 22.5821 3.94708 22.9118 5.4087C23.1649 6.5307 24.3087 7.55083 25.7806 7.25327C28.8691 6.62889 27.9911 1.82081 24.765 2.50974V2.50972ZM24.8765 3.38658C22.8991 3.93864 23.7242 6.93225 25.7149 6.36659C26.4318 6.16288 27.0443 5.40096 26.7705 4.41862C26.5793 3.73256 25.7963 3.12978 24.8765 3.38658Z" fill="#585858"/>
<path id="Vector_3" fill-rule="evenodd" clip-rule="evenodd" d="M19.8781 21.7109H27.1437C27.9027 21.7109 27.9727 20.832 27.0851 20.832H19.9367C19.0161 20.832 19.0886 21.7109 19.8781 21.7109Z" fill="#585858"/>
<path id="Vector_4" fill-rule="evenodd" clip-rule="evenodd" d="M29.8392 26.1541V25.2528C29.2463 24.9662 28.6894 24.2492 26.9532 23.9863C26.3918 23.9013 23.6242 23.7591 23.6484 24.607C23.6742 25.5121 24.9188 24.5089 26.9864 24.8888C27.5249 24.9878 28.0796 25.1966 28.4921 25.4289C29.1556 25.8027 29.3907 26.1752 29.8392 26.1541V26.1541Z" fill="#585858"/>
<path id="Vector_5" fill-rule="evenodd" clip-rule="evenodd" d="M17.0778 22.6634C16.7181 22.7935 16.6292 23.2234 16.9565 23.4277C17.2313 23.5993 20.5928 23.5217 20.7324 23.471C21.0743 23.3469 21.0803 22.8393 20.8002 22.6896C20.5451 22.5532 17.1717 22.6294 17.0778 22.6634Z" fill="#585858"/>
<path id="Vector_6" fill-rule="evenodd" clip-rule="evenodd" d="M27.4776 6.88913C26.9046 7.19894 27.4896 7.69945 27.657 7.8653C27.8427 8.04923 28.1963 8.58013 28.6205 8.393C29.1849 8.14407 28.6327 7.58612 28.4592 7.41467C28.2765 7.23417 27.8801 6.67156 27.4776 6.88913H27.4776Z" fill="#585858"/>
<path id="Vector_7" fill-rule="evenodd" clip-rule="evenodd" d="M22.6809 6.89607C22.5484 6.97295 21.991 7.54513 21.8706 7.67744C21.5041 8.08021 21.875 8.5862 22.3512 8.39379C22.4897 8.33787 23.0501 7.76876 23.1713 7.62727C23.5579 7.17586 23.1156 6.64384 22.6809 6.89609V6.89607Z" fill="#585858"/>
<path id="Vector_8" fill-rule="evenodd" clip-rule="evenodd" d="M25.0752 7.88563C24.7517 8.0705 24.8437 8.59573 24.8429 9.02512C24.8421 9.46093 25.02 9.95114 25.5114 9.67785C25.8491 9.49003 25.9534 7.38383 25.0752 7.88565V7.88563Z" fill="#585858"/>
<path id="Vector_9" fill-rule="evenodd" clip-rule="evenodd" d="M25.4311 0H25.1466C24.7509 0.316558 24.8458 0.360938 24.8446 0.996162C24.8437 1.43964 24.8019 1.90217 25.2727 1.91398C25.7416 1.92572 25.7259 1.44736 25.7246 1.05508C25.7223 0.390882 25.8382 0.398203 25.4311 0Z" fill="#585858"/>
<path id="Vector_10" fill-rule="evenodd" clip-rule="evenodd" d="M22.0155 1.34802C21.4449 1.58256 21.7783 1.98994 22.061 2.27028C22.2431 2.45083 22.6353 2.98588 23.0066 2.8924C23.2192 2.83891 23.3395 2.67128 23.3055 2.406C23.2777 2.18994 22.4439 1.17193 22.0155 1.34799L22.0155 1.34802Z" fill="#585858"/>
<path id="Vector_11" fill-rule="evenodd" clip-rule="evenodd" d="M21.05 5.31259C21.6606 5.31259 22.2821 5.424 22.3243 4.91084C22.3732 4.3166 21.6587 4.43367 21.05 4.43367C20.1724 4.43367 20.1863 5.31259 21.05 5.31259Z" fill="#585858"/>
<path id="Vector_12" fill-rule="evenodd" clip-rule="evenodd" d="M21.2709 29.9999H21.5612C22.0964 29.5787 21.7399 29.0854 21.3522 29.1292C21.1419 29.1529 21.0002 29.3106 20.9892 29.533C20.974 29.8423 21.106 29.8835 21.271 29.9999H21.2709Z" fill="#585858"/>
<path id="Vector_13" fill-rule="evenodd" clip-rule="evenodd" d="M1.95508 25.0155C1.45382 25.3088 1.90705 26.0829 2.42071 25.7286C2.79802 25.4683 2.49816 24.6978 1.95508 25.0155Z" fill="#585858"/>
<path id="Vector_14" fill-rule="evenodd" clip-rule="evenodd" d="M9.56836 24.1302C9.09188 24.3836 9.41183 25.1027 9.92555 24.9122C10.4266 24.7265 10.138 23.8272 9.56836 24.1302Z" fill="#585858"/>
<path id="Vector_15" fill-rule="evenodd" clip-rule="evenodd" d="M26.4763 26.726C26.2786 26.8069 26.1109 26.9269 26.2241 27.2811C26.2979 27.5119 26.571 27.617 26.8127 27.5049C27.2278 27.3125 27.042 26.4945 26.4763 26.726Z" fill="#585858"/>
<path id="Vector_16" fill-rule="evenodd" clip-rule="evenodd" d="M8.00398 27.4918C7.52931 27.8618 8.00531 28.4625 8.46928 28.2037C8.90113 27.9629 8.53094 27.081 8.00398 27.4918Z" fill="#585858"/>
</g>
</svg>
