<svg width="30" height="30" viewBox="0 0 30 30" fill="none" xmlns="http://www.w3.org/2000/svg">
<g id="_1655355365280">
<path id="Vector" fill-rule="evenodd" clip-rule="evenodd" d="M4.07648 29.9999H26.2445C26.6053 29.7734 27.6488 29.5488 27.6456 28.2414C27.6431 27.2453 27.0156 26.7635 26.1659 26.5202L26.1569 24.9797C27.909 24.4678 27.9372 22.9466 27.2124 22.0819C26.9247 21.7387 26.6324 21.6987 26.1567 21.51L26.1567 19.9861C28.0289 19.4119 27.8635 17.7996 27.2112 17.1037C26.8791 16.7493 26.7191 16.7003 26.1567 16.5149L26.1603 15.6133C26.5874 15.7489 27.6366 17.1119 29.1004 16.3102C29.5409 16.069 29.5409 15.9499 29.8412 15.6546V13.4632C29.5096 13.152 29.7708 13.2591 29.0909 12.7616C28.7876 12.5396 28.5727 12.3804 28.2799 12.1663C28.0277 11.9819 26.7631 11.0938 26.6572 10.8983L26.6411 6.00113L22.6595 6.01339L22.6433 7.96406L18.9211 5.23606C18.2914 4.77405 17.6858 4.32122 17.0675 3.86702C16.4724 3.42989 15.8228 2.88557 15.1928 2.50049C14.901 2.61922 14.2374 3.13874 13.957 3.33488L0.839353 12.5999C-0.598976 13.9979 0.42899 16.0992 2.18536 16.0794C3.01439 16.07 3.14685 15.6985 3.65662 15.5206C3.65729 16.9342 3.75302 16.5516 3.28483 16.9207C2.91186 17.2147 2.65479 17.7537 2.66206 18.2817C2.66777 18.6962 2.81511 19.0061 3.00703 19.2754C3.26057 19.6312 3.338 19.5823 3.52674 19.7512C3.68557 19.8934 3.58134 19.7337 3.65718 19.9217L3.65716 21.6885C3.13047 21.9366 2.63658 22.5044 2.66293 23.3196C2.69856 24.422 3.60858 24.7005 3.65714 24.9022L3.65716 26.6014C3.56251 26.7733 3.38097 26.833 3.24271 26.9571C2.81672 27.3395 2.59431 27.9126 2.68251 28.5237C2.82642 29.521 3.58867 29.7346 4.0765 29.9998L4.07648 29.9999ZM12.6567 28.9933L12.9076 29.0018L17.4047 29.0004L17.652 28.9909L17.6556 20.0213L12.6565 20.0006L12.6567 28.9932V28.9933ZM13.1598 16.4883L14.6365 16.4985L14.658 15.0195L13.1562 15.0018L13.1598 16.4883ZM13.1554 13.9822L14.6533 13.9983L14.6532 12.5129L13.1716 12.5018L13.1555 13.9822H13.1554ZM15.6557 16.4813L17.153 16.5015L17.1527 14.9999L15.6557 15.0022L15.6557 16.4813V16.4813ZM15.6566 13.9894L17.1475 14.0014L17.1538 13.7694L17.1528 12.5004L15.6557 12.5046L15.6566 13.9894ZM4.65558 21.4836L11.6547 21.4996L11.6548 20.0175L4.67297 20.0005L4.65558 21.4836ZM4.6564 26.4779L4.8798 26.5054L11.6507 26.5008L11.6509 24.9992L4.65645 25.0004L4.6564 26.4779ZM11.6413 23.9839L11.6586 22.5261C11.2486 22.4505 6.00462 22.5002 5.11464 22.4997C4.41491 22.4993 3.65515 22.478 3.66136 23.2599C3.6681 24.1088 4.62815 24.0001 5.05604 23.9997C5.97927 23.9989 11.1893 24.0409 11.6413 23.9839V23.9839ZM11.6547 28.9756L11.6548 27.5175C11.2049 27.4584 6.03727 27.5008 5.11464 27.5003C4.69349 27.5001 3.67306 27.3587 3.66163 28.2405C3.6518 28.9978 4.37639 29.001 5.05607 29.0004C5.9493 28.9995 11.2388 29.0492 11.6547 28.9756L11.6547 28.9756ZM13.0468 8.99213L17.1028 8.99374L15.1342 7.54956C14.858 7.67028 13.2581 8.78949 13.0468 8.99213ZM18.6558 21.485L25.1519 21.5001L25.1518 20.0083L18.6746 20.0007L18.6558 21.485ZM18.6567 26.4797L18.8838 26.505L24.9193 26.5008L25.1557 26.4877L25.1556 25.0165L18.6567 25V26.4797ZM18.6608 23.9899C20.3576 24.0667 23.8676 23.9999 25.7396 23.9997C26.7549 23.9998 26.8977 22.9909 26.3119 22.6302C25.9249 22.392 22.0239 22.4997 21.2865 22.4997C20.4991 22.4997 19.4073 22.4372 18.6566 22.5162L18.6608 23.9899H18.6608ZM18.6558 28.985C19.7161 29.091 23.6004 28.9999 25.1537 29.0004C25.4552 29.0005 25.9384 29.0482 26.1987 28.9376C26.4401 28.8349 26.6464 28.5759 26.6473 28.2405C26.6494 27.4718 25.9022 27.4999 25.2123 27.5003C23.5061 27.5014 19.9807 27.4086 18.6746 27.5111L18.6558 28.985ZM9.45607 11.4831L10.6475 11.5076L10.658 12.4616C9.81265 12.6985 8.3312 12.2093 7.70459 12.6676L5.82762 13.9836C6.90178 14.098 10.1628 13.846 10.4893 14.1376C10.889 14.4946 10.5795 14.9997 9.9779 14.9997H4.70446L4.6636 16.4997L12.1567 16.4992L12.1578 11.5137L18.1473 11.5017L18.1572 16.4921L25.1559 16.4832L25.1555 15.0126C24.3576 14.951 20.1929 15.1301 19.8641 14.8972C19.566 14.6861 19.617 14.2075 19.9355 14.0589C20.3006 13.8885 23.0714 14.1149 23.9635 13.9779C23.4479 13.5521 22.8494 13.1571 22.2983 12.7571C21.5333 12.2019 20.8813 12.6696 19.6569 12.4763L19.6606 11.5137L20.5142 11.4921C20.4278 11.3823 18.6802 10.0013 18.2982 10.0013L11.7943 10.0012C11.4153 10.0011 10.9751 10.4037 10.5798 10.6805C10.3224 10.8608 9.60857 11.3041 9.45605 11.4832L9.45607 11.4831ZM23.6536 8.73038C23.9005 8.94584 25.4928 10.1368 25.6528 10.1665L25.6542 7.01595L23.6702 7.00079L23.6536 8.73038H23.6536ZM4.1613 17.5503C3.52739 17.7859 3.25206 19.0078 4.76276 19.0019C7.32295 18.9917 25.6752 19.094 26.126 18.9604C26.5011 18.8492 26.7723 18.3928 26.593 17.9647C26.4131 17.5351 26.0206 17.4961 25.5054 17.4985C22.1378 17.5141 4.5535 17.4045 4.1613 17.5503ZM15.1342 6.32325C15.4889 6.50641 26.3733 14.4963 27.4846 15.3052C28.3022 15.9003 29.3466 15.293 29.1216 14.3085C29.0085 13.8135 28.0593 13.2366 27.5349 12.8528L16.1208 4.40356C15.8169 4.1806 15.5097 3.92654 15.1928 3.73514C14.9155 3.82244 13.7365 4.72054 13.4044 4.95031L8.1432 8.65399C6.96487 9.49225 5.8143 10.268 4.63179 11.119C4.0574 11.5325 1.38725 13.2532 1.22073 13.7392C0.901619 14.6707 1.88354 15.4274 2.69456 14.9236C3.28401 14.5574 3.89714 14.1075 4.46389 13.7054C5.67264 12.8477 6.82678 12.0678 8.02794 11.2342C9.20687 10.4162 10.3647 9.57858 11.5563 8.78597C12.1706 8.37737 12.7463 7.97113 13.3201 7.56149L15.1341 6.3233L15.1342 6.32325Z" fill="#585858"/>
<path id="Vector_2" fill-rule="evenodd" clip-rule="evenodd" d="M25.4532 2.56898C25.0131 2.80218 25.1563 3.42232 25.1557 4.27715C25.1555 4.48279 25.0041 5.78772 25.8553 5.4507C26.4088 5.23156 26.1148 2.82414 26.1067 2.80471C26.0157 2.58563 25.7183 2.42854 25.4532 2.56898Z" fill="#585858"/>
<path id="Vector_3" fill-rule="evenodd" clip-rule="evenodd" d="M25.7634 0H25.5116C25.1093 0.314647 25.1561 0.268156 25.1548 1.05494C25.154 1.51216 25.1503 2.0032 25.6781 1.98578C26.1797 1.96923 26.1587 1.50166 26.1578 1.05489C26.1561 0.185419 26.1887 0.268677 25.7634 0Z" fill="#585858"/>
<path id="Vector_4" fill-rule="evenodd" clip-rule="evenodd" d="M23.1561 2.69539L23.156 3.33991C23.156 4.20673 24.1557 4.24121 24.1557 3.33991L24.1556 2.69539C24.1555 1.76561 23.1562 1.75519 23.1562 2.69539H23.1561Z" fill="#585858"/>
<path id="Vector_5" fill-rule="evenodd" clip-rule="evenodd" d="M23.7678 0H23.5482C23.1918 0.226775 23.1499 0.240048 23.1517 0.76217C23.153 1.16514 23.2357 1.46294 23.6326 1.4838C24.0524 1.50588 24.1519 1.18823 24.1589 0.820892C24.17 0.2366 24.1295 0.239279 23.7678 0Z" fill="#585858"/>
<path id="Vector_6" fill-rule="evenodd" clip-rule="evenodd" d="M13.4456 24.0783C12.8233 24.395 13.3212 25.2418 13.9187 24.9201C14.3901 24.6662 14.0632 23.7641 13.4456 24.0783Z" fill="#585858"/>
<path id="Vector_7" fill-rule="evenodd" clip-rule="evenodd" d="M23.472 4.56627C22.8411 4.83743 23.2606 5.70015 23.8591 5.44613C24.3993 5.21685 24.1087 4.29268 23.472 4.56627Z" fill="#585858"/>
</g>
</svg>
