<svg width="32" height="30" viewBox="0 0 32 30" fill="none" xmlns="http://www.w3.org/2000/svg">
<g id="_1655355355296">
<path id="Vector" fill-rule="evenodd" clip-rule="evenodd" d="M0.761963 17.3771V18.4711C0.974141 19.0475 0.777765 19.6763 1.53587 21.3685C1.95012 22.2932 2.07354 22.0059 1.88508 22.6108C1.7235 23.1294 1.68023 23.7111 1.75667 24.2684C1.09493 24.3451 1.17347 24.1768 0.761963 24.5971V24.9262C0.919427 25.09 1.06938 25.3279 1.23075 25.5429C1.39111 25.7565 1.5512 25.9718 1.69366 26.1697C1.05464 26.261 1.16114 26.0918 0.761963 26.5033V27.042C1.0063 27.5895 1.01527 28.8416 2.60636 29.6437C2.99959 29.842 3.42428 29.8659 3.72025 29.9998H28.279C28.5788 29.8645 29.0015 29.8458 29.3956 29.6452C29.5582 29.5625 29.6917 29.4709 29.8353 29.3724C31.0418 28.5449 31.009 27.5488 31.238 27.0404V26.5042C30.784 26.0387 30.541 26.1903 29.7499 26.1903C29.2005 26.1903 28.446 26.2332 27.9216 26.1734C28.4529 25.2969 28.3809 24.9902 28.3809 23.8094C29.4853 23.8094 30.2116 23.6627 30.8572 22.7141C31.0767 22.3915 31.0866 22.1137 31.238 21.8256V14.4924C31.1056 14.1676 31.1337 13.9353 30.9268 13.584C30.3196 12.5529 29.4784 12.3809 28.3809 12.3809C28.3809 11.9444 28.3799 11.5078 28.381 11.0713C28.382 10.6355 28.4463 10.1641 28.0527 10.0326C27.8081 9.95086 18.6863 10 17.369 9.99995C15.9872 9.99988 15.9997 9.91026 16 11.3095C16.0002 13.0952 16 14.8809 16 16.6666H16.9523V10.9523H27.4285C27.4285 14.6229 27.4285 18.2936 27.4285 21.9642C27.4285 22.8665 27.4547 23.8077 27.4284 24.7051C27.3711 26.6618 25.2492 26.1903 23.3809 26.1903C22.5348 26.1903 21.4101 26.2532 20.5977 26.1759C20.717 25.8919 21.1809 25.0926 21.2205 24.8596C21.3431 24.1389 20.4102 24.2855 19.869 24.2856C18.7289 24.2856 17.0296 24.3861 15.9567 24.2693C16.1958 22.6297 15.2663 20.9104 13.9468 20.1491C13.7822 20.0541 13.5177 19.9568 13.3865 19.8131C14.5458 18.5083 16.3387 18.1459 17.795 19.0972C19.596 20.2735 19.3333 21.9191 19.3333 23.8093H20.2857C20.2857 22.4733 20.4169 21.1759 19.8668 20.0626C18.4914 17.279 15.0183 16.8812 12.99 18.8353C12.1469 19.6475 12.8581 19.5704 11.6587 19.5193C11.5341 18.8416 11.1299 18.391 10.7574 18.0989C9.88971 17.4187 7.83495 17.432 6.99123 18.0737C6.59591 18.3744 6.17871 18.8338 6.05491 19.5188C5.19597 19.5584 4.63452 19.6829 3.96119 20.0437C3.64613 20.2125 3.43028 20.3858 3.18697 20.5791C2.94516 20.7713 2.72479 21.1155 2.54767 21.2258C1.99067 20.5926 1.46337 17.9548 1.86809 16.999C2.33655 15.8927 3.56528 15.1484 5.03952 14.873C7.07911 14.4919 10.952 14.6212 11.9996 16.9181C12.2017 17.3613 12.1168 17.7673 12.2304 18.0524L13.116 18.1397C13.2527 17.0364 12.7943 16.3092 12.3317 15.6914C11.8671 15.0707 11.2279 14.7862 10.4229 14.3256C10.868 14.1076 11.2054 14.0179 11.6032 13.7573C11.9808 13.51 12.3364 13.2382 12.5706 12.9399C13.4308 11.8444 13.4231 11.557 11.9147 11.1674C10.4672 10.7934 8.79158 10.853 7.52221 11.6991C7.06194 12.0059 6.99652 12.1591 6.65478 12.6694C5.9967 12.4933 6.57441 12.3808 5.04766 12.3808V13.3332C5.73197 13.3332 6.0692 13.2771 6.33952 13.7917C5.57222 13.8873 5.10766 13.8542 4.34388 14.0602C3.24328 14.357 2.16449 14.9264 1.50064 15.7992C0.802186 16.7176 1.0381 16.8102 0.761963 17.3771L0.761963 17.3771ZM7.04566 19.5237H10.6684C10.4003 18.7483 9.84626 18.5708 8.85718 18.5708C7.87313 18.5709 7.30888 18.7498 7.04569 19.5237H7.04566ZM7.4988 13.2033L8.63199 12.5114C8.84193 12.4008 9.71862 11.9475 9.89861 11.9409C8.88001 11.8567 7.72275 12.4977 7.4988 13.2033ZM8.45535 13.7397C9.71803 13.7726 11.1093 13.0785 11.6978 12.4622C10.8048 12.5381 8.93868 13.2791 8.45535 13.7397ZM3.02386 26.1903H19.3928C19.5925 26.1903 19.6351 25.9603 19.7338 25.7585C19.8224 25.5773 19.9094 25.4205 19.9769 25.2493L2.21225 25.2545C2.40207 25.5111 2.81398 26.1903 3.02384 26.1903H3.02386ZM30.2305 27.1429L1.7699 27.1427C1.93213 28.1153 2.82124 28.9323 3.86128 29.0328C5.01646 29.1444 6.69379 29.0474 7.90476 29.0474H24.0356C25.2925 29.0474 26.8642 29.1311 28.083 29.0375C29.163 28.9546 30.0598 28.1312 30.2305 27.1429H30.2305ZM2.74064 24.2712L14.973 24.2853C15.166 23.4808 14.9112 22.6323 14.5395 22.0567C14.1679 21.4811 13.7384 21.0539 13.0013 20.7364C12.2471 20.4115 11.7572 20.5308 11.1049 21.296C10.6464 21.8337 10.3385 22.3898 10.2873 23.3332L9.33494 23.3327C9.3773 22.4132 9.69467 21.4453 10.2888 20.7764C10.4429 20.603 10.4337 20.6646 10.5407 20.4774C9.73384 20.4877 9.08367 20.9701 8.67978 21.3698C8.18304 21.8615 7.93135 22.3923 7.90546 23.3332L6.95355 23.3328C7.00169 21.9914 7.54752 21.1105 8.19285 20.4898C7.41916 20.4269 6.70891 20.963 6.32904 21.3402C5.81587 21.8496 5.55152 22.351 5.52448 23.3332L4.57259 23.3328C4.61796 22.0683 5.17092 21.0489 5.80329 20.4979C4.04065 20.4634 2.34905 22.3702 2.74059 24.2711L2.74064 24.2712ZM28.3809 22.857C29.4721 22.857 30.2856 22.6133 30.2856 21.2499V14.9404C30.2856 13.5747 29.4734 13.3332 28.3809 13.3332V22.857V22.857Z" fill="#585858"/>
<path id="Vector_2" fill-rule="evenodd" clip-rule="evenodd" d="M23.1437 7.61821L24.0961 7.61927C24.144 6.70582 24.6722 6.6136 24.9241 5.82885C25.1682 5.06867 25.0298 4.33834 24.6383 3.74326C24.4031 3.38582 23.7537 2.73076 24.2702 1.84123C24.5799 1.30797 25.0088 1.1026 25.0464 0.0013118L24.094 0C24.0448 0.902341 23.5287 1.00151 23.2613 1.78606C22.5636 3.83223 24.7277 4.23516 23.9185 5.77615C23.67 6.24943 23.182 6.47363 23.1437 7.61824V7.61821Z" fill="#585858"/>
<path id="Vector_3" fill-rule="evenodd" clip-rule="evenodd" d="M20.2864 7.61821L21.2388 7.61927C21.2866 6.70582 21.8149 6.6136 22.0668 5.82885C22.7265 3.77418 20.5681 3.29608 21.4129 1.84123C21.7225 1.30797 22.1515 1.1026 22.1891 0.0013118L21.2367 0C21.1875 0.902971 20.6711 1.00133 20.404 1.78573C19.7066 3.83374 21.8706 4.23486 21.0612 5.77615C20.9058 6.07203 20.7032 6.20147 20.5326 6.55785C20.3719 6.89352 20.3007 7.19285 20.2864 7.61824L20.2864 7.61821Z" fill="#585858"/>
<path id="Vector_4" fill-rule="evenodd" clip-rule="evenodd" d="M14.5714 19.9998H15.5238V19.0474L14.5714 19.0474V19.9998Z" fill="#585858"/>
<path id="Vector_5" fill-rule="evenodd" clip-rule="evenodd" d="M16.4762 20.0002H17.4286L17.4286 19.0479H16.4762V20.0002Z" fill="#585858"/>
<path id="Vector_6" fill-rule="evenodd" clip-rule="evenodd" d="M25.5238 12.8572H26.4762V11.9048H25.5238V12.8572Z" fill="#585858"/>
<path id="Vector_7" fill-rule="evenodd" clip-rule="evenodd" d="M25.5238 14.7619H26.4762V13.8096H25.5238V14.7619Z" fill="#585858"/>
</g>
</svg>
