<svg width="30" height="30" viewBox="0 0 30 30" fill="none" xmlns="http://www.w3.org/2000/svg">
<g id="_1655355313824">
<path id="Vector" fill-rule="evenodd" clip-rule="evenodd" d="M6.8599 30H7.15537L10.1887 27.1737L13.1823 30H13.4787C13.8042 29.735 13.7614 29.6792 13.9496 29.248C16.0244 24.4943 16.6763 18.7834 16.0357 13.6623C15.5191 9.53318 13.9161 4.56302 11.4053 1.30312C11.0311 0.817368 10.7628 0.35062 10.3178 0H10.0201C9.42357 0.569382 7.51758 3.19408 7.48513 3.69601C7.45194 4.20948 8.03746 4.33773 8.33541 3.88885C8.83345 3.13848 9.36783 2.11578 10.0143 1.35189L10.2126 1.16662C10.7706 1.99751 11.4069 2.78181 11.9606 3.79405C14.996 9.34349 15.9776 15.6503 15.0634 21.9858C14.8466 23.4876 13.8786 27.75 13.1592 28.8043C13.0394 28.6798 12.9093 28.595 12.768 28.4741L11.6575 27.4179C10.2456 26.0284 10.4134 25.4836 9.39484 26.6874C9.18635 26.9339 7.43439 28.644 7.18336 28.8007C6.91793 28.4139 6.33976 26.6159 6.17729 26.043C4.3548 19.616 4.51409 12.6724 7.07275 6.49442C7.18417 6.22542 7.62857 5.31537 7.66146 5.13915C7.76353 4.59252 7.1229 4.28804 6.77761 4.96934C5.05475 8.36906 4.07888 13.1683 4.07303 17.5195C4.06784 21.3762 4.76759 25.2475 6.1959 28.778C6.4062 29.2979 6.50755 29.6561 6.8599 30Z" fill="#585858"/>
<path id="Vector_2" fill-rule="evenodd" clip-rule="evenodd" d="M28.6026 16.4534C27.8664 14.724 27.103 13.448 25.3939 12.5673C23.6244 11.6553 21.5804 11.4168 19.7094 12.3899C16.425 14.0981 15.9924 19.129 18.5119 22.2036C18.6537 22.3766 18.7296 22.5768 18.9564 22.6398C19.2391 22.7185 19.4534 22.5738 19.5076 22.3696C19.6091 21.9876 19.2453 21.7478 18.8997 21.2294C17.2508 18.7564 17.3695 15.1007 19.6308 13.4834C22.561 11.3877 27.3237 13.3962 27.9947 17.7003C27.4558 17.9974 26.7252 17.9023 26.4324 17.3892C26.1673 16.9247 26.5184 16.8204 26.5893 16.5641C26.6976 16.1728 26.4083 15.9548 26.0373 16.019C25.3498 16.138 24.7452 16.3724 24.088 15.984C23.3533 15.5498 23.5925 14.7996 23.2736 14.5124C22.8105 14.0953 21.706 15.4468 20.7145 14.6694C19.6705 13.8508 19.2809 15.2377 20.7967 15.7008C21.6126 15.9501 21.9965 15.7045 22.6844 15.5331C23.3175 17.2992 24.7178 16.9664 25.4473 17.0851C25.5229 18.0641 26.4086 18.8324 27.4762 18.7825C28.601 18.73 29.0611 17.8415 29.3995 16.9252C30.1581 14.8703 30.0903 12.6579 29.1015 10.8521C26.8019 6.6526 20.9555 5.40875 15.7507 7.02674C15.5262 7.09652 15.2353 7.13398 15.1101 7.32585C14.944 7.58066 15.0584 7.90012 15.2714 7.98571C15.7713 8.18664 19.0762 6.4544 23.414 7.63283C26.2341 8.399 28.61 10.5104 28.9845 13.253C29.0981 14.0854 28.9864 15.8207 28.6026 16.4534L28.6026 16.4534Z" fill="#585858"/>
<path id="Vector_3" fill-rule="evenodd" clip-rule="evenodd" d="M10.0064 2.55665C9.61602 2.7285 9.72887 3.26925 9.72896 3.75002L9.72834 24.61C9.72579 25.0595 9.75481 25.6426 10.3333 25.4607C10.7195 25.3393 10.6162 24.7087 10.6161 24.2578L10.6168 3.39821C10.619 3.02181 10.6049 2.29318 10.0064 2.55662L10.0064 2.55665Z" fill="#585858"/>
<path id="Vector_4" fill-rule="evenodd" clip-rule="evenodd" d="M20.1115 22.9021C19.6863 23.0817 19.6504 23.4482 20.1821 23.8154C21.1929 24.5133 22.2074 25.0218 23.4839 25.3166C24.5194 25.5558 25.3786 25.5833 26.4779 25.5751C26.951 25.5716 29.3989 25.5859 29.6493 25.4924C30.0445 25.3448 30.0564 24.6998 29.4698 24.6463C28.5389 24.5613 26.3431 24.8242 24.7112 24.6321C23.2395 24.4589 21.8048 23.9179 20.6456 23.0574C20.4884 22.9407 20.3428 22.8044 20.1115 22.9021Z" fill="#585858"/>
<path id="Vector_5" fill-rule="evenodd" clip-rule="evenodd" d="M19.4691 3.91094C18.7038 3.98527 18.001 4.14764 17.3444 4.40171C16.9532 4.55306 15.7849 5.03301 15.6572 5.35991C15.5068 5.74504 15.8351 6.07182 16.2321 5.93029C16.7298 5.75286 17.3403 5.12101 19.083 4.84819C21.953 4.39893 22.9753 5.92022 23.2894 5.12428C23.5458 4.47457 22.287 4.20046 21.8092 4.08095C21.0732 3.89685 20.2584 3.83428 19.4691 3.91094Z" fill="#585858"/>
<path id="Vector_6" fill-rule="evenodd" clip-rule="evenodd" d="M3.05405 18.7473C2.76868 18.9158 2.24537 20.0699 2.09225 20.3778C1.73121 21.1038 0.296085 24.2584 0.096996 24.9508C-0.0331996 25.4035 0.321043 25.7255 0.721926 25.52C0.958401 25.3988 1.38883 24.0876 1.53317 23.7468C2.01815 22.6018 2.6396 21.2244 3.20842 20.1469C3.33479 19.9076 3.58138 19.53 3.65916 19.302C3.80764 18.8668 3.43965 18.5196 3.05408 18.7473H3.05405Z" fill="#585858"/>
<path id="Vector_7" fill-rule="evenodd" clip-rule="evenodd" d="M18.7771 1.75182C17.6366 1.98378 16.696 2.35486 15.9642 2.96223C15.5894 3.27333 15.3062 3.49775 14.9971 3.98779C14.5344 4.72131 15.2786 5.15429 15.6284 4.67797C15.9965 4.17674 15.967 4.0651 16.5538 3.61214C17.7446 2.69306 19.17 2.62788 19.4267 2.49965C19.6245 2.40091 19.7512 2.11373 19.5851 1.85879C19.4244 1.61217 19.0922 1.68772 18.7772 1.7518L18.7771 1.75182Z" fill="#585858"/>
</g>
</svg>
