<svg width="18" height="13" viewBox="0 0 18 13" fill="none" xmlns="http://www.w3.org/2000/svg">
<g id="Connection">
<path id="Wifi" fill-rule="evenodd" clip-rule="evenodd" d="M9.47105 2.84599C11.9376 2.8461 14.3098 3.81668 16.0975 5.55712C16.2321 5.69149 16.4472 5.68979 16.5798 5.55332L17.8666 4.2234C17.9337 4.15418 17.9711 4.06042 17.9706 3.96287C17.97 3.86531 17.9315 3.77201 17.8636 3.7036C13.1717 -0.901199 5.76966 -0.901199 1.07774 3.7036C1.00978 3.77196 0.971216 3.86523 0.970589 3.96279C0.969962 4.06034 1.00732 4.15413 1.0744 4.2234L2.36154 5.55332C2.49404 5.69 2.70937 5.6917 2.8439 5.55712C4.63174 3.81656 7.00425 2.84598 9.47105 2.84599ZM9.47103 7.17266C10.8262 7.17257 12.1331 7.68843 13.1377 8.61999C13.2735 8.7522 13.4876 8.74933 13.62 8.61353L14.9053 7.28361C14.973 7.21386 15.0105 7.11922 15.0096 7.02089C15.0086 6.92255 14.9691 6.82872 14.9001 6.76039C11.841 3.84629 7.10364 3.84629 4.04457 6.76039C3.97547 6.82872 3.93604 6.9226 3.93514 7.02097C3.93423 7.11933 3.97192 7.21396 4.03974 7.28361L5.32466 8.61353C5.4571 8.74933 5.67114 8.7522 5.80701 8.61999C6.8109 7.68905 8.11671 7.17323 9.47103 7.17266ZM12.0457 10.084C12.0476 10.1826 12.0098 10.2777 11.941 10.3468L9.71777 12.6445C9.6526 12.712 9.56374 12.75 9.47103 12.75C9.37831 12.75 9.28946 12.712 9.22429 12.6445L7.00064 10.3468C6.93195 10.2776 6.89416 10.1825 6.8962 10.0839C6.89823 9.98529 6.93992 9.89191 7.0114 9.82581C8.43127 8.59595 10.5108 8.59595 11.9307 9.82581C12.0021 9.89196 12.0437 9.98537 12.0457 10.084Z" fill="black"/>
</g>
</svg>
