<svg width="16" height="17" viewBox="0 0 16 17" fill="none" xmlns="http://www.w3.org/2000/svg">
<g id="&#195;&#141;cone-lupa">
<path id="Vector" d="M6.62209 0.5C7.84506 0.499647 9.04424 0.837965 10.0867 1.47745C11.1291 2.11694 11.9741 3.03261 12.528 4.12296C13.0819 5.21331 13.323 6.43574 13.2246 7.65475C13.1263 8.87375 12.6923 10.0417 11.9707 11.0291L16 15.0635L14.5635 16.5L10.5291 12.4707C9.39576 13.3007 8.02687 13.7469 6.62209 13.7442C4.86581 13.7442 3.18145 13.0465 1.93957 11.8046C0.697683 10.5627 0 8.87838 0 7.1221C0 5.36581 0.697683 3.68145 1.93957 2.43957C3.18145 1.19768 4.86581 0.5 6.62209 0.5ZM6.62209 2.53757C6.02005 2.53757 5.42389 2.65615 4.86767 2.88654C4.31145 3.11694 3.80606 3.45463 3.38034 3.88034C2.95463 4.30606 2.61694 4.81145 2.38654 5.36767C2.15615 5.92389 2.03757 6.52005 2.03757 7.1221C2.03757 7.72414 2.15615 8.3203 2.38654 8.87652C2.61694 9.43274 2.95463 9.93813 3.38034 10.3638C3.80606 10.7896 4.31145 11.1273 4.86767 11.3576C5.42389 11.588 6.02005 11.7066 6.62209 11.7066C7.83799 11.7066 9.00408 11.2236 9.86384 10.3638C10.7236 9.50408 11.2066 8.33799 11.2066 7.1221C11.2066 5.9062 10.7236 4.74011 9.86384 3.88034C9.00408 3.02058 7.83799 2.53757 6.62209 2.53757Z" fill="#1D1D1F"/>
</g>
</svg>
