<svg width="15" height="15" viewBox="0 0 15 15" fill="none" xmlns="http://www.w3.org/2000/svg">
<path id="Star 1" d="M7.0479 0.957121C7.22831 0.575191 7.77169 0.575191 7.9521 0.957121L9.67302 4.60039C9.7459 4.75469 9.89245 4.86116 10.0617 4.8828L14.0585 5.39366C14.4775 5.44721 14.6454 5.964 14.3379 6.2536L11.4047 9.01612C11.2805 9.13312 11.2245 9.3054 11.2563 9.47308L12.0055 13.4321C12.084 13.8471 11.6444 14.1665 11.2739 13.9635L7.74023 12.0276C7.59057 11.9456 7.40943 11.9456 7.25977 12.0276L3.72606 13.9635C3.35561 14.1665 2.916 13.8471 2.99454 13.4321L3.74375 9.47308C3.77548 9.3054 3.7195 9.13312 3.59528 9.01612L0.662117 6.2536C0.354629 5.964 0.522545 5.44721 0.941531 5.39366L4.93828 4.8828C5.10755 4.86116 5.2541 4.75469 5.32698 4.60039L7.0479 0.957121Z" fill="#EBBD09"/>
</svg>
