<svg width="22" height="29" viewBox="0 0 22 29" fill="none" xmlns="http://www.w3.org/2000/svg">
<path id="Vector" d="M10.8291 2.86271C11.3504 2.59346 11.9008 2.38495 12.4697 2.24129C12.5194 3.35986 12.8674 4.466 13.3397 5.52243C14.0108 7.01593 14.9968 8.5405 15.9579 10.0174L16.0698 10.1873C17.0123 11.6311 17.9341 13.0417 18.6342 14.4586C19.3592 15.9272 19.8046 17.3151 19.8046 18.6429C19.8046 21.0312 19.0899 23.0902 17.7497 24.5423C16.424 25.9819 14.3857 26.9286 11.5189 26.9286C8.62509 26.9286 6.61373 26.0917 5.2093 24.8054C3.78623 23.5045 2.88516 21.6506 2.3963 19.4528C1.93644 17.3855 2.34244 15.5316 2.88309 14.1706C2.97147 13.9497 3.06123 13.7425 3.15237 13.5492L3.4113 14.0691C3.5984 14.4446 3.8577 14.7794 4.17436 15.0545C4.49103 15.3295 4.85883 15.5395 5.25672 15.6722C5.65461 15.805 6.07478 15.858 6.49318 15.8282C6.91157 15.7983 7.31998 15.6863 7.69501 15.4984C9.44744 14.6222 9.93216 12.4741 9.19059 10.8667C8.42001 9.19507 7.8193 7.11743 8.3558 5.50586C8.75973 4.29614 9.7188 3.43443 10.827 2.86271M2.41909 10.7486L2.41494 10.7569L2.40459 10.7694L2.37144 10.8108L2.2658 10.9579C2.17466 11.0835 2.05728 11.2603 1.91366 11.4881C1.54001 12.0988 1.21982 12.7405 0.956657 13.4063C0.314515 15.022 -0.203343 17.3109 0.374586 19.9044C0.923514 22.3694 1.97994 24.6562 3.81109 26.3341C5.6588 28.0244 8.1963 29 11.5189 29C14.8704 29 17.4929 27.8752 19.2722 25.9488C21.0392 24.0348 21.876 21.4331 21.876 18.6429C21.876 16.8635 21.2857 15.1442 20.4902 13.5389C19.7342 12.0101 18.7502 10.5063 17.8284 9.0915L17.6938 8.88436C16.714 7.38257 15.8212 5.99471 15.2288 4.67314C14.6364 3.35157 14.4064 2.22886 14.6032 1.23871C14.6332 1.08851 14.6296 0.933521 14.5925 0.784907C14.5554 0.636293 14.4858 0.497756 14.3887 0.379277C14.2916 0.260799 14.1695 0.165328 14.0311 0.0997429C13.8926 0.0341581 13.7414 9.24949e-05 13.5882 0C12.7141 0 11.2579 0.306571 9.87623 1.02121C8.48216 1.74414 7.02387 2.95386 6.39209 4.85129C5.58423 7.27486 6.5143 10.0091 7.30973 11.7346C7.66394 12.5011 7.3553 13.3504 6.76909 13.6445C6.63749 13.7106 6.49412 13.7501 6.34721 13.7607C6.20031 13.7713 6.05276 13.7528 5.91303 13.7062C5.7733 13.6597 5.64415 13.5859 5.53298 13.4893C5.42181 13.3927 5.33082 13.2751 5.26523 13.1432L4.15701 10.9289C4.07911 10.7731 3.96317 10.6394 3.81992 10.5403C3.67668 10.4412 3.51075 10.3799 3.3375 10.3619C3.16424 10.3439 2.98925 10.37 2.82872 10.4376C2.66819 10.5052 2.5273 10.6122 2.41909 10.7486Z" fill="#585858"/>
</svg>
