<svg width="24" height="24" viewBox="0 0 24 24" fill="none" xmlns="http://www.w3.org/2000/svg">
<g clip-path="url(#clip0_443_652)">
<path d="M19.5 1.5C20.4666 1.49907 21.3963 1.87142 22.095 2.53939C22.7937 3.20735 23.2075 4.11931 23.25 5.085V15.75C23.2509 16.7166 22.8786 17.6463 22.2106 18.345C21.5427 19.0437 20.6307 19.4575 19.665 19.5H15.12L12 23.31L8.88 19.5H4.5C3.56265 19.4999 2.65932 19.1487 1.968 18.5157C1.27667 17.8827 0.847489 17.0137 0.765002 16.08L0.750002 15.915V5.25C0.749066 4.28338 1.12142 3.35373 1.78939 2.65502C2.45735 1.95632 3.36931 1.54253 4.335 1.5H4.5H19.5ZM19.5 3H4.5C3.92593 2.99897 3.37318 3.2174 2.9549 3.61059C2.53662 4.00377 2.28444 4.54197 2.25 5.115V15.75C2.24897 16.3241 2.4674 16.8768 2.86059 17.2951C3.25377 17.7134 3.79197 17.9656 4.365 18H9.6L12 20.94L14.4 18H19.5C20.0741 18.001 20.6268 17.7826 21.0451 17.3894C21.4634 16.9962 21.7156 16.458 21.75 15.885V5.25C21.751 4.67593 21.5326 4.12318 21.1394 3.7049C20.7462 3.28662 20.208 3.03444 19.635 3H19.5Z" fill="#585858"/>
</g>
<defs>
<clipPath id="clip0_443_652">
<rect width="24" height="24" fill="white"/>
</clipPath>
</defs>
</svg>
