<svg width="26" height="24" viewBox="0 0 26 24" fill="none" xmlns="http://www.w3.org/2000/svg">
<rect x="4.21442" y="10.4753" width="0.625372" height="9.84961" rx="0.312686" fill="#585858" stroke="#585858" stroke-width="0.625372"/>
<rect x="21.2558" y="10.4753" width="0.625372" height="9.84961" rx="0.312686" fill="#585858" stroke="#585858" stroke-width="0.625372"/>
<mask id="path-3-inside-1_443_640" fill="white">
<path fill-rule="evenodd" clip-rule="evenodd" d="M0.647022 21.4783C1.30741 21.9197 11.9957 22.1991 13.4819 22.1912C16.3492 22.1752 20.112 22.0657 22.9577 21.4133C23.5451 21.2787 24.4028 21.0369 24.9446 20.7312C25.3039 20.5282 25.4122 20.5533 25.3757 20.1039C25.1476 19.926 24.4142 20.3594 24.0892 20.4609C19.8234 21.7977 11.1232 21.2 6.63616 21.0255L1.78075 20.7997C1.16598 20.7597 0.467953 20.4324 0.645882 21.4794L0.647022 21.4783Z"/>
</mask>
<path fill-rule="evenodd" clip-rule="evenodd" d="M0.647022 21.4783C1.30741 21.9197 11.9957 22.1991 13.4819 22.1912C16.3492 22.1752 20.112 22.0657 22.9577 21.4133C23.5451 21.2787 24.4028 21.0369 24.9446 20.7312C25.3039 20.5282 25.4122 20.5533 25.3757 20.1039C25.1476 19.926 24.4142 20.3594 24.0892 20.4609C19.8234 21.7977 11.1232 21.2 6.63616 21.0255L1.78075 20.7997C1.16598 20.7597 0.467953 20.4324 0.645882 21.4794L0.647022 21.4783Z" fill="#585858"/>
<path d="M0.647022 21.4783L4.53688 15.6586L-0.242329 12.4642L-4.30514 16.531L0.647022 21.4783ZM13.4819 22.1912L13.5195 29.1911L13.5208 29.191L13.4819 22.1912ZM22.9577 21.4133L21.3943 14.5901L21.3935 14.5903L22.9577 21.4133ZM24.9446 20.7312L28.3843 26.8278L28.3883 26.8255L24.9446 20.7312ZM25.3757 20.1039L32.3527 19.5372L32.104 16.4744L29.6809 14.5844L25.3757 20.1039ZM24.0892 20.4609L22.0026 13.7791L21.9959 13.7812L24.0892 20.4609ZM6.63616 21.0255L6.31093 28.0179L6.33752 28.0192L6.36412 28.0202L6.63616 21.0255ZM1.78075 20.7997L1.32716 27.7849L1.39131 27.7891L1.45552 27.7921L1.78075 20.7997ZM0.645882 21.4794L-6.25518 22.6522L-3.98386 36.018L5.59804 26.4268L0.645882 21.4794ZM-3.24284 27.298C-2.00217 28.1273 -0.731593 28.3704 -0.677441 28.3828C-0.281872 28.4733 0.0910423 28.5314 0.362361 28.5692C0.924758 28.6474 1.56265 28.7073 2.17195 28.7554C3.41702 28.8535 4.96079 28.9338 6.45975 28.997C9.42653 29.1222 12.6047 29.196 13.5195 29.1911L13.4443 15.1913C12.8728 15.1943 9.9638 15.1324 7.0498 15.0095C5.60837 14.9487 4.26336 14.8768 3.2722 14.7987C2.76339 14.7586 2.4463 14.7243 2.29197 14.7028C2.20493 14.6907 2.27905 14.6975 2.44477 14.7354C2.52696 14.7542 2.72715 14.8021 2.99065 14.8917C3.17181 14.9532 3.80983 15.1726 4.53688 15.6586L-3.24284 27.298ZM13.5208 29.191C16.3458 29.1753 20.8294 29.0828 24.5219 28.2363L21.3935 14.5903C19.3945 15.0486 16.3527 15.1751 13.4429 15.1913L13.5208 29.191ZM24.5211 28.2365C25.1591 28.0903 26.8872 27.6725 28.3843 26.8278L21.5048 14.6347C21.6065 14.5773 21.6864 14.5378 21.7369 14.5139C21.7884 14.4896 21.8238 14.4747 21.8398 14.4682C21.8562 14.4614 21.8612 14.4598 21.8532 14.4627C21.8455 14.4655 21.8299 14.471 21.806 14.4787C21.7563 14.4949 21.6905 14.5145 21.6125 14.5356C21.5353 14.5565 21.4599 14.5751 21.3943 14.5901L24.5211 28.2365ZM28.3883 26.8255C28.3421 26.8516 28.3108 26.8679 28.3283 26.8587C28.334 26.8557 28.3381 26.8535 28.3501 26.8472C28.3599 26.8421 28.3755 26.8339 28.3928 26.8247C28.4255 26.8074 28.4846 26.776 28.5544 26.7375C28.7173 26.6475 29.654 26.1501 30.5224 25.1807C32.7495 22.6946 32.3709 19.7611 32.3527 19.5372L18.3987 20.6706C18.3945 20.6193 18.3361 20.0146 18.469 19.2153C18.639 18.1927 19.1011 16.9484 20.0947 15.8392C20.8957 14.9451 21.7403 14.5076 21.7829 14.484C21.8345 14.4555 21.8996 14.4215 21.8072 14.4702C21.7502 14.5002 21.6369 14.5601 21.5008 14.6369L28.3883 26.8255ZM29.6809 14.5844C28.3649 13.5579 26.9968 13.2186 26.0824 13.1115C25.1835 13.0062 24.4434 13.0892 24.0022 13.1608C23.1505 13.2991 22.4744 13.5586 22.218 13.6589C21.9156 13.7772 21.6139 13.9134 21.5673 13.934C21.3561 14.0272 21.6316 13.895 22.0026 13.7791L26.1757 27.1427C26.7093 26.9761 27.1984 26.7516 27.2232 26.7406C27.4126 26.6569 27.3695 26.6768 27.3196 26.6963C27.3156 26.6979 26.886 26.8759 26.2461 26.9799C25.9109 27.0343 25.268 27.1118 24.4542 27.0165C23.6248 26.9194 22.3295 26.6054 21.0705 25.6234L29.6809 14.5844ZM21.9959 13.7812C21.0019 14.0927 18.7464 14.3141 15.4545 14.3099C12.3608 14.306 9.33737 14.1253 6.90819 14.0308L6.36412 28.0202C8.42195 28.1002 11.9922 28.3056 15.4368 28.3099C18.6832 28.314 22.9107 28.1659 26.1824 27.1406L21.9959 13.7812ZM6.96138 14.0331L2.10598 13.8072L1.45552 27.7921L6.31093 28.0179L6.96138 14.0331ZM2.23434 13.8144C2.39522 13.8248 2.79622 13.877 2.24696 13.8036C2.12822 13.7877 0.953195 13.5966 -0.405725 13.8579C-2.26955 14.2162 -4.60357 15.4599 -5.76546 18.1525C-6.62848 20.1525 -6.37047 21.9738 -6.25518 22.6522L7.54695 20.3067C7.57327 20.4616 7.85181 21.9312 7.08884 23.6993C6.64706 24.7231 5.91337 25.7057 4.87816 26.4575C3.89203 27.1738 2.91606 27.4756 2.23783 27.606C1.58324 27.7319 1.06619 27.7252 0.8235 27.7155C0.570287 27.7053 0.393473 27.6803 0.391137 27.68C0.140105 27.6464 0.858892 27.7545 1.32716 27.7849L2.23434 13.8144ZM5.59804 26.4268L5.59918 26.4256L-4.30514 16.531L-4.30628 16.5321L5.59804 26.4268Z" fill="#585858" mask="url(#path-3-inside-1_443_640)"/>
<mask id="path-5-inside-2_443_640" fill="white">
<path fill-rule="evenodd" clip-rule="evenodd" d="M4.75305 23.5861C5.30167 24.6605 6.51295 23.3557 7.05244 22.8961C7.25546 22.7227 7.55087 22.5265 7.60448 22.1992L4.95721 22.0806L5.39177 22.4216C6.02479 23.0067 4.93554 23.3192 4.75419 23.5861H4.75305Z"/>
</mask>
<path fill-rule="evenodd" clip-rule="evenodd" d="M4.75305 23.5861C5.30167 24.6605 6.51295 23.3557 7.05244 22.8961C7.25546 22.7227 7.55087 22.5265 7.60448 22.1992L4.95721 22.0806L5.39177 22.4216C6.02479 23.0067 4.93554 23.3192 4.75419 23.5861H4.75305Z" fill="#585858"/>
<path d="M4.75305 23.5861V16.5861H-6.68101L-1.48124 26.7694L4.75305 23.5861ZM7.05244 22.8961L11.5922 28.2244L11.5981 28.2193L7.05244 22.8961ZM7.60448 22.1992L14.5125 23.3305L15.7852 15.5587L7.91782 15.2062L7.60448 22.1992ZM4.95721 22.0806L5.27056 15.0876L-16.5372 14.1104L0.635648 27.5873L4.95721 22.0806ZM5.39177 22.4216L10.1432 17.2812L9.93566 17.0893L9.71334 16.9149L5.39177 22.4216ZM4.75419 23.5861V30.5861H8.46085L10.5441 27.5203L4.75419 23.5861ZM-1.48124 26.7694C-0.519196 28.6535 1.47239 30.6258 4.51369 30.9555C6.9012 31.2142 8.69953 30.2803 9.36443 29.9025C10.5713 29.2167 12.0577 27.8278 11.5922 28.2244L2.51269 17.5678C2.3485 17.7077 2.18048 17.8607 2.12751 17.9086C2.04061 17.9872 2.00538 18.0184 1.97998 18.0403C1.8881 18.1192 2.07451 17.9425 2.4479 17.7303C2.67397 17.6018 4.0329 16.8214 6.02214 17.037C7.14556 17.1587 8.27078 17.583 9.23797 18.3222C10.1589 19.0261 10.6936 19.8276 10.9873 20.4028L-1.48124 26.7694ZM11.5981 28.2193C11.561 28.251 11.5356 28.2714 11.5653 28.2471C11.5786 28.2362 11.6465 28.1809 11.7157 28.1229C11.8555 28.0056 12.1437 27.7595 12.4622 27.4237C13.1006 26.751 14.1749 25.3916 14.5125 23.3305L0.696494 21.0679C0.98042 19.3342 1.88021 18.2365 2.30674 17.787C2.51939 17.5629 2.69223 17.4188 2.71792 17.3972C2.72999 17.3871 2.74108 17.3781 2.69916 17.4124C2.67364 17.4333 2.59461 17.4978 2.50676 17.5728L11.5981 28.2193ZM7.91782 15.2062L5.27056 15.0876L4.64387 29.0735L7.29113 29.1922L7.91782 15.2062ZM0.635648 27.5873L1.07021 27.9283L9.71334 16.9149L9.27878 16.5738L0.635648 27.5873ZM0.640348 27.562C-0.0932679 26.8839 -1.76813 24.8968 -1.34991 21.8584C-1.00362 19.3425 0.594676 18.0035 0.828333 17.8037C1.17352 17.5084 1.55825 17.2764 1.22378 17.4922C1.16211 17.532 0.892598 17.7041 0.597704 17.9304C0.38009 18.0974 -0.373611 18.6776 -1.03567 19.652L10.5441 27.5203C9.92733 28.4279 9.24734 28.9399 9.12153 29.0365C8.91845 29.1923 8.75884 29.2917 8.81489 29.2555C8.82031 29.252 8.82706 29.2477 8.84404 29.2368C8.85825 29.2277 8.88156 29.2127 8.90647 29.1966C8.9561 29.1646 9.03417 29.1139 9.12413 29.053C9.29125 28.94 9.59212 28.7303 9.92841 28.4427C10.3779 28.0582 12.1412 26.5147 12.5193 23.7674C12.9694 20.4975 11.1933 18.2518 10.1432 17.2812L0.640348 27.562ZM4.75419 16.5861H4.75305V30.5861H4.75419V16.5861Z" fill="#585858" mask="url(#path-5-inside-2_443_640)"/>
<mask id="path-7-inside-3_443_640" fill="white">
<path fill-rule="evenodd" clip-rule="evenodd" d="M1.48645 23.17C2.22668 23.7243 3.32049 22.4959 3.56685 22.0203L2.32249 21.9507C2.14342 22.3031 2.26546 22.4571 1.73738 22.862C1.50926 23.0376 1.54804 22.8917 1.48759 23.17H1.48645Z"/>
</mask>
<path fill-rule="evenodd" clip-rule="evenodd" d="M1.48645 23.17C2.22668 23.7243 3.32049 22.4959 3.56685 22.0203L2.32249 21.9507C2.14342 22.3031 2.26546 22.4571 1.73738 22.862C1.50926 23.0376 1.54804 22.8917 1.48759 23.17H1.48645Z" fill="#585858"/>
<path d="M1.48645 23.17V16.17H-19.5395L-2.7094 28.7731L1.48645 23.17ZM3.56685 22.0203L9.78249 25.2399L14.7577 15.635L3.95762 15.0312L3.56685 22.0203ZM2.32249 21.9507L2.71326 14.9616L-1.84856 14.7065L-3.91818 18.7799L2.32249 21.9507ZM1.73738 22.862L-2.5219 17.3069L-2.52759 17.3113L-2.53328 17.3157L1.73738 22.862ZM1.48759 23.17V30.17H7.13033L8.32808 24.6558L1.48759 23.17ZM-2.7094 28.7731C-0.626815 30.3326 1.73015 30.5229 3.54148 30.1387C5.12554 29.8028 6.27789 29.0563 6.90895 28.5835C8.10109 27.6904 9.14743 26.4659 9.78249 25.2399L-2.64879 18.8006C-2.38332 18.2882 -2.14125 18.0027 -2.07073 17.9205C-1.96424 17.7964 -1.78098 17.6007 -1.48525 17.3792C-1.25097 17.2036 -0.526262 16.69 0.636824 16.4434C2.02718 16.1485 3.96983 16.2845 5.68231 17.5668L-2.7094 28.7731ZM3.95762 15.0312L2.71326 14.9616L1.93171 28.9398L3.17608 29.0093L3.95762 15.0312ZM-3.91818 18.7799C-4.21706 19.3681 -4.37839 19.8629 -4.45116 20.0955C-4.45883 20.1201 -4.46531 20.1411 -4.46939 20.1544C-4.47816 20.1829 -4.47163 20.1617 -4.47673 20.1783C-4.47917 20.1862 -4.47047 20.1577 -4.45714 20.1168C-4.42894 20.0303 -4.36382 19.8375 -4.2589 19.5961C-4.017 19.0396 -3.69104 18.5146 -3.29797 18.054C-2.95194 17.6486 -2.64625 17.4023 -2.5219 17.3069L5.99665 28.4171C6.38504 28.1193 6.87351 27.7019 7.35077 27.1427C7.87509 26.5284 8.28074 25.8669 8.58052 25.1772C8.80349 24.6643 8.97396 24.0719 8.91072 24.2741C8.88194 24.3661 8.7725 24.7095 8.56315 25.1215L-3.91818 18.7799ZM-2.53328 17.3157C-2.26851 17.1118 -1.96507 16.9155 -1.63223 16.7415C-1.56408 16.7059 -1.34083 16.5955 -1.53109 16.6896C-1.5735 16.7106 -2.11911 16.9691 -2.71255 17.4246C-3.44648 17.988 -4.064 18.6909 -4.52914 19.4965C-4.92382 20.1801 -5.11264 20.7765 -5.1866 21.0239C-5.26451 21.2845 -5.31259 21.5014 -5.32302 21.5478C-5.33182 21.5869 -5.33933 21.6215 -5.34317 21.6392C-5.35052 21.6731 -5.34778 21.6605 -5.3529 21.6841L8.32808 24.6558C8.3444 24.5806 8.33801 24.6098 8.33567 24.6203C8.33558 24.6207 8.29617 24.802 8.22669 25.0343C8.16116 25.2535 7.98053 25.8292 7.59523 26.4965C7.13946 27.2859 6.53251 27.9771 5.81177 28.5303C5.23152 28.9757 4.70171 29.2257 4.67916 29.2369C4.50876 29.3212 4.75591 29.1996 4.85345 29.1486C5.24507 28.9439 5.62921 28.7 6.00803 28.4083L-2.53328 17.3157ZM1.48759 16.17H1.48645V30.17H1.48759V16.17Z" fill="#585858" mask="url(#path-7-inside-3_443_640)"/>
<path fill-rule="evenodd" clip-rule="evenodd" d="M13.0245 1.49686C15.8485 4.03006 20.7279 8.03803 23.114 10.6089C23.9785 11.5407 24.7758 11.1381 24.6743 10.4697C24.6047 10.0146 23.6227 9.3725 23.3261 9.02918C20.3663 6.34086 14.3544 0.919729 14.0282 0.595807C13.3974 -0.0280844 12.9104 -0.342882 12.1018 0.571856C8.73707 3.61376 5.38266 6.65224 2.01227 9.68387C1.74652 9.94392 1.35873 9.99525 1.32223 10.4731C1.29371 10.8484 1.60965 11.1404 1.96779 11.1563C2.36927 11.1735 3.22698 10.3363 3.52011 10.0089C6.40803 7.38106 9.33359 4.78056 12.258 2.19261C12.6241 1.89606 12.5774 1.75006 13.0256 1.498L13.0245 1.49686Z" fill="#585858"/>
<mask id="path-10-inside-4_443_640" fill="white">
<path fill-rule="evenodd" clip-rule="evenodd" d="M19.609 2.86206L21.1328 2.83468C21.1328 3.746 21.1374 4.63336 21.1328 5.52073C21.1271 6.56891 21.1842 7.15972 22.2962 6.74798C22.5141 5.95186 22.4 4.22732 22.4 3.23502C22.4011 1.26754 22.4125 1.56181 20.4325 1.56295C18.5472 1.56295 18.2985 1.19682 18.2905 3.14606C18.2882 3.74486 18.2871 4.29689 19.0319 4.20451C19.7733 4.11212 19.4779 3.45059 19.6102 2.86434L19.609 2.86206Z"/>
</mask>
<path fill-rule="evenodd" clip-rule="evenodd" d="M19.609 2.86206L21.1328 2.83468C21.1328 3.746 21.1374 4.63336 21.1328 5.52073C21.1271 6.56891 21.1842 7.15972 22.2962 6.74798C22.5141 5.95186 22.4 4.22732 22.4 3.23502C22.4011 1.26754 22.4125 1.56181 20.4325 1.56295C18.5472 1.56295 18.2985 1.19682 18.2905 3.14606C18.2882 3.74486 18.2871 4.29689 19.0319 4.20451C19.7733 4.11212 19.4779 3.45059 19.6102 2.86434L19.609 2.86206Z" fill="#585858"/>
<path d="M19.609 2.86206L19.4833 -4.13682L8.38587 -3.93746L13.3473 5.99112L19.609 2.86206ZM21.1328 2.83468H28.1328V-4.2922L21.0071 -4.16419L21.1328 2.83468ZM21.1328 5.52073L28.1327 5.55881L28.1327 5.55671L21.1328 5.52073ZM22.2962 6.74798L24.7267 13.3125L28.0989 12.0639L29.048 8.59553L22.2962 6.74798ZM22.4 3.23502L15.4 3.23096V3.23502H22.4ZM20.4325 1.56295V8.56295L20.4365 8.56295L20.4325 1.56295ZM18.2905 3.14606L11.2906 3.11739L11.2906 3.11939L18.2905 3.14606ZM19.0319 4.20451L19.8936 11.1513L19.8975 11.1508L19.0319 4.20451ZM19.6102 2.86434L26.4384 4.40535L26.9882 1.96925L25.8719 -0.264724L19.6102 2.86434ZM19.7348 9.86093L21.2586 9.83355L21.0071 -4.16419L19.4833 -4.13682L19.7348 9.86093ZM14.1328 2.83468C14.1328 3.79678 14.1374 4.61841 14.1329 5.48474L28.1327 5.55671C28.1374 4.64832 28.1328 3.69521 28.1328 2.83468H14.1328ZM14.1329 5.48264C14.1316 5.72866 14.1263 6.33807 14.199 6.98921C14.2593 7.52903 14.4553 9.05169 15.4834 10.5832C16.8143 12.5659 18.9034 13.6679 21.0462 13.8517C22.7258 13.9958 24.0846 13.5502 24.7267 13.3125L19.8657 0.183494C19.9518 0.151613 20.8864 -0.2134 22.2427 -0.0970627C24.0623 0.0590169 25.929 1.02498 27.1073 2.78043C27.9829 4.08471 28.0962 5.28886 28.1126 5.43597C28.1414 5.69439 28.1312 5.83688 28.1327 5.55881L14.1329 5.48264ZM29.048 8.59553C29.4439 7.14881 29.4308 5.59401 29.4298 5.05135C29.429 4.63939 29.4197 4.23561 29.4125 3.92797C29.4045 3.58162 29.4 3.38277 29.4 3.23502H15.4C15.4 3.58342 15.4098 3.97225 15.4163 4.25322C15.4237 4.57289 15.4293 4.83606 15.4298 5.07879C15.4303 5.32779 15.4248 5.46532 15.4209 5.5211C15.4193 5.54455 15.4209 5.50874 15.4323 5.4283C15.4423 5.35758 15.4717 5.16631 15.5444 4.90043L29.048 8.59553ZM29.4 3.23908C29.4002 2.96714 29.4144 2.08682 29.3222 1.31451C29.2368 0.598074 28.859 -2.18227 26.1902 -4.06209C24.0718 -5.55427 21.7574 -5.45139 21.651 -5.45254C21.3673 -5.45561 21.0681 -5.44765 20.926 -5.44441C20.7408 -5.44019 20.5918 -5.43715 20.4285 -5.43705L20.4365 8.56295C20.7683 8.56275 21.052 8.55635 21.2451 8.55195C21.4815 8.54656 21.5062 8.54671 21.4999 8.54664C21.4812 8.54644 21.3991 8.54538 21.2777 8.53688C21.1581 8.52852 20.9495 8.50958 20.6848 8.46191C20.1766 8.37039 19.1793 8.12398 18.1282 7.38359C15.7039 5.676 15.4468 3.19092 15.4208 2.97262C15.3881 2.69846 15.4004 2.51917 15.4 3.23096L29.4 3.23908ZM20.4325 -5.43705C19.7529 -5.43705 20.3873 -5.44991 19.3974 -5.46317C19.2544 -5.46509 17.3709 -5.57629 15.4819 -4.61467C12.7847 -3.24164 11.8422 -0.830881 11.5338 0.541409C11.2907 1.62322 11.2924 2.68623 11.2906 3.11739L25.2905 3.17473C25.2927 2.63127 25.3284 3.00908 25.1931 3.61132C25.1078 3.99059 24.8941 4.76004 24.3373 5.61346C23.7177 6.56308 22.8522 7.343 21.8332 7.86175C20.9186 8.3273 20.1264 8.45635 19.7623 8.50004C19.5643 8.5238 19.413 8.53105 19.3333 8.53369C19.2907 8.5351 19.2585 8.53549 19.2392 8.5356C19.2293 8.53566 19.2218 8.53565 19.2171 8.53562C19.2123 8.5356 19.2098 8.53557 19.2098 8.53557C19.2098 8.53557 19.2118 8.5356 19.2162 8.53568C19.2205 8.53577 19.2268 8.53591 19.2352 8.53613C19.2526 8.53658 19.2756 8.53726 19.3075 8.5383C19.4322 8.54236 19.3963 8.5415 19.5677 8.54718C19.7861 8.55442 20.0842 8.56295 20.4325 8.56295V-5.43705ZM11.2906 3.11939C11.2903 3.20064 11.2837 3.66422 11.3248 4.15837C11.3638 4.62589 11.48 5.68145 12.0207 6.85788C12.6444 8.21469 13.8096 9.66305 15.676 10.5216C17.3661 11.2992 18.9393 11.2696 19.8936 11.1513L18.1702 -2.74225C18.7521 -2.81444 20.0461 -2.87835 21.5271 -2.19702C23.1842 -1.43467 24.2103 -0.144425 24.7414 1.01107C25.1896 1.98619 25.2599 2.79725 25.2765 2.99573C25.2952 3.22085 25.2896 3.39087 25.2905 3.17272L11.2906 3.11939ZM19.8975 11.1508C21.1466 10.9951 22.9998 10.4569 24.5317 8.81703C26.0005 7.24475 26.3663 5.50768 26.4806 4.69906C26.5405 4.27526 26.5553 3.92315 26.561 3.74297C26.5641 3.64603 26.5654 3.56203 26.5661 3.51453C26.567 3.44433 26.5668 3.45259 26.5672 3.42775C26.5689 3.33023 26.5754 3.79835 26.4384 4.40535L12.7819 1.32333C12.5788 2.22345 12.5726 2.9941 12.5693 3.18839C12.5613 3.65506 12.5576 3.1696 12.6183 2.74018C12.6972 2.18178 12.9896 0.66405 14.3011 -0.739891C15.6758 -2.21145 17.2879 -2.63231 18.1663 -2.74177L19.8975 11.1508ZM25.8719 -0.264724L25.8707 -0.267006L13.3473 5.99112L13.3485 5.9934L25.8719 -0.264724Z" fill="#585858" mask="url(#path-10-inside-4_443_640)"/>
</svg>
