<svg width="25" height="24" viewBox="0 0 25 24" fill="none" xmlns="http://www.w3.org/2000/svg">
<rect x="3.59674" y="10.4753" width="0.625372" height="9.84961" rx="0.312686" fill="#00566D" stroke="#00566D" stroke-width="0.625372"/>
<rect x="20.6381" y="10.4753" width="0.625372" height="9.84961" rx="0.312686" fill="#00566D" stroke="#00566D" stroke-width="0.625372"/>
<mask id="path-3-inside-1_443_780" fill="white">
<path fill-rule="evenodd" clip-rule="evenodd" d="M0.0293464 21.4783C0.689736 21.9197 11.378 22.1991 12.8642 22.1912C15.7316 22.1752 19.4943 22.0657 22.34 21.4133C22.9274 21.2787 23.7851 21.0369 24.3269 20.7312C24.6862 20.5282 24.7945 20.5533 24.758 20.1039C24.5299 19.926 23.7965 20.3594 23.4715 20.4609C19.2057 21.7977 10.5055 21.2 6.01848 21.0255L1.16307 20.7997C0.548306 20.7597 -0.149723 20.4324 0.0282058 21.4794L0.0293464 21.4783Z"/>
</mask>
<path fill-rule="evenodd" clip-rule="evenodd" d="M0.0293464 21.4783C0.689736 21.9197 11.378 22.1991 12.8642 22.1912C15.7316 22.1752 19.4943 22.0657 22.34 21.4133C22.9274 21.2787 23.7851 21.0369 24.3269 20.7312C24.6862 20.5282 24.7945 20.5533 24.758 20.1039C24.5299 19.926 23.7965 20.3594 23.4715 20.4609C19.2057 21.7977 10.5055 21.2 6.01848 21.0255L1.16307 20.7997C0.548306 20.7597 -0.149723 20.4324 0.0282058 21.4794L0.0293464 21.4783Z" fill="#00566D"/>
<path d="M0.0293464 21.4783L3.9192 15.6586L-0.860005 12.4642L-4.92281 16.531L0.0293464 21.4783ZM12.8642 22.1912L12.9018 29.1911L12.9032 29.191L12.8642 22.1912ZM22.34 21.4133L20.7767 14.5901L20.7758 14.5903L22.34 21.4133ZM24.3269 20.7312L27.7667 26.8278L27.7707 26.8255L24.3269 20.7312ZM24.758 20.1039L31.7351 19.5372L31.4863 16.4744L29.0633 14.5844L24.758 20.1039ZM23.4715 20.4609L21.3849 13.7791L21.3783 13.7812L23.4715 20.4609ZM6.01848 21.0255L5.69325 28.0179L5.71984 28.0192L5.74644 28.0202L6.01848 21.0255ZM1.16307 20.7997L0.709483 27.7849L0.77363 27.7891L0.837844 27.7921L1.16307 20.7997ZM0.0282058 21.4794L-6.87286 22.6522L-4.60154 36.018L4.98036 26.4268L0.0282058 21.4794ZM-3.86051 27.298C-2.61985 28.1273 -1.34927 28.3704 -1.29512 28.3828C-0.899548 28.4733 -0.526634 28.5314 -0.255315 28.5692C0.307082 28.6474 0.944971 28.7073 1.55427 28.7554C2.79935 28.8535 4.34312 28.9338 5.84207 28.997C8.80885 29.1222 11.9871 29.196 12.9018 29.1911L12.8266 15.1913C12.2551 15.1943 9.34612 15.1324 6.43212 15.0095C4.99069 14.9487 3.64568 14.8768 2.65453 14.7987C2.14571 14.7586 1.82862 14.7243 1.6743 14.7028C1.58725 14.6907 1.66137 14.6975 1.82709 14.7354C1.90929 14.7542 2.10947 14.8021 2.37297 14.8917C2.55413 14.9532 3.19215 15.1726 3.9192 15.6586L-3.86051 27.298ZM12.9032 29.191C15.7281 29.1753 20.2118 29.0828 23.9043 28.2363L20.7758 14.5903C18.7769 15.0486 15.735 15.1751 12.8252 15.1913L12.9032 29.191ZM23.9034 28.2365C24.5415 28.0903 26.2695 27.6725 27.7667 26.8278L20.8872 14.6347C20.9888 14.5773 21.0687 14.5378 21.1192 14.5139C21.1707 14.4896 21.2061 14.4747 21.2221 14.4682C21.2386 14.4614 21.2435 14.4598 21.2355 14.4627C21.2279 14.4655 21.2122 14.471 21.1883 14.4787C21.1386 14.4949 21.0728 14.5145 20.9948 14.5356C20.9177 14.5565 20.8423 14.5751 20.7767 14.5901L23.9034 28.2365ZM27.7707 26.8255C27.7245 26.8516 27.6931 26.8679 27.7106 26.8587C27.7163 26.8557 27.7204 26.8535 27.7325 26.8472C27.7422 26.8421 27.7579 26.8339 27.7751 26.8247C27.8078 26.8074 27.8669 26.776 27.9367 26.7375C28.0996 26.6475 29.0363 26.1501 29.9047 25.1807C32.1318 22.6946 31.7533 19.7611 31.7351 19.5372L17.781 20.6706C17.7769 20.6193 17.7185 20.0146 17.8513 19.2153C18.0213 18.1927 18.4834 16.9484 19.477 15.8392C20.2781 14.9451 21.1226 14.5076 21.1652 14.484C21.2168 14.4555 21.2819 14.4215 21.1895 14.4702C21.1325 14.5002 21.0192 14.5601 20.8831 14.6369L27.7707 26.8255ZM29.0633 14.5844C27.7472 13.5579 26.3791 13.2186 25.4647 13.1115C24.5658 13.0062 23.8257 13.0892 23.3846 13.1608C22.5328 13.2991 21.8568 13.5586 21.6003 13.6589C21.298 13.7772 20.9962 13.9134 20.9496 13.934C20.7384 14.0272 21.0139 13.895 21.3849 13.7791L25.5581 27.1427C26.0916 26.9761 26.5807 26.7516 26.6055 26.7406C26.795 26.6569 26.7518 26.6768 26.7019 26.6963C26.698 26.6979 26.2683 26.8759 25.6284 26.9799C25.2932 27.0343 24.6503 27.1118 23.8365 27.0165C23.0071 26.9194 21.7118 26.6054 20.4528 25.6234L29.0633 14.5844ZM21.3783 13.7812C20.3843 14.0927 18.1287 14.3141 14.8368 14.3099C11.7431 14.306 8.71969 14.1253 6.29052 14.0308L5.74644 28.0202C7.80427 28.1002 11.3745 28.3056 14.8191 28.3099C18.0655 28.314 22.293 28.1659 25.5647 27.1406L21.3783 13.7812ZM6.34371 14.0331L1.4883 13.8072L0.837844 27.7921L5.69325 28.0179L6.34371 14.0331ZM1.61666 13.8144C1.77755 13.8248 2.17854 13.877 1.62929 13.8036C1.51055 13.7877 0.335519 13.5966 -1.0234 13.8579C-2.88722 14.2162 -5.22125 15.4599 -6.38313 18.1525C-7.24616 20.1525 -6.98814 21.9738 -6.87286 22.6522L6.92927 20.3067C6.95559 20.4616 7.23414 21.9312 6.47116 23.6993C6.02939 24.7231 5.2957 25.7057 4.26049 26.4575C3.27435 27.1738 2.29838 27.4756 1.62016 27.606C0.965568 27.7319 0.448519 27.7252 0.205824 27.7155C-0.0473891 27.7053 -0.224203 27.6803 -0.226539 27.68C-0.477571 27.6464 0.241216 27.7545 0.709483 27.7849L1.61666 13.8144ZM4.98036 26.4268L4.9815 26.4256L-4.92281 16.531L-4.92395 16.5321L4.98036 26.4268Z" fill="#00566D" mask="url(#path-3-inside-1_443_780)"/>
<mask id="path-5-inside-2_443_780" fill="white">
<path fill-rule="evenodd" clip-rule="evenodd" d="M4.13538 23.5861C4.68399 24.6605 5.89528 23.3557 6.43477 22.8961C6.63779 22.7227 6.93319 22.5265 6.9868 22.1992L4.33954 22.0806L4.77409 22.4216C5.40711 23.0067 4.31787 23.3192 4.13652 23.5861H4.13538Z"/>
</mask>
<path fill-rule="evenodd" clip-rule="evenodd" d="M4.13538 23.5861C4.68399 24.6605 5.89528 23.3557 6.43477 22.8961C6.63779 22.7227 6.93319 22.5265 6.9868 22.1992L4.33954 22.0806L4.77409 22.4216C5.40711 23.0067 4.31787 23.3192 4.13652 23.5861H4.13538Z" fill="#00566D"/>
<path d="M4.13538 23.5861V16.5861H-7.29868L-2.09892 26.7694L4.13538 23.5861ZM6.43477 22.8961L10.9745 28.2244L10.9804 28.2193L6.43477 22.8961ZM6.9868 22.1992L13.8948 23.3305L15.1675 15.5587L7.30015 15.2062L6.9868 22.1992ZM4.33954 22.0806L4.65288 15.0876L-17.1549 14.1104L0.0179725 27.5873L4.33954 22.0806ZM4.77409 22.4216L9.52552 17.2812L9.31798 17.0893L9.09566 16.9149L4.77409 22.4216ZM4.13652 23.5861V30.5861H7.84317L9.92638 27.5203L4.13652 23.5861ZM-2.09892 26.7694C-1.13687 28.6535 0.854711 30.6258 3.89601 30.9555C6.28352 31.2142 8.08185 30.2803 8.74676 29.9025C9.95364 29.2167 11.44 27.8278 10.9745 28.2244L1.89502 17.5678C1.73082 17.7077 1.5628 17.8607 1.50984 17.9086C1.42294 17.9872 1.38771 18.0184 1.3623 18.0403C1.27043 18.1192 1.45683 17.9425 1.83023 17.7303C2.0563 17.6018 3.41522 16.8214 5.40446 17.037C6.52789 17.1587 7.6531 17.583 8.6203 18.3222C9.54122 19.0261 10.076 19.8276 10.3697 20.4028L-2.09892 26.7694ZM10.9804 28.2193C10.9434 28.251 10.918 28.2714 10.9477 28.2471C10.961 28.2362 11.0289 28.1809 11.098 28.1229C11.2379 28.0056 11.526 27.7595 11.8446 27.4237C12.483 26.751 13.5573 25.3916 13.8948 23.3305L0.0788183 21.0679C0.362744 19.3342 1.26254 18.2365 1.68907 17.787C1.90171 17.5629 2.07456 17.4188 2.10024 17.3972C2.11232 17.3871 2.12341 17.3781 2.08148 17.4124C2.05597 17.4333 1.97693 17.4978 1.88908 17.5728L10.9804 28.2193ZM7.30015 15.2062L4.65288 15.0876L4.02619 29.0735L6.67345 29.1922L7.30015 15.2062ZM0.0179725 27.5873L0.452529 27.9283L9.09566 16.9149L8.6611 16.5738L0.0179725 27.5873ZM0.0226727 27.562C-0.710944 26.8839 -2.38581 24.8968 -1.96759 21.8584C-1.6213 19.3425 -0.0230002 18.0035 0.210657 17.8037C0.55584 17.5084 0.940573 17.2764 0.606109 17.4922C0.544429 17.532 0.274922 17.7041 -0.0199718 17.9304C-0.237586 18.0974 -0.991287 18.6776 -1.65335 19.652L9.92638 27.5203C9.30966 28.4279 8.62967 28.9399 8.50386 29.0365C8.30077 29.1923 8.14117 29.2917 8.19722 29.2555C8.20263 29.252 8.20939 29.2477 8.22636 29.2368C8.24058 29.2277 8.26389 29.2127 8.2888 29.1966C8.33843 29.1646 8.41649 29.1139 8.50646 29.053C8.67358 28.94 8.97444 28.7303 9.31073 28.4427C9.76024 28.0582 11.5235 26.5147 11.9016 23.7674C12.3517 20.4975 10.5756 18.2518 9.52552 17.2812L0.0226727 27.562ZM4.13652 16.5861H4.13538V30.5861H4.13652V16.5861Z" fill="#00566D" mask="url(#path-5-inside-2_443_780)"/>
<mask id="path-7-inside-3_443_780" fill="white">
<path fill-rule="evenodd" clip-rule="evenodd" d="M0.868774 23.17C1.609 23.7243 2.70281 22.4959 2.94917 22.0203L1.70481 21.9507C1.52574 22.3031 1.64778 22.4571 1.1197 22.862C0.891586 23.0376 0.930365 22.8917 0.869915 23.17H0.868774Z"/>
</mask>
<path fill-rule="evenodd" clip-rule="evenodd" d="M0.868774 23.17C1.609 23.7243 2.70281 22.4959 2.94917 22.0203L1.70481 21.9507C1.52574 22.3031 1.64778 22.4571 1.1197 22.862C0.891586 23.0376 0.930365 22.8917 0.869915 23.17H0.868774Z" fill="#00566D"/>
<path d="M0.868774 23.17V16.17H-20.1572L-3.32708 28.7731L0.868774 23.17ZM2.94917 22.0203L9.16481 25.2399L14.14 15.635L3.33995 15.0312L2.94917 22.0203ZM1.70481 21.9507L2.09559 14.9616L-2.46623 14.7065L-4.53585 18.7799L1.70481 21.9507ZM1.1197 22.862L-3.13957 17.3069L-3.14527 17.3113L-3.15096 17.3157L1.1197 22.862ZM0.869915 23.17V30.17H6.51266L7.7104 24.6558L0.869915 23.17ZM-3.32708 28.7731C-1.24449 30.3326 1.11248 30.5229 2.9238 30.1387C4.50787 29.8028 5.66021 29.0563 6.29128 28.5835C7.48341 27.6904 8.52975 26.4659 9.16481 25.2399L-3.26646 18.8006C-3.001 18.2882 -2.75893 18.0027 -2.6884 17.9205C-2.58192 17.7964 -2.39865 17.6007 -2.10293 17.3792C-1.86864 17.2036 -1.14394 16.69 0.0191481 16.4434C1.4095 16.1485 3.35215 16.2845 5.06463 17.5668L-3.32708 28.7731ZM3.33995 15.0312L2.09559 14.9616L1.31404 28.9398L2.5584 29.0093L3.33995 15.0312ZM-4.53585 18.7799C-4.83474 19.3681 -4.99607 19.8629 -5.06883 20.0955C-5.07651 20.1201 -5.08299 20.1411 -5.08706 20.1544C-5.09583 20.1829 -5.0893 20.1617 -5.0944 20.1783C-5.09685 20.1862 -5.08814 20.1577 -5.07482 20.1168C-5.04662 20.0303 -4.9815 19.8375 -4.87657 19.5961C-4.63468 19.0396 -4.30872 18.5146 -3.91564 18.054C-3.56962 17.6486 -3.26393 17.4023 -3.13957 17.3069L5.37897 28.4171C5.76737 28.1193 6.25583 27.7019 6.7331 27.1427C7.25741 26.5284 7.66306 25.8669 7.96285 25.1772C8.18582 24.6643 8.35628 24.0719 8.29304 24.2741C8.26426 24.3661 8.15483 24.7095 7.94548 25.1215L-4.53585 18.7799ZM-3.15096 17.3157C-2.88619 17.1118 -2.58275 16.9155 -2.2499 16.7415C-2.18175 16.7059 -1.9585 16.5955 -2.14876 16.6896C-2.19117 16.7106 -2.73679 16.9691 -3.33022 17.4246C-4.06415 17.988 -4.68167 18.6909 -5.14682 19.4965C-5.5415 20.1801 -5.73032 20.7765 -5.80428 21.0239C-5.88219 21.2845 -5.93027 21.5014 -5.9407 21.5478C-5.9495 21.5869 -5.95701 21.6215 -5.96085 21.6392C-5.96819 21.6731 -5.96545 21.6605 -5.97057 21.6841L7.7104 24.6558C7.72673 24.5806 7.72034 24.6098 7.71799 24.6203C7.7179 24.6207 7.67849 24.802 7.60901 25.0343C7.54348 25.2535 7.36285 25.8292 6.97755 26.4965C6.52178 27.2859 5.91483 27.9771 5.19409 28.5303C4.61384 28.9757 4.08404 29.2257 4.06148 29.2369C3.89108 29.3212 4.13824 29.1996 4.23578 29.1486C4.62739 28.9439 5.01153 28.7 5.39036 28.4083L-3.15096 17.3157ZM0.869915 16.17H0.868774V30.17H0.869915V16.17Z" fill="#00566D" mask="url(#path-7-inside-3_443_780)"/>
<mask id="path-9-inside-4_443_780" fill="white">
<path fill-rule="evenodd" clip-rule="evenodd" d="M12.4068 1.49686C15.2309 4.03006 20.1102 8.03803 22.4963 10.6089C23.3608 11.5407 24.1581 11.1381 24.0566 10.4697C23.987 10.0146 23.005 9.3725 22.7084 9.02918C19.7486 6.34086 13.7367 0.919729 13.4105 0.595807C12.7798 -0.0280844 12.2927 -0.342882 11.4841 0.571856C8.1194 3.61376 4.76498 6.65224 1.3946 9.68387C1.12884 9.94392 0.741049 9.99525 0.704551 10.4731C0.676037 10.8484 0.991975 11.1404 1.35011 11.1563C1.75159 11.1735 2.6093 10.3363 2.90243 10.0089C5.79035 7.38106 8.71592 4.78056 11.6403 2.19261C12.0065 1.89606 11.9597 1.75006 12.4079 1.498L12.4068 1.49686Z"/>
</mask>
<path fill-rule="evenodd" clip-rule="evenodd" d="M12.4068 1.49686C15.2309 4.03006 20.1102 8.03803 22.4963 10.6089C23.3608 11.5407 24.1581 11.1381 24.0566 10.4697C23.987 10.0146 23.005 9.3725 22.7084 9.02918C19.7486 6.34086 13.7367 0.919729 13.4105 0.595807C12.7798 -0.0280844 12.2927 -0.342882 11.4841 0.571856C8.1194 3.61376 4.76498 6.65224 1.3946 9.68387C1.12884 9.94392 0.741049 9.99525 0.704551 10.4731C0.676037 10.8484 0.991975 11.1404 1.35011 11.1563C1.75159 11.1735 2.6093 10.3363 2.90243 10.0089C5.79035 7.38106 8.71592 4.78056 11.6403 2.19261C12.0065 1.89606 11.9597 1.75006 12.4079 1.498L12.4068 1.49686Z" fill="#00566D"/>
<path d="M12.4068 1.49686L17.0809 -3.71394L7.45752 6.44708L12.4068 1.49686ZM22.4963 10.6089L27.6278 5.84789L27.627 5.84694L22.4963 10.6089ZM24.0566 10.4697L30.9772 9.41864L30.9762 9.41184L24.0566 10.4697ZM22.7084 9.02918L28.0058 4.45339L27.7287 4.13256L27.4149 3.84753L22.7084 9.02918ZM13.4105 0.595807L18.3429 -4.37129L18.3332 -4.38086L13.4105 0.595807ZM11.4841 0.571856L16.1785 5.7644L16.4691 5.50168L16.7286 5.20818L11.4841 0.571856ZM1.3946 9.68387L-3.2867 4.4795L-3.39605 4.57786L-3.50118 4.68073L1.3946 9.68387ZM0.704551 10.4731L-6.27512 9.94009L-6.27533 9.94276L0.704551 10.4731ZM1.35011 11.1563L1.03832 18.1494L1.05209 18.15L1.35011 11.1563ZM2.90243 10.0089L-1.80872 4.83158L-2.07352 5.07253L-2.31236 5.33925L2.90243 10.0089ZM11.6403 2.19261L7.23449 -3.24692L7.11576 -3.15076L7.00135 -3.04951L11.6403 2.19261ZM12.4079 1.498L15.839 7.59944L23.8853 3.07467L17.3572 -3.45222L12.4079 1.498ZM7.73266 6.70765C11.0444 9.67835 15.261 13.1033 17.3656 15.3708L27.627 5.84694C24.9594 2.97281 19.4173 -1.61822 17.0809 -3.71394L7.73266 6.70765ZM17.3647 15.3699C18.6726 16.7796 21.4799 18.8179 25.2065 17.9616C29.4837 16.9786 31.5118 12.9383 30.9772 9.41864L17.1359 11.5208C16.9394 10.2267 17.1293 8.63877 18.0581 7.16757C19.0042 5.66895 20.48 4.68281 22.071 4.3172C25.2081 3.59628 27.1845 5.37002 27.6278 5.84789L17.3647 15.3699ZM30.9762 9.41184C30.8055 8.2951 30.4119 7.439 30.1197 6.90945C29.818 6.36261 29.4989 5.9395 29.2662 5.65632C28.817 5.10972 28.3629 4.69436 28.1324 4.48838C27.9178 4.29657 27.6042 4.03251 27.5899 4.02031C27.4014 3.85867 27.6835 4.08028 28.0058 4.45339L17.4111 13.605C17.6912 13.9293 17.9515 14.1764 18.091 14.3057C18.2458 14.449 18.3891 14.573 18.4789 14.6499C18.7343 14.8689 18.7262 14.8582 18.8028 14.9267C18.8636 14.9811 18.6866 14.833 18.4504 14.5455C18.3241 14.3919 18.0955 14.0963 17.8619 13.673C17.6379 13.2671 17.2903 12.5306 17.137 11.5276L30.9762 9.41184ZM27.4149 3.84753C25.9286 2.4976 23.6764 0.46183 21.7688 -1.26445C20.8119 -2.13037 19.942 -2.91819 19.2919 -3.50878C18.5368 -4.19484 18.28 -4.4337 18.3429 -4.37128L8.47815 5.56289C8.95129 6.03272 15.2219 11.6857 18.002 14.2108L27.4149 3.84753ZM18.3332 -4.38086C18.2407 -4.47234 16.4138 -6.5144 13.487 -6.9252C9.64629 -7.46428 7.16107 -5.10681 6.2396 -4.06447L16.7286 5.20818C16.6157 5.33578 14.7784 7.39329 11.541 6.9389C10.2127 6.75246 9.31668 6.19666 8.9413 5.93374C8.58375 5.6833 8.38948 5.4752 8.48782 5.57248L18.3332 -4.38086ZM6.78967 -4.62069C3.41829 -1.57273 0.0749943 1.45568 -3.2867 4.4795L6.07589 14.8882C9.45497 11.8488 12.8205 8.80024 16.1785 5.7644L6.78967 -4.62069ZM-3.50118 4.68073C-3.06641 4.25529 -2.67533 4.00692 -2.66579 4.00064C-2.48713 3.88317 -2.9781 4.19379 -3.34126 4.47702C-3.82684 4.85572 -4.58036 5.53032 -5.2123 6.58372C-5.86894 7.67829 -6.19111 8.84009 -6.27512 9.94009L7.68423 11.0062C7.61846 11.8673 7.35846 12.8434 6.7931 13.7858C6.25244 14.6871 5.61932 15.243 5.26846 15.5166C5.10052 15.6476 4.96952 15.7346 4.93854 15.7552C4.92188 15.7662 4.91185 15.7727 4.9302 15.7608C4.93948 15.7547 4.98219 15.7272 5.02538 15.6988C5.18352 15.5948 5.72272 15.2425 6.29037 14.687L-3.50118 4.68073ZM-6.27533 9.94276C-6.65584 14.9503 -2.53787 17.99 1.03832 18.1494L1.66191 4.16329C4.52182 4.29081 8.00791 6.74647 7.68443 11.0035L-6.27533 9.94276ZM1.05209 18.15C3.26392 18.2443 4.87942 17.2885 5.20564 17.1012C5.82188 16.7475 6.31391 16.3648 6.61668 16.1155C7.23423 15.6069 7.775 15.0608 8.11722 14.6786L-2.31236 5.33925C-2.26327 5.28442 -2.29791 5.32054 -2.28287 5.30815C-2.28136 5.30691 -2.09735 5.15074 -1.76401 4.9594C-1.59287 4.86116 -1.25948 4.68213 -0.795845 4.51958C-0.374523 4.37187 0.499111 4.11373 1.64814 4.16269L1.05209 18.15ZM7.61358 15.1863C10.4641 12.5925 13.3598 10.0184 16.2793 7.43472L7.00135 -3.04951C4.07205 -0.457243 1.11663 2.16964 -1.80872 4.83158L7.61358 15.1863ZM16.0462 7.63214C16.2313 7.48221 16.4084 7.32704 16.5783 7.16582C16.749 7.00379 16.8968 6.85057 17.0238 6.71131C17.1467 6.57655 17.2424 6.46314 17.2911 6.40509C17.3032 6.39067 17.3138 6.37792 17.3204 6.36997C17.3289 6.35983 17.3303 6.35814 17.3331 6.35477C17.3374 6.34956 17.3256 6.36375 17.3071 6.38534C17.2673 6.43174 17.1808 6.53092 17.0613 6.65271C16.9379 6.77852 16.7966 6.91096 16.6378 7.04359C16.4807 7.17482 16.3291 7.28729 16.1887 7.38245C16.0507 7.47603 15.9311 7.54769 15.839 7.59944L8.97685 -4.60344C8.56285 -4.37064 8.11404 -4.07804 7.66295 -3.70125C7.19698 -3.31205 6.86997 -2.95015 6.67956 -2.7281C6.6243 -2.66366 6.52638 -2.54612 6.56076 -2.58715C6.56337 -2.59027 6.61078 -2.64705 6.67957 -2.72248C6.84261 -2.90125 7.03091 -3.08203 7.23449 -3.24692L16.0462 7.63214ZM17.3572 -3.45222L17.3561 -3.45336L7.45752 6.44708L7.45866 6.44822L17.3572 -3.45222Z" fill="#00566D" mask="url(#path-9-inside-4_443_780)"/>
<mask id="path-11-inside-5_443_780" fill="white">
<path fill-rule="evenodd" clip-rule="evenodd" d="M18.9913 2.86206L20.5152 2.83468C20.5152 3.746 20.5197 4.63336 20.5152 5.52073C20.5094 6.56891 20.5665 7.15972 21.6785 6.74798C21.8964 5.95186 21.7823 4.22732 21.7823 3.23502C21.7835 1.26754 21.7949 1.56181 19.8148 1.56295C17.9295 1.56295 17.6808 1.19682 17.6728 3.14606C17.6706 3.74486 17.6694 4.29689 18.4142 4.20451C19.1556 4.11212 18.8602 3.45059 18.9925 2.86434L18.9913 2.86206Z"/>
</mask>
<path fill-rule="evenodd" clip-rule="evenodd" d="M18.9913 2.86206L20.5152 2.83468C20.5152 3.746 20.5197 4.63336 20.5152 5.52073C20.5094 6.56891 20.5665 7.15972 21.6785 6.74798C21.8964 5.95186 21.7823 4.22732 21.7823 3.23502C21.7835 1.26754 21.7949 1.56181 19.8148 1.56295C17.9295 1.56295 17.6808 1.19682 17.6728 3.14606C17.6706 3.74486 17.6694 4.29689 18.4142 4.20451C19.1556 4.11212 18.8602 3.45059 18.9925 2.86434L18.9913 2.86206Z" fill="#00566D"/>
<path d="M18.9913 2.86206L18.8656 -4.13682L7.76819 -3.93746L12.7296 5.99112L18.9913 2.86206ZM20.5152 2.83468H27.5152V-4.2922L20.3894 -4.16419L20.5152 2.83468ZM20.5152 5.52073L27.515 5.55881L27.5151 5.55671L20.5152 5.52073ZM21.6785 6.74798L24.1091 13.3125L27.4812 12.0639L28.4303 8.59553L21.6785 6.74798ZM21.7823 3.23502L14.7823 3.23096V3.23502H21.7823ZM19.8148 1.56295V8.56295L19.8189 8.56295L19.8148 1.56295ZM17.6728 3.14606L10.6729 3.11739L10.6729 3.11939L17.6728 3.14606ZM18.4142 4.20451L19.2759 11.1513L19.2798 11.1508L18.4142 4.20451ZM18.9925 2.86434L25.8208 4.40535L26.3705 1.96925L25.2542 -0.264724L18.9925 2.86434ZM19.1171 9.86093L20.6409 9.83355L20.3894 -4.16419L18.8656 -4.13682L19.1171 9.86093ZM13.5152 2.83468C13.5152 3.79678 13.5197 4.61841 13.5152 5.48474L27.5151 5.55671C27.5197 4.64832 27.5152 3.69521 27.5152 2.83468H13.5152ZM13.5153 5.48264C13.5139 5.72866 13.5087 6.33807 13.5814 6.98921C13.6416 7.52903 13.8376 9.05169 14.8657 10.5832C16.1966 12.5659 18.2857 13.6679 20.4286 13.8517C22.1081 13.9958 23.4669 13.5502 24.1091 13.3125L19.248 0.183494C19.3341 0.151613 20.2688 -0.2134 21.625 -0.0970627C23.4446 0.0590169 25.3113 1.02498 26.4897 2.78043C27.3652 4.08471 27.4785 5.28886 27.4949 5.43597C27.5238 5.69439 27.5135 5.83688 27.515 5.55881L13.5153 5.48264ZM28.4303 8.59553C28.8262 7.14881 28.8132 5.59401 28.8121 5.05135C28.8113 4.63939 28.802 4.23561 28.7949 3.92797C28.7868 3.58162 28.7823 3.38277 28.7823 3.23502H14.7823C14.7823 3.58342 14.7921 3.97225 14.7986 4.25322C14.8061 4.57289 14.8117 4.83606 14.8121 5.07879C14.8126 5.32779 14.8071 5.46532 14.8032 5.5211C14.8016 5.54455 14.8032 5.50874 14.8146 5.4283C14.8246 5.35758 14.854 5.16631 14.9267 4.90043L28.4303 8.59553ZM28.7823 3.23908C28.7825 2.96714 28.7967 2.08682 28.7046 1.31451C28.6191 0.598074 28.2413 -2.18227 25.5725 -4.06209C23.4541 -5.55427 21.1398 -5.45139 21.0333 -5.45254C20.7496 -5.45561 20.4504 -5.44765 20.3084 -5.44441C20.1231 -5.44019 19.9741 -5.43715 19.8108 -5.43705L19.8189 8.56295C20.1506 8.56275 20.4344 8.55635 20.6275 8.55195C20.8638 8.54656 20.8885 8.54671 20.8822 8.54664C20.8635 8.54644 20.7814 8.54538 20.66 8.53688C20.5405 8.52852 20.3319 8.50958 20.0672 8.46191C19.5589 8.37039 18.5616 8.12398 17.5105 7.38359C15.0862 5.676 14.8291 3.19092 14.8031 2.97262C14.7704 2.69846 14.7827 2.51917 14.7823 3.23096L28.7823 3.23908ZM19.8148 -5.43705C19.1352 -5.43705 19.7696 -5.44991 18.7797 -5.46317C18.6368 -5.46509 16.7532 -5.57629 14.8642 -4.61467C12.167 -3.24164 11.2246 -0.830881 10.9161 0.541409C10.673 1.62322 10.6747 2.68623 10.6729 3.11739L24.6728 3.17473C24.675 2.63127 24.7108 3.00908 24.5754 3.61132C24.4902 3.99059 24.2764 4.76004 23.7196 5.61346C23.1 6.56308 22.2345 7.343 21.2155 7.86175C20.301 8.3273 19.5088 8.45635 19.1446 8.50004C18.9466 8.5238 18.7954 8.53105 18.7156 8.53369C18.673 8.5351 18.6408 8.53549 18.6215 8.5356C18.6116 8.53566 18.6041 8.53565 18.5994 8.53562C18.5946 8.5356 18.5921 8.53557 18.5921 8.53557C18.5921 8.53557 18.5941 8.5356 18.5985 8.53568C18.6029 8.53577 18.6091 8.53591 18.6175 8.53613C18.635 8.53658 18.6579 8.53726 18.6898 8.5383C18.8145 8.54236 18.7786 8.5415 18.95 8.54718C19.1684 8.55442 19.4665 8.56295 19.8148 8.56295V-5.43705ZM10.6729 3.11939C10.6726 3.20064 10.666 3.66422 10.7072 4.15837C10.7461 4.62589 10.8623 5.68145 11.4031 6.85788C12.0267 8.21469 13.192 9.66305 15.0583 10.5216C16.7485 11.2992 18.3216 11.2696 19.2759 11.1513L17.5525 -2.74225C18.1344 -2.81444 19.4284 -2.87835 20.9094 -2.19702C22.5665 -1.43467 23.5926 -0.144425 24.1237 1.01107C24.5719 1.98619 24.6423 2.79725 24.6588 2.99573C24.6776 3.22085 24.672 3.39087 24.6728 3.17272L10.6729 3.11939ZM19.2798 11.1508C20.5289 10.9951 22.3821 10.4569 23.914 8.81703C25.3828 7.24475 25.7486 5.50768 25.8629 4.69906C25.9228 4.27526 25.9377 3.92315 25.9434 3.74297C25.9464 3.64603 25.9477 3.56203 25.9484 3.51453C25.9494 3.44433 25.9491 3.45259 25.9495 3.42775C25.9512 3.33023 25.9577 3.79835 25.8208 4.40535L12.1642 1.32333C11.9611 2.22345 11.9549 2.9941 11.9516 3.18839C11.9436 3.65506 11.9399 3.1696 12.0006 2.74018C12.0795 2.18178 12.3719 0.66405 13.6834 -0.739891C15.0581 -2.21145 16.6702 -2.63231 17.5486 -2.74177L19.2798 11.1508ZM25.2542 -0.264724L25.2531 -0.267006L12.7296 5.99112L12.7308 5.9934L25.2542 -0.264724Z" fill="#00566D" mask="url(#path-11-inside-5_443_780)"/>
</svg>
