<svg width="24" height="22" viewBox="0 0 24 22" fill="none" xmlns="http://www.w3.org/2000/svg">
<path d="M12 20.0032C17.25 16.4557 22.5 12.5032 22.5 7.25321C22.502 6.56321 22.3675 5.87963 22.1044 5.24178C21.8413 4.60392 21.4546 4.02438 20.9667 3.53648C20.4788 3.04858 19.8993 2.66194 19.2614 2.39881C18.6236 2.13567 17.94 2.00123 17.25 2.00321C15.9 2.00321 14.565 2.51321 13.5375 3.54071L12 5.07821L10.4625 3.54071C9.976 3.05135 9.39754 2.663 8.76041 2.398C8.12328 2.133 7.44005 1.99658 6.75 1.99658C6.05996 1.99658 5.37673 2.133 4.7396 2.398C4.10247 2.663 3.52401 3.05135 3.0375 3.54071C2.54934 4.02776 2.16222 4.60646 1.89837 5.24356C1.63452 5.88067 1.49914 6.56363 1.5 7.25321C1.5 12.5032 6.75 16.4557 12 20.0032Z" fill="#D90101" stroke="#D90101" stroke-width="2"/>
</svg>
