<svg width="16" height="16" viewBox="0 0 16 16" fill="none" xmlns="http://www.w3.org/2000/svg">
<path d="M7.5479 0.957121C7.72831 0.575191 8.27169 0.575191 8.4521 0.957121L10.173 4.60039C10.2459 4.75469 10.3925 4.86116 10.5617 4.8828L14.5585 5.39366C14.9775 5.44721 15.1454 5.964 14.8379 6.2536L11.9047 9.01612C11.7805 9.13312 11.7245 9.3054 11.7563 9.47308L12.5055 13.4321C12.584 13.8471 12.1444 14.1665 11.7739 13.9635L8.24023 12.0276C8.09057 11.9456 7.90943 11.9456 7.75977 12.0276L4.22606 13.9635C3.85561 14.1665 3.416 13.8471 3.49454 13.4321L4.24375 9.47308C4.27548 9.3054 4.2195 9.13312 4.09528 9.01612L1.16212 6.2536C0.854629 5.964 1.02254 5.44721 1.44153 5.39366L5.43828 4.8828C5.60755 4.86116 5.7541 4.75469 5.82698 4.60039L7.5479 0.957121Z" fill="#EBBD09"/>
</svg>
