<svg width="18" height="13" viewBox="0 0 18 13" fill="none" xmlns="http://www.w3.org/2000/svg">
<path fill-rule="evenodd" clip-rule="evenodd" d="M9.47117 2.84599C11.9377 2.8461 14.31 3.81668 16.0976 5.55712C16.2322 5.69149 16.4474 5.68979 16.5799 5.55332L17.8667 4.2234C17.9338 4.15418 17.9713 4.06042 17.9707 3.96287C17.9701 3.86531 17.9316 3.77201 17.8637 3.7036C13.1718 -0.901199 5.76978 -0.901199 1.07787 3.7036C1.0099 3.77196 0.971338 3.86523 0.970711 3.96279C0.970084 4.06034 1.00745 4.15413 1.07453 4.2234L2.36167 5.55332C2.49416 5.69 2.70949 5.6917 2.84402 5.55712C4.63186 3.81656 7.00437 2.84598 9.47117 2.84599ZM9.47115 7.17266C10.8264 7.17257 12.1332 7.68843 13.1378 8.61999C13.2736 8.7522 13.4877 8.74933 13.6201 8.61353L14.9054 7.28361C14.9731 7.21386 15.0107 7.11922 15.0097 7.02089C15.0087 6.92255 14.9693 6.82872 14.9002 6.76039C11.8411 3.84629 7.10377 3.84629 4.04469 6.76039C3.97559 6.82872 3.93616 6.9226 3.93526 7.02097C3.93435 7.11933 3.97204 7.21396 4.03987 7.28361L5.32478 8.61353C5.45723 8.74933 5.67126 8.7522 5.80713 8.61999C6.81102 7.68905 8.11684 7.17323 9.47115 7.17266ZM12.0458 10.084C12.0478 10.1826 12.0099 10.2777 11.9412 10.3468L9.71789 12.6445C9.65272 12.712 9.56386 12.75 9.47115 12.75C9.37844 12.75 9.28958 12.712 9.22441 12.6445L7.00076 10.3468C6.93207 10.2776 6.89428 10.1825 6.89632 10.0839C6.89836 9.98529 6.94004 9.89191 7.01152 9.82581C8.43139 8.59595 10.5109 8.59595 11.9308 9.82581C12.0022 9.89196 12.0438 9.98537 12.0458 10.084Z" fill="black"/>
</svg>
