<svg width="105" height="29" viewBox="0 0 105 29" fill="none" xmlns="http://www.w3.org/2000/svg">
<rect width="105" height="29" fill="#1E1E1E"/>
<g id="TELAS DE LOGIN &#38; CADASTRO">
<path d="M-1653 -1335C-1653 -1336.1 -1652.1 -1337 -1651 -1337H2617C2618.1 -1337 2619 -1336.1 2619 -1335V1805C2619 1806.1 2618.1 1807 2617 1807H-1651C-1652.1 1807 -1653 1806.1 -1653 1805V-1335Z" fill="#444444"/>
<path d="M-1651 -1336H2617V-1338H-1651V-1336ZM2618 -1335V1805H2620V-1335H2618ZM2617 1806H-1651V1808H2617V1806ZM-1652 1805V-1335H-1654V1805H-1652ZM-1651 1806C-1651.55 1806 -1652 1805.55 -1652 1805H-1654C-1654 1806.66 -1652.66 1808 -1651 1808V1806ZM2618 1805C2618 1805.55 2617.55 1806 2617 1806V1808C2618.66 1808 2620 1806.66 2620 1805H2618ZM2617 -1336C2617.55 -1336 2618 -1335.55 2618 -1335H2620C2620 -1336.66 2618.66 -1338 2617 -1338V-1336ZM-1651 -1338C-1652.66 -1338 -1654 -1336.66 -1654 -1335H-1652C-1652 -1335.55 -1651.55 -1336 -1651 -1336V-1338Z" fill="white" fill-opacity="0.1"/>
<g id="Cadastro01">
<rect width="390" height="844" transform="translate(-142 -249)" fill="#FEFEFE"/>
<g id="Frame 714">
<g id="breadcrumb">
<path id="Line 88" d="M27.5984 15.064H84.7833" stroke="#1D1D1F" stroke-width="1.53465"/>
<circle id="Ellipse 70" cx="14.6707" cy="14.5499" r="13.8438" fill="#00566D"/>
<circle id="Ellipse 71" cx="90.3292" cy="13.8438" r="13.8438" fill="#80BBB9"/>
</g>
</g>
</g>
</g>
</svg>
