<svg width="19" height="13" viewBox="0 0 19 13" fill="none" xmlns="http://www.w3.org/2000/svg">
<g id="Connection">
<g id="5G">
<path d="M4.32495 12.4893C3.68237 12.4893 3.11271 12.3662 2.61597 12.1201C2.11922 11.874 1.72274 11.5391 1.42651 11.1152C1.13029 10.6868 0.957113 10.2083 0.906982 9.67969L0.900146 9.59082H2.34253L2.34937 9.64551C2.39494 9.93262 2.50431 10.1947 2.67749 10.4316C2.85522 10.6686 3.08765 10.8555 3.37476 10.9922C3.66187 11.1289 3.98315 11.1973 4.33862 11.1973C4.74422 11.1973 5.10197 11.1084 5.41187 10.9307C5.72176 10.7484 5.9633 10.5 6.13647 10.1855C6.31421 9.87109 6.40308 9.50879 6.40308 9.09863V9.08496C6.40308 8.67936 6.31421 8.31934 6.13647 8.00488C5.95874 7.69043 5.7172 7.44661 5.41187 7.27344C5.10653 7.0957 4.75334 7.00684 4.35229 7.00684C4.05607 7.00684 3.78035 7.05241 3.52515 7.14355C3.2745 7.23014 3.05119 7.3623 2.85522 7.54004C2.76864 7.62207 2.6866 7.71094 2.60913 7.80664C2.53166 7.89779 2.4633 8.00033 2.40405 8.11426H1.07788L1.57007 2.38574H7.31226V3.68457H2.78003L2.47925 6.8291H2.58862C2.7299 6.60579 2.90535 6.41667 3.11499 6.26172C3.32918 6.10677 3.57072 5.98828 3.8396 5.90625C4.10848 5.82422 4.39331 5.7832 4.69409 5.7832C5.31388 5.7832 5.86076 5.92448 6.33472 6.20703C6.81323 6.48958 7.18921 6.87695 7.46265 7.36914C7.73608 7.86133 7.8728 8.42415 7.8728 9.05762V9.07129C7.8728 9.74121 7.72013 10.3337 7.41479 10.8486C7.11401 11.3636 6.69702 11.7669 6.16382 12.0586C5.63517 12.3457 5.02222 12.4893 4.32495 12.4893Z" fill="black"/>
<path d="M13.9737 12.4893C13.2673 12.4893 12.6338 12.3708 12.0733 12.1338C11.5127 11.8923 11.0342 11.5459 10.6377 11.0947C10.2413 10.6436 9.93592 10.1012 9.72173 9.46777C9.5121 8.82975 9.40728 8.11426 9.40728 7.32129V7.30762C9.40728 6.25944 9.59413 5.35026 9.96783 4.58008C10.3415 3.80534 10.8702 3.20605 11.5538 2.78223C12.2374 2.3584 13.0372 2.14648 13.9532 2.14648C14.7006 2.14648 15.3682 2.27865 15.9561 2.54297C16.544 2.80729 17.0271 3.17871 17.4053 3.65723C17.7836 4.13118 18.032 4.68717 18.1504 5.3252L18.1573 5.39355H16.6192L16.5987 5.3252C16.4255 4.74186 16.1088 4.29297 15.6485 3.97852C15.1928 3.66406 14.6277 3.50684 13.9532 3.50684C13.3471 3.50684 12.8207 3.66178 12.3741 3.97168C11.9275 4.28158 11.5811 4.72135 11.335 5.29102C11.0935 5.85612 10.9727 6.52604 10.9727 7.30078V7.31445C10.9727 7.90234 11.0411 8.43099 11.1778 8.90039C11.3191 9.36979 11.5219 9.77083 11.7862 10.1035C12.0505 10.4316 12.3672 10.6846 12.7364 10.8623C13.1055 11.04 13.5225 11.1289 13.9874 11.1289C14.5251 11.1289 14.9968 11.0241 15.4024 10.8145C15.8126 10.6003 16.1316 10.304 16.3594 9.92578C16.5873 9.54753 16.7035 9.10547 16.7081 8.59961L16.7149 8.38086H14.1788V7.14355H18.2325V8.36719C18.2325 8.99154 18.1322 9.55664 17.9317 10.0625C17.7312 10.5684 17.4441 11.0036 17.0704 11.3682C16.6967 11.7282 16.2478 12.0062 15.7237 12.2021C15.1996 12.3936 14.6163 12.4893 13.9737 12.4893Z" fill="black"/>
</g>
</g>
</svg>
