<svg width="32" height="31" viewBox="0 0 32 31" fill="none" xmlns="http://www.w3.org/2000/svg">
<g id="Frame">
<path id="Vector" d="M29.9721 5.06239C28.5714 5.72819 27.1987 5.99859 25.77 6.40758C24.1998 4.68873 21.8719 4.59361 19.635 5.40616C17.3981 6.21871 15.933 8.20524 15.9652 10.4839V11.8427C11.4199 11.9555 7.37193 9.9472 4.75964 6.40758C4.75964 6.40758 -1.09806 16.5074 10.3624 21.3541C7.74031 23.0485 5.12522 24.1913 1.95825 24.0717C6.59174 26.5216 11.6412 27.364 16.0128 26.133C21.0273 24.7198 25.1481 21.0742 26.7295 15.6133C27.2012 13.9524 27.4355 12.2366 27.4256 10.5138C27.4228 10.1755 29.5407 6.74727 29.9721 5.06103V5.06239Z" fill="#0075FF"/>
</g>
</svg>
