<svg width="107" height="104" viewBox="0 0 107 104" fill="none" xmlns="http://www.w3.org/2000/svg">
<g id="icone-logo">
<rect id="Rectangle 1" x="15.5402" y="45.2719" width="2.70202" height="42.5688" rx="1.35101" fill="#00566D" stroke="#00566D" stroke-width="2.70202"/>
<rect id="Rectangle 2" x="89.1703" y="45.2719" width="2.70202" height="42.5688" rx="1.35101" fill="#00566D" stroke="#00566D" stroke-width="2.70202"/>
<path id="Vector" d="M1.50324 91.7177C1.48938 91.3668 1.5237 91.171 1.55155 91.0779C1.55792 91.0764 1.56489 91.075 1.5725 91.0735C1.80074 91.0296 2.18073 91.0428 2.83151 91.1299C2.97318 91.1488 3.13082 91.1718 3.29914 91.1964C3.79436 91.2688 4.3821 91.3546 4.92802 91.3901L4.94177 91.3909L4.95553 91.3916L25.9341 92.3676L25.9341 92.3676L25.9455 92.3681C28.2291 92.4569 30.773 92.5716 33.5136 92.6951C42.3583 93.0938 53.2524 93.5848 64.0646 93.5985C72.8205 93.6095 81.6136 93.3097 89.2864 92.3733C78.3839 94.0199 65.7346 94.3504 55.5737 94.407L1.50324 91.7177ZM1.50324 91.7177C1.93788 91.8162 2.52895 91.9185 3.27227 92.022C4.77689 92.2314 6.80558 92.4322 9.21031 92.6218C14.0141 93.0006 20.2335 93.3284 26.5795 93.5962C39.2779 94.132 52.399 94.424 55.5734 94.407L1.50324 91.7177ZM101.738 89.4682C101.738 89.4683 101.737 89.4684 101.737 89.4686L101.859 89.861C101.86 89.8609 101.86 89.8608 101.86 89.8608C101.86 89.8607 101.861 89.8606 101.861 89.8605L101.738 89.4682ZM101.738 89.4682C102.716 89.1065 103.627 88.711 104.37 88.2916L101.738 89.4682ZM106.341 88.204C106.341 88.2044 106.335 88.2042 106.325 88.2027C106.336 88.203 106.341 88.2037 106.341 88.204Z" fill="#00566D" stroke="#C45D22" stroke-width="3"/>
<path id="Vector_2" d="M22.6578 97.1054L27.4242 97.319C27.3862 97.3502 27.3475 97.3819 27.308 97.4141C27.161 97.5343 27.003 97.6634 26.829 97.8121C26.8292 97.8119 26.8294 97.8117 26.8296 97.8115L22.6578 97.1054Z" fill="#00566D" stroke="#C45D22" stroke-width="3"/>
<path id="Vector_3" d="M8.14891 98.1206C7.78304 98.3948 7.42674 98.6221 7.08722 98.7989C7.53051 98.3125 7.82756 97.8452 8.0433 97.3488C8.18301 97.0273 8.28332 96.6986 8.35732 96.4561C8.36053 96.4455 8.36369 96.4352 8.3668 96.425L9.89987 96.5107C9.38899 97.0706 8.79042 97.6399 8.14891 98.1206Z" fill="#00566D" stroke="#C45D22" stroke-width="3"/>
<path id="Vector_4" d="M56.8867 3.6408C57.7968 4.5436 68.2659 14.0172 79.1072 23.8275C85.6145 29.716 92.2558 35.7257 97.0446 40.0763C97.4466 40.5261 98.0059 41.019 98.5474 41.4833C98.7346 41.6438 98.9234 41.8039 99.1129 41.9647C99.5396 42.3267 99.9704 42.692 100.396 43.0724C101.007 43.6187 101.538 44.136 101.925 44.6065C102.341 45.1139 102.445 45.3959 102.457 45.4748C102.573 46.2358 102.218 46.584 101.799 46.6804C101.261 46.804 99.9786 46.6409 98.2985 44.8295L98.2983 44.8293C90.9868 36.9495 78.2791 25.9521 67.1792 16.3461C62.5365 12.3282 58.175 8.55377 54.6073 5.35267L53.5861 6.43066L52.8751 5.16669C51.7388 5.80585 51.1718 6.35334 50.6803 6.92666C50.599 7.02153 50.5245 7.1107 50.4529 7.19646C50.1418 7.56899 49.8844 7.87729 49.3497 8.31053L49.3242 8.33114L49.2997 8.35284C36.6632 19.5384 24.0165 30.7829 11.5307 42.1474L11.474 42.199L11.4228 42.2562C10.8315 42.9167 9.64261 44.1203 8.40878 45.1366C7.79057 45.6458 7.19757 46.0776 6.68816 46.3701C6.19116 46.6554 5.94619 46.7062 5.90316 46.7151C5.89759 46.7163 5.8954 46.7167 5.89648 46.7169C5.04119 46.6769 4.49206 46.0051 4.53981 45.3766C4.57906 44.8641 4.74971 44.6494 5.08602 44.387C5.25624 44.2542 5.42932 44.142 5.66264 43.9907C5.7414 43.9396 5.82701 43.8841 5.92169 43.8218C6.25367 43.6035 6.66305 43.3218 7.05032 42.9476C18.4626 32.6795 29.8329 22.393 41.2136 12.0971C44.3495 9.26003 47.4863 6.42228 50.6249 3.584L50.6871 3.5277L50.7427 3.4648C52.379 1.61344 53.3153 1.43852 53.8602 1.51502C54.601 1.61902 55.4766 2.24565 56.8867 3.6408ZM56.8867 3.6408C56.8862 3.64027 56.8857 3.63973 56.8851 3.6392L57.9417 2.57548L56.8872 3.64125C56.887 3.6411 56.8869 3.64095 56.8867 3.6408Z" fill="#00566D" stroke="#00566D" stroke-width="3"/>
<path id="Vector_5" d="M79.6503 10.9127L82.0281 10.8699L88.6119 10.7516L90.1388 10.7242V12.2514C90.1388 13.5664 90.141 14.8726 90.1432 16.1726C90.1476 18.7554 90.1519 21.3136 90.1388 23.8677L90.1388 23.8681C90.1326 25.0041 90.1451 25.9325 90.2289 26.6837C90.3154 27.4587 90.4609 27.8549 90.5866 28.0422C90.6474 28.1327 90.704 28.2049 90.9777 28.2284C91.2579 28.2525 91.7057 28.2093 92.387 28.0102C92.6617 26.4904 92.7473 24.3096 92.7426 21.8936C92.7399 20.497 92.7081 19.0709 92.6766 17.714C92.675 17.6473 92.6735 17.5806 92.6719 17.5142C92.6422 16.2382 92.6139 15.0211 92.6139 13.9816V13.9807L92.6139 13.9611C92.6151 11.7994 92.6159 10.4036 92.5013 9.44214C92.4453 8.97251 92.3711 8.7047 92.3052 8.55238C92.2538 8.43343 92.2196 8.4108 92.2107 8.40493C92.2102 8.40461 92.2098 8.40434 92.2095 8.40411C92.1091 8.33335 91.7699 8.19975 90.5349 8.18641C89.9867 8.18049 89.3431 8.19519 88.555 8.21318L88.4689 8.21514C87.6507 8.2338 86.7013 8.25457 85.6139 8.2552L85.613 8.2552C84.3509 8.2552 83.1619 8.21463 82.1811 8.18116C81.6142 8.16181 81.1168 8.14484 80.7151 8.13946C79.4371 8.12233 78.8972 8.21488 78.6245 8.35376L78.6236 8.3542C78.5236 8.4051 78.3146 8.51149 78.1368 9.30293C77.9445 10.1588 77.8669 11.485 77.8582 13.6028L79.6503 10.9127ZM79.6503 10.9127L80.4944 12.6021M79.6503 10.9127L80.4944 12.6021M80.4944 12.6021C80.4055 13.203 80.3875 13.7801 80.379 14.2717C80.377 14.3927 80.3754 14.507 80.3739 14.6154C80.3668 15.1333 80.3615 15.5173 80.3123 15.8661C80.2566 16.2604 80.1684 16.3857 80.1265 16.4306C80.0982 16.4609 79.9488 16.6115 79.3767 16.6829C78.7369 16.7623 78.4411 16.6781 78.329 16.6265C78.2546 16.5923 78.1886 16.5441 78.1124 16.3782C78.0184 16.1737 77.9393 15.8453 77.8969 15.3352C77.8549 14.831 77.8557 14.2647 77.8582 13.6032L80.4944 12.6021Z" fill="#00566D" stroke="#00566D" stroke-width="3"/>
</g>
</svg>
