<svg width="23" height="21" viewBox="0 0 23 21" fill="none" xmlns="http://www.w3.org/2000/svg">
<path id="Vector" d="M11.5 19.0032C16.75 15.4557 22 11.5032 22 6.25321C22.002 5.56321 21.8675 4.87963 21.6044 4.24178C21.3413 3.60392 20.9546 3.02438 20.4667 2.53648C19.9788 2.04858 19.3993 1.66194 18.7614 1.39881C18.1236 1.13567 17.44 1.00123 16.75 1.00321C15.4 1.00321 14.065 1.51321 13.0375 2.54071L11.5 4.07821L9.9625 2.54071C9.476 2.05135 8.89754 1.663 8.26041 1.398C7.62328 1.133 6.94005 0.996582 6.25 0.996582C5.55996 0.996582 4.87673 1.133 4.2396 1.398C3.60247 1.663 3.02401 2.05135 2.5375 2.54071C2.04934 3.02776 1.66222 3.60646 1.39837 4.24356C1.13452 4.88067 0.999136 5.56363 1 6.25321C1 11.5032 6.25 15.4557 11.5 19.0032Z" fill="#D90101" stroke="#D90101" stroke-width="2"/>
</svg>
