<svg width="99" height="96" viewBox="0 0 99 96" fill="none" xmlns="http://www.w3.org/2000/svg">
<g id="icone-logo">
<rect id="Rectangle 1" x="13.2585" y="40.3896" width="4.9821" height="41.6313" rx="2.49105" fill="#FEFEFE"/>
<rect id="Rectangle 2" x="81.1396" y="40.3896" width="4.98209" height="41.6313" rx="2.49105" fill="#FEFEFE"/>
<path id="Vector" fill-rule="evenodd" clip-rule="evenodd" d="M0.294142 85.3632C2.92468 87.1175 45.4994 88.2281 51.4193 88.1963C62.841 88.1329 77.8291 87.6977 89.1645 85.1048C91.5043 84.5699 94.9208 83.6089 97.0788 82.394C98.51 81.5872 98.9416 81.6869 98.7962 79.9009C97.8875 79.1937 94.9662 80.9163 93.6714 81.3197C76.6797 86.6324 42.0238 84.2571 24.1507 83.5636L4.81013 82.666C2.36132 82.5074 -0.419147 81.2064 0.289599 85.3677L0.294142 85.3632Z" fill="#FEFEFE"/>
<path id="Vector_2" fill-rule="evenodd" clip-rule="evenodd" d="M16.6497 93.7404C18.835 98.0106 23.6599 92.8248 25.8088 90.998C26.6175 90.3089 27.7942 89.5293 28.0078 88.2283L17.4629 87.7568L19.1939 89.1122C21.7154 91.4377 17.3766 92.6797 16.6542 93.7404H16.6497Z" fill="#FEFEFE"/>
<path id="Vector_3" fill-rule="evenodd" clip-rule="evenodd" d="M3.63794 92.0861C6.5865 94.2891 10.9435 89.407 11.9248 87.5167L6.96814 87.2402C6.25485 88.6409 6.74097 89.2529 4.63745 90.8621C3.7288 91.5602 3.88327 90.98 3.64248 92.0861H3.63794Z" fill="#FEFEFE"/>
<path id="Vector_4" fill-rule="evenodd" clip-rule="evenodd" d="M49.5974 5.94905C60.8464 16.0169 80.2824 31.946 89.7869 42.1635C93.2307 45.867 96.4064 44.2668 96.0021 41.6104C95.7249 39.8018 91.8132 37.2497 90.6319 35.8852C78.8422 25.2009 54.8948 3.65533 53.5954 2.36795C51.083 -0.111618 49.1431 -1.36274 45.9219 2.27276C32.5193 14.3624 19.1576 26.4384 5.73236 38.4872C4.67379 39.5207 3.12909 39.7247 2.9837 41.624C2.87012 43.1154 4.1286 44.2759 5.55518 44.3393C7.1544 44.4073 10.5709 41.0801 11.7385 39.7791C23.242 29.335 34.8954 18.9997 46.5443 8.7142C48.0027 7.53561 47.8164 6.95538 49.6019 5.95358L49.5974 5.94905Z" fill="#FEFEFE"/>
<path id="Vector_5" fill-rule="evenodd" clip-rule="evenodd" d="M75.8255 11.3752L81.8952 11.2664C81.8952 14.8883 81.9134 18.415 81.8952 21.9417C81.8725 26.1075 82.0997 28.4556 86.5293 26.8192C87.3971 23.6551 86.9428 16.8012 86.9428 12.8575C86.9473 5.03797 86.9928 6.20749 79.1057 6.21202C71.5957 6.21202 70.6053 4.75692 70.5735 12.5039C70.5644 14.8837 70.5598 17.0777 73.5266 16.7105C76.4797 16.3434 75.303 13.7142 75.83 11.3842L75.8255 11.3752Z" fill="#FEFEFE"/>
</g>
</svg>
