<svg width="24" height="24" viewBox="0 0 24 24" fill="none" xmlns="http://www.w3.org/2000/svg">
<g clip-path="url(#clip0_443_1248)">
<path d="M11.9951 0.75C13.4725 0.75 14.9354 1.04099 16.3003 1.60636C17.6652 2.17172 18.9054 3.00039 19.9501 4.04505C20.9947 5.08971 21.8234 6.3299 22.3888 7.69481C22.9541 9.05972 23.2451 10.5226 23.2451 12C23.2451 13.4774 22.9541 14.9403 22.3888 16.3052C21.8234 17.6701 20.9947 18.9103 19.9501 19.955C18.9054 20.9996 17.6652 21.8283 16.3003 22.3936C14.9354 22.959 13.4725 23.25 11.9951 23.25C9.01143 23.25 6.14995 22.0647 4.04017 19.955C1.93038 17.8452 0.745117 14.9837 0.745117 12C0.745117 9.01631 1.93038 6.15483 4.04017 4.04505C6.14995 1.93526 9.01143 0.75 11.9951 0.75ZM11.9951 6.75C11.1344 6.75101 10.3002 7.04809 9.63259 7.59138C8.96497 8.13466 8.50457 8.89107 8.32867 9.73364C8.15277 10.5762 8.27207 11.4536 8.66656 12.2187C9.06104 12.9837 9.70668 13.5897 10.4951 13.935V15.51L10.3826 15.5325C8.26381 15.9542 6.39496 17.1903 5.17762 18.975C6.94012 20.6925 9.34012 21.75 11.9951 21.75C14.6501 21.75 17.0501 20.6925 18.8126 18.975C17.597 17.1919 15.7312 15.9561 13.6151 15.5325L13.4951 15.51V13.935C14.1374 13.6556 14.6886 13.2019 15.0863 12.6253C15.484 12.0486 15.7122 11.3722 15.7451 10.6725V10.5C15.7451 9.50544 15.35 8.55161 14.6468 7.84835C13.9435 7.14509 12.9897 6.75 11.9951 6.75Z" fill="#00566D"/>
</g>
<defs>
<clipPath id="clip0_443_1248">
<rect width="24" height="24" fill="white" transform="translate(-0.00488281)"/>
</clipPath>
</defs>
</svg>
