<svg width="20" height="13" viewBox="0 0 20 13" fill="none" xmlns="http://www.w3.org/2000/svg">
<path fill-rule="evenodd" clip-rule="evenodd" d="M18.8039 0.5H17.6373C16.9929 0.5 16.4706 1.00368 16.4706 1.625V11.375C16.4706 11.9963 16.9929 12.5 17.6373 12.5H18.8039C19.4482 12.5 19.9706 11.9963 19.9706 11.375V1.625C19.9706 1.00368 19.4482 0.5 18.8039 0.5ZM12.1471 3.12513H13.3137C13.9581 3.12513 14.4804 3.62881 14.4804 4.25013V11.3751C14.4804 11.9965 13.9581 12.5001 13.3137 12.5001H12.1471C11.5027 12.5001 10.9804 11.9965 10.9804 11.3751V4.25013C10.9804 3.62881 11.5027 3.12513 12.1471 3.12513ZM7.82353 5.74992H6.65686C6.01253 5.74992 5.4902 6.2536 5.4902 6.87492V11.3749C5.4902 11.9962 6.01253 12.4999 6.65686 12.4999H7.82353C8.46786 12.4999 8.9902 11.9962 8.9902 11.3749V6.87492C8.9902 6.2536 8.46786 5.74992 7.82353 5.74992ZM2.33333 7.99989H1.16667C0.522334 7.99989 0 8.50356 0 9.12489V11.3749C0 11.9962 0.522334 12.4999 1.16667 12.4999H2.33333C2.97767 12.4999 3.5 11.9962 3.5 11.3749V9.12489C3.5 8.50356 2.97767 7.99989 2.33333 7.99989Z" fill="black"/>
</svg>
