<svg width="24" height="24" viewBox="0 0 24 24" fill="none" xmlns="http://www.w3.org/2000/svg">
<path d="M9.93314 4.15227e-07C11.7676 -0.000529912 13.5664 0.506948 15.13 1.46618C16.6937 2.42541 17.9612 3.79892 18.792 5.43444C19.6228 7.06997 19.9845 8.90362 19.837 10.7321C19.6894 12.5606 19.0384 14.3126 17.9561 15.7937L24 21.8453L21.8453 24L15.7937 17.9561C14.0936 19.201 12.0403 19.8703 9.93314 19.8663C7.29871 19.8663 4.77218 18.8198 2.90935 16.9569C1.04652 15.0941 0 12.5676 0 9.93314C0 7.29871 1.04652 4.77218 2.90935 2.90935C4.77218 1.04652 7.29871 4.15227e-07 9.93314 4.15227e-07ZM9.93314 3.05635C9.03007 3.05635 8.13584 3.23423 7.30151 3.57982C6.46718 3.92541 5.70909 4.43195 5.07052 5.07052C4.43195 5.70909 3.92541 6.46718 3.57982 7.30151C3.23422 8.13584 3.05635 9.03007 3.05635 9.93314C3.05635 10.8362 3.23422 11.7304 3.57982 12.5648C3.92541 13.3991 4.43195 14.1572 5.07052 14.7958C5.70909 15.4343 6.46718 15.9409 7.30151 16.2865C8.13584 16.6321 9.03007 16.8099 9.93314 16.8099C11.757 16.8099 13.5061 16.0854 14.7958 14.7958C16.0854 13.5061 16.8099 11.757 16.8099 9.93314C16.8099 8.1093 16.0854 6.36017 14.7958 5.07052C13.5061 3.78087 11.757 3.05635 9.93314 3.05635Z" fill="#585858"/>
</svg>
