<svg width="26" height="24" viewBox="0 0 26 24" fill="none" xmlns="http://www.w3.org/2000/svg">
<path d="M6.82349 16.5V10.6822L9.82349 8.28219V16.5H6.82349Z" fill="#00566D" stroke="#00566D" stroke-width="7"/>
<path d="M18.8235 10.0658V16.5H16.8235V8.41812L18.8235 10.0658Z" fill="#00566D" stroke="#00566D" stroke-width="7"/>
<mask id="path-3-inside-1_443_1377" fill="white">
<path fill-rule="evenodd" clip-rule="evenodd" d="M0.647022 21.4783C1.30741 21.9197 11.9957 22.1991 13.4819 22.1912C16.3492 22.1752 20.112 22.0657 22.9577 21.4133C23.5451 21.2787 24.4028 21.0369 24.9446 20.7312C25.3039 20.5282 25.4122 20.5533 25.3757 20.1039C25.1476 19.926 24.4142 20.3594 24.0892 20.4609C19.8234 21.7977 11.1232 21.2 6.63616 21.0255L1.78075 20.7997C1.16598 20.7597 0.467953 20.4324 0.645882 21.4794L0.647022 21.4783Z"/>
</mask>
<path fill-rule="evenodd" clip-rule="evenodd" d="M0.647022 21.4783C1.30741 21.9197 11.9957 22.1991 13.4819 22.1912C16.3492 22.1752 20.112 22.0657 22.9577 21.4133C23.5451 21.2787 24.4028 21.0369 24.9446 20.7312C25.3039 20.5282 25.4122 20.5533 25.3757 20.1039C25.1476 19.926 24.4142 20.3594 24.0892 20.4609C19.8234 21.7977 11.1232 21.2 6.63616 21.0255L1.78075 20.7997C1.16598 20.7597 0.467953 20.4324 0.645882 21.4794L0.647022 21.4783Z" fill="#00566D"/>
<path d="M0.647022 21.4783L6.20396 13.1644L-0.62348 8.60101L-6.42749 14.4107L0.647022 21.4783ZM13.4819 22.1912L13.5356 32.191L13.5375 32.191L13.4819 22.1912ZM22.9577 21.4133L20.7243 11.6659L20.7231 11.6662L22.9577 21.4133ZM24.9446 20.7312L29.8585 29.4406L29.8642 29.4374L24.9446 20.7312ZM25.3757 20.1039L35.3429 19.2944L34.9875 14.9188L31.526 12.2189L25.3757 20.1039ZM24.0892 20.4609L21.1083 10.9155L21.0989 10.9185L24.0892 20.4609ZM6.63616 21.0255L6.17154 31.0147L6.20953 31.0165L6.24753 31.0179L6.63616 21.0255ZM1.78075 20.7997L1.13276 30.7786L1.2244 30.7846L1.31614 30.7889L1.78075 20.7997ZM0.645882 21.4794L-9.21278 23.1548L-5.96804 42.2488L7.72039 28.5471L0.645882 21.4794ZM-4.90992 29.7922C-3.15523 30.965 -1.37459 31.3009 -1.34649 31.3073C-0.83064 31.4253 -0.361934 31.4973 -0.0511275 31.5405C0.598714 31.631 1.30535 31.6964 1.93618 31.7461C3.23567 31.8485 4.82203 31.9306 6.33331 31.9944C9.3114 32.12 12.5473 32.1963 13.5356 32.191L13.4281 12.1913C13.4283 12.1913 13.4269 12.1913 13.4239 12.1913C13.4209 12.1913 13.4166 12.1913 13.411 12.1913C13.3996 12.1913 13.3842 12.1913 13.3644 12.1912C13.3244 12.191 13.2723 12.1906 13.2072 12.1899C13.0767 12.1885 12.9097 12.1861 12.7083 12.1825C12.3059 12.1753 11.7925 12.164 11.204 12.1486C10.0253 12.1178 8.58357 12.0715 7.17624 12.0121C5.74713 11.9518 4.44471 11.8818 3.50797 11.8079C3.02069 11.7695 2.77234 11.7407 2.70546 11.7314C2.65791 11.7248 2.82781 11.7456 3.11382 11.811C3.25586 11.8435 3.56277 11.9175 3.95619 12.0513C4.23197 12.145 5.15647 12.4643 6.20396 13.1644L-4.90992 29.7922ZM13.5375 32.191C16.3443 32.1754 21.1369 32.0901 25.1923 31.1604L20.7231 11.6662C19.0871 12.0412 16.3542 12.175 13.4262 12.1913L13.5375 32.191ZM25.1911 31.1607C25.8509 31.0095 27.9519 30.5164 29.8585 29.4406L20.0307 12.0218C20.3612 11.8354 20.6072 11.7311 20.7047 11.6912C20.8159 11.6457 20.8785 11.6257 20.8793 11.6255C20.8845 11.6238 20.8673 11.6294 20.8293 11.6397C20.7926 11.6496 20.7551 11.6588 20.7243 11.6659L25.1911 31.1607ZM29.8642 29.4374C29.779 29.4855 29.7166 29.5181 29.7257 29.5133C29.7299 29.5112 29.7317 29.5102 29.7452 29.5031C29.7553 29.4978 29.774 29.488 29.795 29.4769C29.8345 29.456 29.9122 29.4147 30.0055 29.3632C30.2124 29.2489 31.5307 28.5512 32.7569 27.1824C34.2583 25.5064 34.9703 23.6187 35.239 22.0025C35.4546 20.7051 35.371 19.6405 35.3429 19.2944L15.4085 20.9134C15.3987 20.792 15.3152 19.8928 15.5096 18.7234C15.7569 17.2352 16.4262 15.4382 17.8602 13.8375C19.019 12.544 20.2452 11.9062 20.3318 11.8583C20.4185 11.8104 20.5258 11.7544 20.4098 11.8155C20.3444 11.8499 20.2 11.9261 20.0249 12.0251L29.8642 29.4374ZM31.526 12.2189C29.6582 10.762 27.7194 10.2827 26.4313 10.1319C25.1654 9.98363 24.1289 10.101 23.5214 10.1996C22.35 10.3898 21.437 10.743 21.1248 10.8652C20.747 11.013 20.3713 11.1826 20.3553 11.1897C20.1041 11.3006 20.5435 11.0919 21.1083 10.9155L27.07 30.0063C27.5158 29.8671 27.8703 29.724 28.031 29.6579C28.212 29.5835 28.3707 29.5134 28.4352 29.4849C28.6552 29.3877 28.5381 29.441 28.4128 29.49C28.3531 29.5134 27.6865 29.7853 26.7269 29.9411C26.2254 30.0225 25.2861 30.1344 24.1053 29.9961C22.9022 29.8553 21.0362 29.4014 19.2254 27.9889L31.526 12.2189ZM21.0989 10.9185C21.1064 10.9161 20.9636 10.9596 20.6238 11.0173C20.2952 11.0732 19.8653 11.1284 19.327 11.1752C18.2374 11.27 16.9262 11.3118 15.4583 11.3099C12.4398 11.3061 9.53353 11.1306 7.02478 11.033L6.24753 31.0179C8.22579 31.0949 11.9132 31.3055 15.433 31.3099C18.6697 31.314 23.3197 31.1815 27.0795 30.0033L21.0989 10.9185ZM7.10077 11.0363L2.24536 10.8105L1.31614 30.7889L6.17154 31.0147L7.10077 11.0363ZM2.42873 10.8207C2.72444 10.8399 3.36539 10.9264 2.64464 10.83C2.53892 10.8159 0.920017 10.548 -0.972202 10.9118C-2.08019 11.1249 -3.5985 11.6035 -5.11174 12.7025C-6.69509 13.8524 -7.8281 15.3606 -8.51995 16.9639C-9.7314 19.7713 -9.35841 22.2978 -9.21278 23.1548L10.5045 19.8041C10.5612 20.1376 10.9547 22.3123 9.84333 24.8879C9.2015 26.3753 8.13839 27.7975 6.64109 28.8849C5.21389 29.9214 3.79775 30.361 2.80431 30.552C1.84463 30.7366 1.07879 30.7282 0.703032 30.7131C0.312245 30.6974 0.0287499 30.6583 -0.00654036 30.6535C-0.429063 30.597 0.529678 30.7395 1.13276 30.7786L2.42873 10.8207ZM7.72039 28.5471L7.72153 28.5459L-6.42749 14.4107L-6.42863 14.4118L7.72039 28.5471Z" fill="#00566D" mask="url(#path-3-inside-1_443_1377)"/>
<mask id="path-5-inside-2_443_1377" fill="white">
<path fill-rule="evenodd" clip-rule="evenodd" d="M5.75317 23.5861C6.30179 24.6605 7.51307 23.3557 8.05256 22.8961C8.25558 22.7227 8.55099 22.5265 8.6046 22.1992L5.95734 22.0806L6.39189 22.4216C7.02491 23.0067 5.93566 23.3192 5.75431 23.5861H5.75317Z"/>
</mask>
<path fill-rule="evenodd" clip-rule="evenodd" d="M5.75317 23.5861C6.30179 24.6605 7.51307 23.3557 8.05256 22.8961C8.25558 22.7227 8.55099 22.5265 8.6046 22.1992L5.95734 22.0806L6.39189 22.4216C7.02491 23.0067 5.93566 23.3192 5.75431 23.5861H5.75317Z" fill="#00566D"/>
<path d="M5.75317 23.5861V16.5861H-5.68089L-0.48112 26.7694L5.75317 23.5861ZM8.05256 22.8961L12.5923 28.2244L12.5982 28.2193L8.05256 22.8961ZM8.6046 22.1992L15.5126 23.3305L16.7853 15.5587L8.91795 15.2062L8.6046 22.1992ZM5.95734 22.0806L6.27068 15.0876L-15.5371 14.1104L1.63577 27.5873L5.95734 22.0806ZM6.39189 22.4216L11.1433 17.2812L10.9358 17.0893L10.7135 16.9149L6.39189 22.4216ZM5.75431 23.5861V30.5861H9.46097L11.5442 27.5203L5.75431 23.5861ZM-0.48112 26.7694C0.480926 28.6535 2.47251 30.6258 5.51381 30.9555C7.90132 31.2142 9.69965 30.2803 10.3646 29.9025C11.5714 29.2167 13.0578 27.8278 12.5923 28.2244L3.51281 17.5678C3.34862 17.7077 3.1806 17.8607 3.12764 17.9086C3.04073 17.9872 3.0055 18.0184 2.9801 18.0403C2.88823 18.1192 3.07463 17.9425 3.44802 17.7303C3.6741 17.6018 5.03302 16.8214 7.02226 17.037C8.14569 17.1587 9.2709 17.583 10.2381 18.3222C11.159 19.0261 11.6938 19.8276 11.9875 20.4028L-0.48112 26.7694ZM12.5982 28.2193C12.5612 28.251 12.5358 28.2714 12.5655 28.2471C12.5788 28.2362 12.6467 28.1809 12.7158 28.1229C12.8557 28.0056 13.1438 27.7595 13.4624 27.4237C14.1007 26.751 15.175 25.3916 15.5126 23.3305L1.69662 21.0679C1.98054 19.3342 2.88033 18.2365 3.30686 17.787C3.51951 17.5629 3.69236 17.4188 3.71804 17.3972C3.73012 17.3871 3.7412 17.3781 3.69928 17.4124C3.67377 17.4333 3.59473 17.4978 3.50688 17.5728L12.5982 28.2193ZM8.91795 15.2062L6.27068 15.0876L5.64399 29.0735L8.29125 29.1922L8.91795 15.2062ZM1.63577 27.5873L2.07033 27.9283L10.7135 16.9149L10.2789 16.5738L1.63577 27.5873ZM1.64047 27.562C0.906854 26.8839 -0.76801 24.8968 -0.349789 21.8584C-0.00349855 19.3425 1.5948 18.0035 1.82845 17.8037C2.17364 17.5084 2.55837 17.2764 2.22391 17.4922C2.16223 17.532 1.89272 17.7041 1.59783 17.9304C1.38021 18.0974 0.626511 18.6776 -0.035552 19.652L11.5442 27.5203C10.9275 28.4279 10.2475 28.9399 10.1217 29.0365C9.91857 29.1923 9.75897 29.2917 9.81502 29.2555C9.82043 29.252 9.82719 29.2477 9.84416 29.2368C9.85838 29.2277 9.88169 29.2127 9.90659 29.1966C9.95622 29.1646 10.0343 29.1139 10.1243 29.053C10.2914 28.94 10.5922 28.7303 10.9285 28.4427C11.378 28.0582 13.1413 26.5147 13.5194 23.7674C13.9695 20.4975 12.1934 18.2518 11.1433 17.2812L1.64047 27.562ZM5.75431 16.5861H5.75317V30.5861H5.75431V16.5861Z" fill="#00566D" mask="url(#path-5-inside-2_443_1377)"/>
<mask id="path-7-inside-3_443_1377" fill="white">
<path fill-rule="evenodd" clip-rule="evenodd" d="M2.48657 23.17C3.2268 23.7243 4.32061 22.4959 4.56697 22.0203L3.32261 21.9507C3.14354 22.3031 3.26558 22.4571 2.7375 22.862C2.50938 23.0376 2.54816 22.8917 2.48771 23.17H2.48657Z"/>
</mask>
<path fill-rule="evenodd" clip-rule="evenodd" d="M2.48657 23.17C3.2268 23.7243 4.32061 22.4959 4.56697 22.0203L3.32261 21.9507C3.14354 22.3031 3.26558 22.4571 2.7375 22.862C2.50938 23.0376 2.54816 22.8917 2.48771 23.17H2.48657Z" fill="#00566D"/>
<path d="M2.48657 23.17V16.17H-18.5394L-1.70928 28.7731L2.48657 23.17ZM4.56697 22.0203L10.7826 25.2399L15.7578 15.635L4.95775 15.0312L4.56697 22.0203ZM3.32261 21.9507L3.71338 14.9616L-0.848437 14.7065L-2.91805 18.7799L3.32261 21.9507ZM2.7375 22.862L-1.52178 17.3069L-1.52747 17.3113L-1.53316 17.3157L2.7375 22.862ZM2.48771 23.17V30.17H8.13045L9.3282 24.6558L2.48771 23.17ZM-1.70928 28.7731C0.373307 30.3326 2.73027 30.5229 4.5416 30.1387C6.12567 29.8028 7.27801 29.0563 7.90907 28.5835C9.10121 27.6904 10.1476 26.4659 10.7826 25.2399L-1.64866 18.8006C-1.3832 18.2882 -1.14113 18.0027 -1.07061 17.9205C-0.964118 17.7964 -0.780856 17.6007 -0.485129 17.3792C-0.250844 17.2036 0.47386 16.69 1.63695 16.4434C3.0273 16.1485 4.96995 16.2845 6.68243 17.5668L-1.70928 28.7731ZM4.95775 15.0312L3.71338 14.9616L2.93184 28.9398L4.1762 29.0093L4.95775 15.0312ZM-2.91805 18.7799C-3.21694 19.3681 -3.37827 19.8629 -3.45104 20.0955C-3.45871 20.1201 -3.46519 20.1411 -3.46926 20.1544C-3.47803 20.1829 -3.47151 20.1617 -3.47661 20.1783C-3.47905 20.1862 -3.47034 20.1577 -3.45702 20.1168C-3.42882 20.0303 -3.3637 19.8375 -3.25878 19.5961C-3.01688 19.0396 -2.69092 18.5146 -2.29784 18.054C-1.95182 17.6486 -1.64613 17.4023 -1.52178 17.3069L6.99677 28.4171C7.38517 28.1193 7.87363 27.7019 8.3509 27.1427C8.87521 26.5284 9.28086 25.8669 9.58065 25.1772C9.80362 24.6643 9.97408 24.0719 9.91084 24.2741C9.88206 24.3661 9.77263 24.7095 9.56327 25.1215L-2.91805 18.7799ZM-1.53316 17.3157C-1.26839 17.1118 -0.964948 16.9155 -0.632107 16.7415C-0.563956 16.7059 -0.340705 16.5955 -0.530964 16.6896C-0.573375 16.7106 -1.11899 16.9691 -1.71243 17.4246C-2.44636 17.988 -3.06387 18.6909 -3.52902 19.4965C-3.9237 20.1801 -4.11252 20.7765 -4.18648 21.0239C-4.26439 21.2845 -4.31247 21.5014 -4.3229 21.5478C-4.3317 21.5869 -4.33921 21.6215 -4.34305 21.6392C-4.35039 21.6731 -4.34766 21.6605 -4.35277 21.6841L9.3282 24.6558C9.34452 24.5806 9.33814 24.6098 9.33579 24.6203C9.3357 24.6207 9.29629 24.802 9.22681 25.0343C9.16128 25.2535 8.98065 25.8292 8.59535 26.4965C8.13958 27.2859 7.53263 27.9771 6.81189 28.5303C6.23164 28.9757 5.70183 29.2257 5.67928 29.2369C5.50888 29.3212 5.75604 29.1996 5.85357 29.1486C6.24519 28.9439 6.62933 28.7 7.00815 28.4083L-1.53316 17.3157ZM2.48771 16.17H2.48657V30.17H2.48771V16.17Z" fill="#00566D" mask="url(#path-7-inside-3_443_1377)"/>
<mask id="path-9-inside-4_443_1377" fill="white">
<path fill-rule="evenodd" clip-rule="evenodd" d="M13.0246 1.49686C15.8486 4.03006 20.728 8.03803 23.1141 10.6089C23.9786 11.5407 24.7759 11.1381 24.6744 10.4697C24.6048 10.0146 23.6228 9.3725 23.3262 9.02918C20.3664 6.34086 14.3545 0.919729 14.0283 0.595807C13.3976 -0.0280844 12.9105 -0.342882 12.1019 0.571856C8.7372 3.61376 5.38278 6.65224 2.01239 9.68387C1.74664 9.94392 1.35885 9.99525 1.32235 10.4731C1.29383 10.8484 1.60977 11.1404 1.96791 11.1563C2.36939 11.1735 3.2271 10.3363 3.52023 10.0089C6.40815 7.38106 9.33371 4.78056 12.2581 2.19261C12.6243 1.89606 12.5775 1.75006 13.0257 1.498L13.0246 1.49686Z"/>
</mask>
<path fill-rule="evenodd" clip-rule="evenodd" d="M13.0246 1.49686C15.8486 4.03006 20.728 8.03803 23.1141 10.6089C23.9786 11.5407 24.7759 11.1381 24.6744 10.4697C24.6048 10.0146 23.6228 9.3725 23.3262 9.02918C20.3664 6.34086 14.3545 0.919729 14.0283 0.595807C13.3976 -0.0280844 12.9105 -0.342882 12.1019 0.571856C8.7372 3.61376 5.38278 6.65224 2.01239 9.68387C1.74664 9.94392 1.35885 9.99525 1.32235 10.4731C1.29383 10.8484 1.60977 11.1404 1.96791 11.1563C2.36939 11.1735 3.2271 10.3363 3.52023 10.0089C6.40815 7.38106 9.33371 4.78056 12.2581 2.19261C12.6243 1.89606 12.5775 1.75006 13.0257 1.498L13.0246 1.49686Z" fill="#00566D"/>
<path d="M13.0246 1.49686L23.0406 -9.66913L2.418 12.1035L13.0246 1.49686ZM23.1141 10.6089L34.1103 0.406756L34.1084 0.404729L23.1141 10.6089ZM24.6744 10.4697L39.5043 8.2174L39.5032 8.21011L39.5021 8.20283L24.6744 10.4697ZM23.3262 9.02918L34.6777 -0.776094L34.0839 -1.46358L33.4114 -2.07437L23.3262 9.02918ZM14.0283 0.595807L24.5976 -10.0479L24.5873 -10.0582L24.5769 -10.0685L14.0283 0.595807ZM12.1019 0.571856L22.1613 11.6987L22.784 11.1358L23.34 10.5068L12.1019 0.571856ZM2.01239 9.68387L-8.01895 -1.46835L-8.25328 -1.25757L-8.47855 -1.03714L2.01239 9.68387ZM1.32235 10.4731L-13.6341 9.33089L-13.6345 9.33661L1.32235 10.4731ZM1.96791 11.1563L1.29979 26.1415L1.31454 26.1421L1.32929 26.1427L1.96791 11.1563ZM3.52023 10.0089L-6.5751 -1.08541L-7.14253 -0.569072L-7.65432 0.00246087L3.52023 10.0089ZM12.2581 2.19261L2.81703 -9.46353L2.56262 -9.25747L2.31745 -9.0405L12.2581 2.19261ZM13.0257 1.498L20.3781 14.5725L37.6185 4.87753L23.6323 -9.1086L13.0257 1.498ZM3.00858 12.6628C6.87775 16.1335 10.3369 18.8921 12.1197 20.813L34.1084 0.404729C31.1191 -2.81602 24.8195 -8.07341 23.0406 -9.66913L3.00858 12.6628ZM12.1179 20.811C14.4265 23.2993 19.9673 27.516 27.616 25.7583C36.4447 23.7295 40.5918 15.3776 39.5043 8.2174L9.84444 12.7221C8.85848 6.2302 12.6577 -1.58615 20.897 -3.47958C27.9563 -5.10181 32.6662 -1.14974 34.1103 0.406756L12.1179 20.811ZM39.5021 8.20283C39.1462 5.87482 38.3292 4.10868 37.742 3.04455C37.1344 1.94336 36.5023 1.10955 36.0645 0.576778C35.2235 -0.446449 34.4088 -1.18375 34.0814 -1.47638C33.788 -1.73863 33.2904 -2.1597 33.4141 -2.05374C33.4141 -2.05372 33.4193 -2.04928 33.4283 -2.04145C33.4373 -2.03363 33.4521 -2.0208 33.4713 -2.00386C33.5072 -1.97219 33.5744 -1.9125 33.6614 -1.83187C33.7864 -1.71609 34.194 -1.33615 34.6777 -0.776094L11.9747 18.8345C12.5326 19.4803 13.0358 19.9555 13.2715 20.1738C13.5398 20.4225 13.775 20.6251 13.8903 20.724C14.2837 21.0611 14.0916 20.8934 14.0894 20.8915C14.0533 20.8592 13.5157 20.3892 12.8877 19.6251C12.5563 19.2219 12.0147 18.5156 11.4753 17.5379C10.9563 16.5974 10.1852 14.9509 9.84666 12.7366L39.5021 8.20283ZM33.4114 -2.07437C31.9179 -3.43087 29.6551 -5.47626 27.7545 -7.19621C26.7975 -8.06216 25.9329 -8.84517 25.2895 -9.42982C24.9662 -9.72353 24.7109 -9.95611 24.5323 -10.1197C24.2077 -10.4171 24.367 -10.2769 24.5976 -10.0479L3.45898 11.2396C3.84998 11.6278 4.67271 12.3717 5.11554 12.7741C5.78353 13.381 6.66807 14.182 7.62488 15.0479C9.55173 16.7916 11.7747 18.8009 13.241 20.1327L33.4114 -2.07437ZM24.5769 -10.0685C24.2921 -10.3502 23.4084 -11.2257 22.1803 -12.0859C20.9139 -12.9728 18.5372 -14.3815 15.2168 -14.8475C7.33147 -15.9543 2.3762 -11.074 0.863718 -9.36312L23.34 10.5068C22.6362 11.303 18.3288 15.8833 11.0469 14.8612C8.02813 14.4375 5.94196 13.1674 4.96959 12.4863C4.45335 12.1247 4.07565 11.8046 3.86288 11.6165C3.64842 11.4269 3.5064 11.2865 3.47971 11.2601L24.5769 -10.0685ZM2.04242 -10.555C-1.33661 -7.50014 -4.66719 -4.48324 -8.01895 -1.46835L12.0437 20.8361C15.4327 17.7877 18.811 14.7277 22.1613 11.6987L2.04242 -10.555ZM-8.47855 -1.03714C-7.47097 -2.0231 -6.54831 -2.61472 -6.44296 -2.68398C-5.97519 -2.99153 -6.9421 -2.37819 -7.64331 -1.83132C-8.60686 -1.07985 -10.1527 0.297907 -11.4547 2.46823C-12.8097 4.7268 -13.4645 7.11029 -13.6341 9.33089L16.2788 11.6154C16.1275 13.5971 15.5348 15.7949 14.2711 17.9013C13.0604 19.9195 11.6349 21.1786 10.8061 21.8249C10.2396 22.2667 9.42178 22.7886 10.0381 22.3834C10.2921 22.2164 11.3629 21.5209 12.5033 20.4049L-8.47855 -1.03714ZM-13.6345 9.33661C-14.4173 19.6382 -5.95416 25.818 1.29979 26.1415L2.63604 -3.82877C9.1737 -3.53728 17.005 2.05854 16.2792 11.6097L-13.6345 9.33661ZM1.32929 26.1427C5.95421 26.3398 9.2687 24.3479 9.8061 24.0394C10.9649 23.3742 11.8433 22.6836 12.3199 22.2911C13.299 21.4849 14.1289 20.6473 14.6948 20.0154L-7.65432 0.00246087C-7.38162 -0.302071 -7.12705 -0.557402 -6.75052 -0.867461C-6.57514 -1.01189 -6.00482 -1.47597 -5.12887 -1.97878C-4.68131 -2.23569 -3.88966 -2.65657 -2.8248 -3.0299C-1.85059 -3.37144 0.0869802 -3.93742 2.60654 -3.83005L1.32929 26.1427ZM13.6156 21.1033C16.4233 18.5484 19.2848 16.0044 22.1988 13.4257L2.31745 -9.0405C-0.617422 -6.4433 -3.60696 -3.78627 -6.5751 -1.08541L13.6156 21.1033ZM21.6992 13.8487C22.0436 13.5698 22.3781 13.277 22.7026 12.9691C23.0289 12.6595 23.3114 12.3666 23.5526 12.102C23.7851 11.8472 23.9625 11.6365 24.0405 11.5435C24.0575 11.5232 24.122 11.4459 24.0918 11.4821C24.0883 11.4862 24.0504 11.5317 23.9978 11.593C23.8868 11.7225 23.6749 11.9646 23.3896 12.2554C23.0959 12.5548 22.7612 12.8686 22.3841 13.1835C21.6198 13.8219 20.913 14.2717 20.3781 14.5725L5.6734 -11.5765C4.91433 -11.1497 4.04531 -10.5871 3.15225 -9.84116C2.22731 -9.06859 1.581 -8.35155 1.22446 -7.93578C1.1318 -7.82772 0.946972 -7.60627 1.04695 -7.72557C1.07885 -7.76364 1.20803 -7.91767 1.38637 -8.11322C1.79756 -8.5641 2.27619 -9.02547 2.81703 -9.46353L21.6992 13.8487ZM23.6323 -9.1086L23.6312 -9.10974L2.418 12.1035L2.41914 12.1046L23.6323 -9.1086Z" fill="#00566D" mask="url(#path-9-inside-4_443_1377)"/>
<mask id="path-11-inside-5_443_1377" fill="white">
<path fill-rule="evenodd" clip-rule="evenodd" d="M19.8444 2.86206L21.3682 2.83468C21.3682 3.746 21.3727 4.63336 21.3682 5.52073C21.3625 6.56891 21.4195 7.15972 22.5316 6.74798C22.7494 5.95186 22.6354 4.22732 22.6354 3.23502C22.6365 1.26754 22.6479 1.56181 20.6679 1.56295C18.7825 1.56295 18.5339 1.19682 18.5259 3.14606C18.5236 3.74486 18.5225 4.29689 19.2672 4.20451C20.0086 4.11212 19.7132 3.45059 19.8455 2.86434L19.8444 2.86206Z"/>
</mask>
<path fill-rule="evenodd" clip-rule="evenodd" d="M19.8444 2.86206L21.3682 2.83468C21.3682 3.746 21.3727 4.63336 21.3682 5.52073C21.3625 6.56891 21.4195 7.15972 22.5316 6.74798C22.7494 5.95186 22.6354 4.22732 22.6354 3.23502C22.6365 1.26754 22.6479 1.56181 20.6679 1.56295C18.7825 1.56295 18.5339 1.19682 18.5259 3.14606C18.5236 3.74486 18.5225 4.29689 19.2672 4.20451C20.0086 4.11212 19.7132 3.45059 19.8455 2.86434L19.8444 2.86206Z" fill="#00566D"/>
<path d="M19.8444 2.86206L19.7186 -4.13682L8.62122 -3.93746L13.5827 5.99112L19.8444 2.86206ZM21.3682 2.83468H28.3682V-4.2922L21.2424 -4.16419L21.3682 2.83468ZM21.3682 5.52073L28.3681 5.55881L28.3681 5.55671L21.3682 5.52073ZM22.5316 6.74798L24.9621 13.3125L28.3343 12.0639L29.2833 8.59553L22.5316 6.74798ZM22.6354 3.23502L15.6354 3.23096V3.23502H22.6354ZM20.6679 1.56295V8.56295L20.6719 8.56295L20.6679 1.56295ZM18.5259 3.14606L11.5259 3.11739L11.5259 3.11939L18.5259 3.14606ZM19.2672 4.20451L20.1289 11.1513L20.1329 11.1508L19.2672 4.20451ZM19.8455 2.86434L26.6738 4.40535L27.2236 1.96925L26.1072 -0.264724L19.8455 2.86434ZM19.9701 9.86093L21.4939 9.83355L21.2424 -4.16419L19.7186 -4.13682L19.9701 9.86093ZM14.3682 2.83468C14.3682 3.79678 14.3727 4.61841 14.3683 5.48474L28.3681 5.55671C28.3728 4.64832 28.3682 3.69521 28.3682 2.83468H14.3682ZM14.3683 5.48264C14.3669 5.72866 14.3617 6.33807 14.4344 6.98921C14.4946 7.52903 14.6907 9.05169 15.7187 10.5832C17.0497 12.5659 19.1387 13.6679 21.2816 13.8517C22.9611 13.9958 24.32 13.5502 24.9621 13.3125L20.101 0.183494C20.1871 0.151613 21.1218 -0.2134 22.4781 -0.0970627C24.2977 0.0590169 26.1643 1.02498 27.3427 2.78043C28.2182 4.08471 28.3315 5.28886 28.348 5.43597C28.3768 5.69439 28.3666 5.83688 28.3681 5.55881L14.3683 5.48264ZM29.2833 8.59553C29.6792 7.14881 29.6662 5.59401 29.6651 5.05135C29.6643 4.63939 29.655 4.23561 29.6479 3.92797C29.6398 3.58162 29.6354 3.38277 29.6354 3.23502H15.6354C15.6354 3.58342 15.6451 3.97225 15.6517 4.25322C15.6591 4.57289 15.6647 4.83606 15.6652 5.07879C15.6656 5.32779 15.6601 5.46532 15.6563 5.5211C15.6547 5.54455 15.6562 5.50874 15.6676 5.4283C15.6776 5.35758 15.707 5.16631 15.7798 4.90043L29.2833 8.59553ZM29.6353 3.23908C29.6355 2.96714 29.6497 2.08682 29.5576 1.31451C29.4721 0.598074 29.0943 -2.18227 26.4256 -4.06209C24.3071 -5.55427 21.9928 -5.45139 21.8863 -5.45254C21.6026 -5.45561 21.3034 -5.44765 21.1614 -5.44441C20.9761 -5.44019 20.8271 -5.43715 20.6638 -5.43705L20.6719 8.56295C21.0036 8.56275 21.2874 8.55635 21.4805 8.55195C21.7168 8.54656 21.7415 8.54671 21.7352 8.54664C21.7165 8.54644 21.6345 8.54538 21.513 8.53688C21.3935 8.52852 21.1849 8.50958 20.9202 8.46191C20.412 8.37039 19.4147 8.12398 18.3635 7.38359C15.9393 5.676 15.6822 3.19092 15.6561 2.97262C15.6234 2.69846 15.6358 2.51917 15.6354 3.23096L29.6353 3.23908ZM20.6679 -5.43705C19.9882 -5.43705 20.6226 -5.44991 19.6327 -5.46317C19.4898 -5.46509 17.6062 -5.57629 15.7172 -4.61467C13.02 -3.24164 12.0776 -0.830881 11.7692 0.541409C11.526 1.62322 11.5277 2.68623 11.5259 3.11739L25.5258 3.17473C25.528 2.63127 25.5638 3.00908 25.4284 3.61132C25.3432 3.99059 25.1294 4.76004 24.5726 5.61346C23.9531 6.56308 23.0875 7.343 22.0685 7.86175C21.154 8.3273 20.3618 8.45635 19.9977 8.50004C19.7997 8.5238 19.6484 8.53105 19.5687 8.53369C19.5261 8.5351 19.4938 8.53549 19.4746 8.5356C19.4647 8.53566 19.4572 8.53565 19.4524 8.53562C19.4477 8.5356 19.4451 8.53557 19.4451 8.53557C19.4451 8.53557 19.4471 8.5356 19.4515 8.53568C19.4559 8.53577 19.4621 8.53591 19.4705 8.53613C19.488 8.53658 19.511 8.53726 19.5428 8.5383C19.6676 8.54236 19.6317 8.5415 19.803 8.54718C20.0214 8.55442 20.3195 8.56295 20.6679 8.56295V-5.43705ZM11.5259 3.11939C11.5256 3.20064 11.519 3.66422 11.5602 4.15837C11.5992 4.62589 11.7154 5.68145 12.2561 6.85788C12.8797 8.21469 14.045 9.66305 15.9113 10.5216C17.6015 11.2992 19.1746 11.2696 20.1289 11.1513L18.4056 -2.74225C18.9875 -2.81444 20.2814 -2.87835 21.7625 -2.19702C23.4196 -1.43467 24.4456 -0.144425 24.9767 1.01107C25.4249 1.98619 25.4953 2.79725 25.5118 2.99573C25.5306 3.22085 25.525 3.39087 25.5258 3.17272L11.5259 3.11939ZM20.1329 11.1508C21.3819 10.9951 23.2352 10.4569 24.7671 8.81703C26.2358 7.24475 26.6017 5.50768 26.7159 4.69906C26.7758 4.27526 26.7907 3.92315 26.7964 3.74297C26.7995 3.64603 26.8007 3.56203 26.8014 3.51453C26.8024 3.44433 26.8022 3.45259 26.8026 3.42775C26.8042 3.33023 26.8108 3.79835 26.6738 4.40535L13.0172 1.32333C12.8141 2.22345 12.8079 2.9941 12.8046 3.18839C12.7966 3.65506 12.793 3.1696 12.8536 2.74018C12.9325 2.18178 13.225 0.66405 14.5365 -0.739891C15.9111 -2.21145 17.5232 -2.63231 18.4016 -2.74177L20.1329 11.1508ZM26.1072 -0.264724L26.1061 -0.267006L13.5827 5.99112L13.5838 5.9934L26.1072 -0.264724Z" fill="#00566D" mask="url(#path-11-inside-5_443_1377)"/>
</svg>
