<svg width="25" height="24" viewBox="0 0 25 24" fill="none" xmlns="http://www.w3.org/2000/svg">
<rect x="3.59662" y="10.4753" width="0.625372" height="9.84961" rx="0.312686" fill="#00566D" stroke="#00566D" stroke-width="0.625372"/>
<rect x="20.6381" y="10.4753" width="0.625372" height="9.84961" rx="0.312686" fill="#00566D" stroke="#00566D" stroke-width="0.625372"/>
<mask id="path-3-inside-1_443_845" fill="white">
<path fill-rule="evenodd" clip-rule="evenodd" d="M0.0293464 21.4783C0.689736 21.9197 11.378 22.1991 12.8642 22.1912C15.7316 22.1752 19.4943 22.0657 22.34 21.4133C22.9274 21.2787 23.7851 21.0369 24.3269 20.7312C24.6862 20.5282 24.7945 20.5533 24.758 20.1039C24.5299 19.926 23.7965 20.3594 23.4715 20.4609C19.2057 21.7977 10.5055 21.2 6.01848 21.0255L1.16307 20.7997C0.548306 20.7597 -0.149723 20.4324 0.0282058 21.4794L0.0293464 21.4783Z"/>
</mask>
<path fill-rule="evenodd" clip-rule="evenodd" d="M0.0293464 21.4783C0.689736 21.9197 11.378 22.1991 12.8642 22.1912C15.7316 22.1752 19.4943 22.0657 22.34 21.4133C22.9274 21.2787 23.7851 21.0369 24.3269 20.7312C24.6862 20.5282 24.7945 20.5533 24.758 20.1039C24.5299 19.926 23.7965 20.3594 23.4715 20.4609C19.2057 21.7977 10.5055 21.2 6.01848 21.0255L1.16307 20.7997C0.548306 20.7597 -0.149723 20.4324 0.0282058 21.4794L0.0293464 21.4783Z" fill="#00566D"/>
<path d="M0.0293464 21.4783L3.9192 15.6586L-0.860005 12.4642L-4.92281 16.531L0.0293464 21.4783ZM12.8642 22.1912L12.9018 29.1911L12.9032 29.191L12.8642 22.1912ZM22.34 21.4133L20.7767 14.5901L20.7758 14.5903L22.34 21.4133ZM24.3269 20.7312L27.7667 26.8278L27.7707 26.8255L24.3269 20.7312ZM24.758 20.1039L31.7351 19.5372L31.4863 16.4744L29.0633 14.5844L24.758 20.1039ZM23.4715 20.4609L21.3849 13.7791L21.3783 13.7812L23.4715 20.4609ZM6.01848 21.0255L5.69325 28.0179L5.71984 28.0192L5.74644 28.0202L6.01848 21.0255ZM1.16307 20.7997L0.709483 27.7849L0.77363 27.7891L0.837844 27.7921L1.16307 20.7997ZM0.0282058 21.4794L-6.87286 22.6522L-4.60154 36.018L4.98036 26.4268L0.0282058 21.4794ZM-3.86051 27.298C-2.61985 28.1273 -1.34927 28.3704 -1.29512 28.3828C-0.899548 28.4733 -0.526634 28.5314 -0.255315 28.5692C0.307082 28.6474 0.944971 28.7073 1.55427 28.7554C2.79935 28.8535 4.34312 28.9338 5.84207 28.997C8.80885 29.1222 11.9871 29.196 12.9018 29.1911L12.8266 15.1913C12.2551 15.1943 9.34612 15.1324 6.43212 15.0095C4.99069 14.9487 3.64568 14.8768 2.65453 14.7987C2.14571 14.7586 1.82862 14.7243 1.6743 14.7028C1.58725 14.6907 1.66137 14.6975 1.82709 14.7354C1.90929 14.7542 2.10947 14.8021 2.37297 14.8917C2.55413 14.9532 3.19215 15.1726 3.9192 15.6586L-3.86051 27.298ZM12.9032 29.191C15.7281 29.1753 20.2118 29.0828 23.9043 28.2363L20.7758 14.5903C18.7769 15.0486 15.735 15.1751 12.8252 15.1913L12.9032 29.191ZM23.9034 28.2365C24.5415 28.0903 26.2695 27.6725 27.7667 26.8278L20.8872 14.6347C20.9888 14.5773 21.0687 14.5378 21.1192 14.5139C21.1707 14.4896 21.2061 14.4747 21.2221 14.4682C21.2386 14.4614 21.2435 14.4598 21.2355 14.4627C21.2279 14.4655 21.2122 14.471 21.1883 14.4787C21.1386 14.4949 21.0728 14.5145 20.9948 14.5356C20.9177 14.5565 20.8423 14.5751 20.7767 14.5901L23.9034 28.2365ZM27.7707 26.8255C27.7245 26.8516 27.6931 26.8679 27.7106 26.8587C27.7163 26.8557 27.7204 26.8535 27.7325 26.8472C27.7422 26.8421 27.7579 26.8339 27.7751 26.8247C27.8078 26.8074 27.8669 26.776 27.9367 26.7375C28.0996 26.6475 29.0363 26.1501 29.9047 25.1807C32.1318 22.6946 31.7533 19.7611 31.7351 19.5372L17.781 20.6706C17.7769 20.6193 17.7185 20.0146 17.8513 19.2153C18.0213 18.1927 18.4834 16.9484 19.477 15.8392C20.2781 14.9451 21.1226 14.5076 21.1652 14.484C21.2168 14.4555 21.2819 14.4215 21.1895 14.4702C21.1325 14.5002 21.0192 14.5601 20.8831 14.6369L27.7707 26.8255ZM29.0633 14.5844C27.7472 13.5579 26.3791 13.2186 25.4647 13.1115C24.5658 13.0062 23.8257 13.0892 23.3846 13.1608C22.5328 13.2991 21.8568 13.5586 21.6003 13.6589C21.298 13.7772 20.9962 13.9134 20.9496 13.934C20.7384 14.0272 21.0139 13.895 21.3849 13.7791L25.5581 27.1427C26.0916 26.9761 26.5807 26.7516 26.6055 26.7406C26.795 26.6569 26.7518 26.6768 26.7019 26.6963C26.698 26.6979 26.2683 26.8759 25.6284 26.9799C25.2932 27.0343 24.6503 27.1118 23.8365 27.0165C23.0071 26.9194 21.7118 26.6054 20.4528 25.6234L29.0633 14.5844ZM21.3783 13.7812C20.3843 14.0927 18.1287 14.3141 14.8368 14.3099C11.7431 14.306 8.71969 14.1253 6.29052 14.0308L5.74644 28.0202C7.80427 28.1002 11.3745 28.3056 14.8191 28.3099C18.0655 28.314 22.293 28.1659 25.5647 27.1406L21.3783 13.7812ZM6.34371 14.0331L1.4883 13.8072L0.837844 27.7921L5.69325 28.0179L6.34371 14.0331ZM1.61666 13.8144C1.77755 13.8248 2.17854 13.877 1.62929 13.8036C1.51055 13.7877 0.335519 13.5966 -1.0234 13.8579C-2.88722 14.2162 -5.22125 15.4599 -6.38313 18.1525C-7.24616 20.1525 -6.98814 21.9738 -6.87286 22.6522L6.92927 20.3067C6.95559 20.4616 7.23414 21.9312 6.47116 23.6993C6.02939 24.7231 5.2957 25.7057 4.26049 26.4575C3.27435 27.1738 2.29838 27.4756 1.62016 27.606C0.965568 27.7319 0.448519 27.7252 0.205824 27.7155C-0.0473891 27.7053 -0.224203 27.6803 -0.226539 27.68C-0.477571 27.6464 0.241216 27.7545 0.709483 27.7849L1.61666 13.8144ZM4.98036 26.4268L4.9815 26.4256L-4.92281 16.531L-4.92395 16.5321L4.98036 26.4268Z" fill="#00566D" mask="url(#path-3-inside-1_443_845)"/>
<mask id="path-5-inside-2_443_845" fill="white">
<path fill-rule="evenodd" clip-rule="evenodd" d="M4.1355 23.5861C4.68411 24.6605 5.8954 23.3557 6.43489 22.8961C6.63791 22.7227 6.93332 22.5265 6.98692 22.1992L4.33966 22.0806L4.77422 22.4216C5.40723 23.0067 4.31799 23.3192 4.13664 23.5861H4.1355Z"/>
</mask>
<path fill-rule="evenodd" clip-rule="evenodd" d="M4.1355 23.5861C4.68411 24.6605 5.8954 23.3557 6.43489 22.8961C6.63791 22.7227 6.93332 22.5265 6.98692 22.1992L4.33966 22.0806L4.77422 22.4216C5.40723 23.0067 4.31799 23.3192 4.13664 23.5861H4.1355Z" fill="#00566D"/>
<path d="M4.1355 23.5861V16.5861H-7.29856L-2.0988 26.7694L4.1355 23.5861ZM6.43489 22.8961L10.9746 28.2244L10.9806 28.2193L6.43489 22.8961ZM6.98692 22.1992L13.8949 23.3305L15.1676 15.5587L7.30027 15.2062L6.98692 22.1992ZM4.33966 22.0806L4.65301 15.0876L-17.1548 14.1104L0.0180945 27.5873L4.33966 22.0806ZM4.77422 22.4216L9.52564 17.2812L9.31811 17.0893L9.09578 16.9149L4.77422 22.4216ZM4.13664 23.5861V30.5861H7.84329L9.9265 27.5203L4.13664 23.5861ZM-2.0988 26.7694C-1.13675 28.6535 0.854833 30.6258 3.89613 30.9555C6.28364 31.2142 8.08197 30.2803 8.74688 29.9025C9.95376 29.2167 11.4401 27.8278 10.9746 28.2244L1.89514 17.5678C1.73094 17.7077 1.56292 17.8607 1.50996 17.9086C1.42306 17.9872 1.38783 18.0184 1.36242 18.0403C1.27055 18.1192 1.45696 17.9425 1.83035 17.7303C2.05642 17.6018 3.41535 16.8214 5.40458 17.037C6.52801 17.1587 7.65322 17.583 8.62042 18.3222C9.54134 19.0261 10.0761 19.8276 10.3698 20.4028L-2.0988 26.7694ZM10.9806 28.2193C10.9435 28.251 10.9181 28.2714 10.9478 28.2471C10.9611 28.2362 11.029 28.1809 11.0981 28.1229C11.238 28.0056 11.5261 27.7595 11.8447 27.4237C12.4831 26.751 13.5574 25.3916 13.8949 23.3305L0.0789404 21.0679C0.362866 19.3342 1.26266 18.2365 1.68919 17.787C1.90184 17.5629 2.07468 17.4188 2.10036 17.3972C2.11244 17.3871 2.12353 17.3781 2.0816 17.4124C2.05609 17.4333 1.97705 17.4978 1.88921 17.5728L10.9806 28.2193ZM7.30027 15.2062L4.65301 15.0876L4.02631 29.0735L6.67358 29.1922L7.30027 15.2062ZM0.0180945 27.5873L0.452652 27.9283L9.09578 16.9149L8.66123 16.5738L0.0180945 27.5873ZM0.0227947 27.562C-0.710822 26.8839 -2.38569 24.8968 -1.96746 21.8584C-1.62117 19.3425 -0.0228782 18.0035 0.210779 17.8037C0.555962 17.5084 0.940695 17.2764 0.606231 17.4922C0.544551 17.532 0.275044 17.7041 -0.0198498 17.9304C-0.237463 18.0974 -0.991165 18.6776 -1.65323 19.652L9.9265 27.5203C9.30978 28.4279 8.62979 28.9399 8.50398 29.0365C8.30089 29.1923 8.14129 29.2917 8.19734 29.2555C8.20276 29.252 8.20951 29.2477 8.22648 29.2368C8.2407 29.2277 8.26401 29.2127 8.28892 29.1966C8.33855 29.1646 8.41661 29.1139 8.50658 29.053C8.6737 28.94 8.97457 28.7303 9.31085 28.4427C9.76036 28.0582 11.5236 26.5147 11.9018 23.7674C12.3519 20.4975 10.5758 18.2518 9.52564 17.2812L0.0227947 27.562ZM4.13664 16.5861H4.1355V30.5861H4.13664V16.5861Z" fill="#00566D" mask="url(#path-5-inside-2_443_845)"/>
<mask id="path-7-inside-3_443_845" fill="white">
<path fill-rule="evenodd" clip-rule="evenodd" d="M0.868896 23.17C1.60913 23.7243 2.70293 22.4959 2.9493 22.0203L1.70493 21.9507C1.52586 22.3031 1.64791 22.4571 1.11982 22.862C0.891708 23.0376 0.930487 22.8917 0.870037 23.17H0.868896Z"/>
</mask>
<path fill-rule="evenodd" clip-rule="evenodd" d="M0.868896 23.17C1.60913 23.7243 2.70293 22.4959 2.9493 22.0203L1.70493 21.9507C1.52586 22.3031 1.64791 22.4571 1.11982 22.862C0.891708 23.0376 0.930487 22.8917 0.870037 23.17H0.868896Z" fill="#00566D"/>
<path d="M0.868896 23.17V16.17H-20.157L-3.32696 28.7731L0.868896 23.17ZM2.9493 22.0203L9.16493 25.2399L14.1401 15.635L3.34007 15.0312L2.9493 22.0203ZM1.70493 21.9507L2.09571 14.9616L-2.46611 14.7065L-4.53573 18.7799L1.70493 21.9507ZM1.11982 22.862L-3.13945 17.3069L-3.14515 17.3113L-3.15083 17.3157L1.11982 22.862ZM0.870037 23.17V30.17H6.51278L7.71052 24.6558L0.870037 23.17ZM-3.32696 28.7731C-1.24437 30.3326 1.1126 30.5229 2.92393 30.1387C4.50799 29.8028 5.66034 29.0563 6.2914 28.5835C7.48354 27.6904 8.52988 26.4659 9.16493 25.2399L-3.26634 18.8006C-3.00088 18.2882 -2.7588 18.0027 -2.68828 17.9205C-2.58179 17.7964 -2.39853 17.6007 -2.10281 17.3792C-1.86852 17.2036 -1.14382 16.69 0.0192701 16.4434C1.40962 16.1485 3.35228 16.2845 5.06475 17.5668L-3.32696 28.7731ZM3.34007 15.0312L2.09571 14.9616L1.31416 28.9398L2.55852 29.0093L3.34007 15.0312ZM-4.53573 18.7799C-4.83462 19.3681 -4.99595 19.8629 -5.06871 20.0955C-5.07639 20.1201 -5.08287 20.1411 -5.08694 20.1544C-5.09571 20.1829 -5.08918 20.1617 -5.09428 20.1783C-5.09673 20.1862 -5.08802 20.1577 -5.0747 20.1168C-5.04649 20.0303 -4.98138 19.8375 -4.87645 19.5961C-4.63455 19.0396 -4.3086 18.5146 -3.91552 18.054C-3.56949 17.6486 -3.2638 17.4023 -3.13945 17.3069L5.3791 28.4171C5.76749 28.1193 6.25596 27.7019 6.73322 27.1427C7.25753 26.5284 7.66319 25.8669 7.96297 25.1772C8.18594 24.6643 8.35641 24.0719 8.29317 24.2741C8.26439 24.3661 8.15495 24.7095 7.9456 25.1215L-4.53573 18.7799ZM-3.15083 17.3157C-2.88607 17.1118 -2.58262 16.9155 -2.24978 16.7415C-2.18163 16.7059 -1.95838 16.5955 -2.14864 16.6896C-2.19105 16.7106 -2.73666 16.9691 -3.3301 17.4246C-4.06403 17.988 -4.68155 18.6909 -5.1467 19.4965C-5.54137 20.1801 -5.7302 20.7765 -5.80416 21.0239C-5.88206 21.2845 -5.93014 21.5014 -5.94058 21.5478C-5.94937 21.5869 -5.95688 21.6215 -5.96073 21.6392C-5.96807 21.6731 -5.96533 21.6605 -5.97045 21.6841L7.71052 24.6558C7.72685 24.5806 7.72046 24.6098 7.71812 24.6203C7.71802 24.6207 7.67861 24.802 7.60914 25.0343C7.5436 25.2535 7.36297 25.8292 6.97767 26.4965C6.52191 27.2859 5.91496 27.9771 5.19421 28.5303C4.61396 28.9757 4.08416 29.2257 4.0616 29.2369C3.8912 29.3212 4.13836 29.1996 4.2359 29.1486C4.62752 28.9439 5.01165 28.7 5.39048 28.4083L-3.15083 17.3157ZM0.870037 16.17H0.868896V30.17H0.870037V16.17Z" fill="#00566D" mask="url(#path-7-inside-3_443_845)"/>
<mask id="path-9-inside-4_443_845" fill="white">
<path fill-rule="evenodd" clip-rule="evenodd" d="M12.4069 1.49686C15.231 4.03006 20.1103 8.03803 22.4964 10.6089C23.361 11.5407 24.1582 11.1381 24.0567 10.4697C23.9871 10.0146 23.0051 9.3725 22.7085 9.02918C19.7488 6.34086 13.7368 0.919729 13.4106 0.595807C12.7799 -0.0280844 12.2929 -0.342882 11.4842 0.571856C8.11952 3.61376 4.7651 6.65224 1.39472 9.68387C1.12897 9.94392 0.741171 9.99525 0.704673 10.4731C0.676159 10.8484 0.992097 11.1404 1.35024 11.1563C1.75172 11.1735 2.60943 10.3363 2.90255 10.0089C5.79047 7.38106 8.71604 4.78056 11.6405 2.19261C12.0066 1.89606 11.9598 1.75006 12.4081 1.498L12.4069 1.49686Z"/>
</mask>
<path fill-rule="evenodd" clip-rule="evenodd" d="M12.4069 1.49686C15.231 4.03006 20.1103 8.03803 22.4964 10.6089C23.361 11.5407 24.1582 11.1381 24.0567 10.4697C23.9871 10.0146 23.0051 9.3725 22.7085 9.02918C19.7488 6.34086 13.7368 0.919729 13.4106 0.595807C12.7799 -0.0280844 12.2929 -0.342882 11.4842 0.571856C8.11952 3.61376 4.7651 6.65224 1.39472 9.68387C1.12897 9.94392 0.741171 9.99525 0.704673 10.4731C0.676159 10.8484 0.992097 11.1404 1.35024 11.1563C1.75172 11.1735 2.60943 10.3363 2.90255 10.0089C5.79047 7.38106 8.71604 4.78056 11.6405 2.19261C12.0066 1.89606 11.9598 1.75006 12.4081 1.498L12.4069 1.49686Z" fill="#00566D"/>
<path d="M12.4069 1.49686L17.0811 -3.71394L7.45764 6.44708L12.4069 1.49686ZM22.4964 10.6089L27.628 5.84789L27.6271 5.84694L22.4964 10.6089ZM24.0567 10.4697L30.9773 9.41864L30.9763 9.41184L24.0567 10.4697ZM22.7085 9.02918L28.0059 4.45339L27.7288 4.13256L27.415 3.84753L22.7085 9.02918ZM13.4106 0.595807L18.343 -4.37129L18.3333 -4.38086L13.4106 0.595807ZM11.4842 0.571856L16.1786 5.7644L16.4692 5.50168L16.7287 5.20818L11.4842 0.571856ZM1.39472 9.68387L-3.28658 4.4795L-3.39593 4.57786L-3.50106 4.68073L1.39472 9.68387ZM0.704673 10.4731L-6.275 9.94009L-6.2752 9.94276L0.704673 10.4731ZM1.35024 11.1563L1.03844 18.1494L1.05221 18.15L1.35024 11.1563ZM2.90255 10.0089L-1.8086 4.83158L-2.0734 5.07253L-2.31224 5.33925L2.90255 10.0089ZM11.6405 2.19261L7.23461 -3.24692L7.11589 -3.15076L7.00147 -3.04951L11.6405 2.19261ZM12.4081 1.498L15.8392 7.59944L23.8855 3.07467L17.3573 -3.45222L12.4081 1.498ZM7.73278 6.70765C11.0446 9.67835 15.2611 13.1033 17.3657 15.3708L27.6271 5.84694C24.9595 2.97281 19.4174 -1.61822 17.0811 -3.71394L7.73278 6.70765ZM17.3648 15.3699C18.6727 16.7796 21.48 18.8179 25.2066 17.9616C29.4838 16.9786 31.5119 12.9383 30.9773 9.41864L17.1361 11.5208C16.9395 10.2267 17.1294 8.63877 18.0582 7.16757C19.0044 5.66895 20.4801 4.68281 22.0711 4.3172C25.2082 3.59628 27.1846 5.37002 27.628 5.84789L17.3648 15.3699ZM30.9763 9.41184C30.8056 8.2951 30.4121 7.439 30.1199 6.90945C29.8181 6.36261 29.499 5.9395 29.2663 5.65632C28.8171 5.10972 28.363 4.69436 28.1325 4.48838C27.9179 4.29657 27.6043 4.03251 27.5901 4.02031C27.4015 3.85867 27.6836 4.08028 28.0059 4.45339L17.4112 13.605C17.6913 13.9293 17.9516 14.1764 18.0911 14.3057C18.2459 14.449 18.3892 14.573 18.479 14.6499C18.7345 14.8689 18.7263 14.8582 18.8029 14.9267C18.8638 14.9811 18.6868 14.833 18.4505 14.5455C18.3242 14.3919 18.0956 14.0963 17.8621 13.673C17.638 13.2671 17.2904 12.5306 17.1371 11.5276L30.9763 9.41184ZM27.415 3.84753C25.9287 2.4976 23.6765 0.46183 21.7689 -1.26445C20.812 -2.13037 19.9421 -2.91819 19.2921 -3.50878C18.537 -4.19484 18.2801 -4.4337 18.343 -4.37128L8.47827 5.56289C8.95141 6.03272 15.222 11.6857 18.0021 14.2108L27.415 3.84753ZM18.3333 -4.38086C18.2408 -4.47234 16.4139 -6.5144 13.4871 -6.9252C9.64641 -7.46428 7.1612 -5.10681 6.23973 -4.06447L16.7287 5.20818C16.6159 5.33578 14.7785 7.39329 11.5412 6.9389C10.2129 6.75246 9.3168 6.19666 8.94142 5.93374C8.58387 5.6833 8.3896 5.4752 8.48795 5.57248L18.3333 -4.38086ZM6.78979 -4.62069C3.41841 -1.57273 0.0751163 1.45568 -3.28658 4.4795L6.07601 14.8882C9.45509 11.8488 12.8206 8.80024 16.1786 5.7644L6.78979 -4.62069ZM-3.50106 4.68073C-3.06628 4.25529 -2.67521 4.00692 -2.66567 4.00064C-2.487 3.88317 -2.97798 4.19379 -3.34113 4.47702C-3.82672 4.85572 -4.58024 5.53032 -5.21218 6.58372C-5.86882 7.67829 -6.19099 8.84009 -6.275 9.94009L7.68435 11.0062C7.61859 11.8673 7.35858 12.8434 6.79322 13.7858C6.25256 14.6871 5.61944 15.243 5.26858 15.5166C5.10064 15.6476 4.96964 15.7346 4.93866 15.7552C4.92201 15.7662 4.91197 15.7727 4.93032 15.7608C4.93961 15.7547 4.98232 15.7272 5.02551 15.6988C5.18364 15.5948 5.72284 15.2425 6.29049 14.687L-3.50106 4.68073ZM-6.2752 9.94276C-6.65572 14.9503 -2.53774 17.99 1.03844 18.1494L1.66203 4.16329C4.52194 4.29081 8.00804 6.74647 7.68455 11.0035L-6.2752 9.94276ZM1.05221 18.15C3.26404 18.2443 4.87954 17.2885 5.20577 17.1012C5.822 16.7475 6.31403 16.3648 6.6168 16.1155C7.23435 15.6069 7.77512 15.0608 8.11734 14.6786L-2.31224 5.33925C-2.26314 5.28442 -2.29779 5.32054 -2.28274 5.30815C-2.28123 5.30691 -2.09723 5.15074 -1.76389 4.9594C-1.59275 4.86116 -1.25936 4.68213 -0.795723 4.51958C-0.374401 4.37187 0.499233 4.11373 1.64826 4.16269L1.05221 18.15ZM7.6137 15.1863C10.4642 12.5925 13.3599 10.0184 16.2794 7.43472L7.00147 -3.04951C4.07217 -0.457243 1.11675 2.16964 -1.8086 4.83158L7.6137 15.1863ZM16.0463 7.63214C16.2314 7.48221 16.4085 7.32704 16.5784 7.16582C16.7492 7.00379 16.8969 6.85057 17.0239 6.71131C17.1468 6.57655 17.2425 6.46314 17.2912 6.40509C17.3033 6.39067 17.3139 6.37792 17.3205 6.36997C17.329 6.35983 17.3304 6.35814 17.3332 6.35477C17.3376 6.34956 17.3258 6.36375 17.3072 6.38534C17.2675 6.43174 17.1809 6.53092 17.0614 6.65271C16.938 6.77852 16.7967 6.91096 16.6379 7.04359C16.4808 7.17482 16.3293 7.28729 16.1889 7.38245C16.0508 7.47603 15.9312 7.54769 15.8392 7.59944L8.97697 -4.60344C8.56297 -4.37064 8.11416 -4.07804 7.66307 -3.70125C7.19711 -3.31205 6.8701 -2.95015 6.67968 -2.7281C6.62443 -2.66366 6.5265 -2.54612 6.56088 -2.58715C6.5635 -2.59027 6.6109 -2.64705 6.6797 -2.72248C6.84273 -2.90125 7.03103 -3.08203 7.23461 -3.24692L16.0463 7.63214ZM17.3573 -3.45222L17.3562 -3.45336L7.45764 6.44708L7.45879 6.44822L17.3573 -3.45222Z" fill="#00566D" mask="url(#path-9-inside-4_443_845)"/>
<mask id="path-11-inside-5_443_845" fill="white">
<path fill-rule="evenodd" clip-rule="evenodd" d="M18.9913 2.86206L20.5152 2.83468C20.5152 3.746 20.5197 4.63336 20.5152 5.52073C20.5094 6.56891 20.5665 7.15972 21.6785 6.74798C21.8964 5.95186 21.7823 4.22732 21.7823 3.23502C21.7835 1.26754 21.7949 1.56181 19.8148 1.56295C17.9295 1.56295 17.6808 1.19682 17.6728 3.14606C17.6706 3.74486 17.6694 4.29689 18.4142 4.20451C19.1556 4.11212 18.8602 3.45059 18.9925 2.86434L18.9913 2.86206Z"/>
</mask>
<path fill-rule="evenodd" clip-rule="evenodd" d="M18.9913 2.86206L20.5152 2.83468C20.5152 3.746 20.5197 4.63336 20.5152 5.52073C20.5094 6.56891 20.5665 7.15972 21.6785 6.74798C21.8964 5.95186 21.7823 4.22732 21.7823 3.23502C21.7835 1.26754 21.7949 1.56181 19.8148 1.56295C17.9295 1.56295 17.6808 1.19682 17.6728 3.14606C17.6706 3.74486 17.6694 4.29689 18.4142 4.20451C19.1556 4.11212 18.8602 3.45059 18.9925 2.86434L18.9913 2.86206Z" fill="#00566D"/>
<path d="M18.9913 2.86206L18.8656 -4.13682L7.76819 -3.93746L12.7296 5.99112L18.9913 2.86206ZM20.5152 2.83468H27.5152V-4.2922L20.3894 -4.16419L20.5152 2.83468ZM20.5152 5.52073L27.515 5.55881L27.5151 5.55671L20.5152 5.52073ZM21.6785 6.74798L24.1091 13.3125L27.4812 12.0639L28.4303 8.59553L21.6785 6.74798ZM21.7823 3.23502L14.7823 3.23096V3.23502H21.7823ZM19.8148 1.56295V8.56295L19.8189 8.56295L19.8148 1.56295ZM17.6728 3.14606L10.6729 3.11739L10.6729 3.11939L17.6728 3.14606ZM18.4142 4.20451L19.2759 11.1513L19.2798 11.1508L18.4142 4.20451ZM18.9925 2.86434L25.8208 4.40535L26.3705 1.96925L25.2542 -0.264724L18.9925 2.86434ZM19.1171 9.86093L20.6409 9.83355L20.3894 -4.16419L18.8656 -4.13682L19.1171 9.86093ZM13.5152 2.83468C13.5152 3.79678 13.5197 4.61841 13.5152 5.48474L27.5151 5.55671C27.5197 4.64832 27.5152 3.69521 27.5152 2.83468H13.5152ZM13.5153 5.48264C13.5139 5.72866 13.5087 6.33807 13.5814 6.98921C13.6416 7.52903 13.8376 9.05169 14.8657 10.5832C16.1966 12.5659 18.2857 13.6679 20.4286 13.8517C22.1081 13.9958 23.4669 13.5502 24.1091 13.3125L19.248 0.183494C19.3341 0.151613 20.2688 -0.2134 21.625 -0.0970627C23.4446 0.0590169 25.3113 1.02498 26.4897 2.78043C27.3652 4.08471 27.4785 5.28886 27.4949 5.43597C27.5238 5.69439 27.5135 5.83688 27.515 5.55881L13.5153 5.48264ZM28.4303 8.59553C28.8262 7.14881 28.8132 5.59401 28.8121 5.05135C28.8113 4.63939 28.802 4.23561 28.7949 3.92797C28.7868 3.58162 28.7823 3.38277 28.7823 3.23502H14.7823C14.7823 3.58342 14.7921 3.97225 14.7986 4.25322C14.8061 4.57289 14.8117 4.83606 14.8121 5.07879C14.8126 5.32779 14.8071 5.46532 14.8032 5.5211C14.8016 5.54455 14.8032 5.50874 14.8146 5.4283C14.8246 5.35758 14.854 5.16631 14.9267 4.90043L28.4303 8.59553ZM28.7823 3.23908C28.7825 2.96714 28.7967 2.08682 28.7046 1.31451C28.6191 0.598074 28.2413 -2.18227 25.5725 -4.06209C23.4541 -5.55427 21.1398 -5.45139 21.0333 -5.45254C20.7496 -5.45561 20.4504 -5.44765 20.3084 -5.44441C20.1231 -5.44019 19.9741 -5.43715 19.8108 -5.43705L19.8189 8.56295C20.1506 8.56275 20.4344 8.55635 20.6275 8.55195C20.8638 8.54656 20.8885 8.54671 20.8822 8.54664C20.8635 8.54644 20.7814 8.54538 20.66 8.53688C20.5405 8.52852 20.3319 8.50958 20.0672 8.46191C19.5589 8.37039 18.5616 8.12398 17.5105 7.38359C15.0862 5.676 14.8291 3.19092 14.8031 2.97262C14.7704 2.69846 14.7827 2.51917 14.7823 3.23096L28.7823 3.23908ZM19.8148 -5.43705C19.1352 -5.43705 19.7696 -5.44991 18.7797 -5.46317C18.6368 -5.46509 16.7532 -5.57629 14.8642 -4.61467C12.167 -3.24164 11.2246 -0.830881 10.9161 0.541409C10.673 1.62322 10.6747 2.68623 10.6729 3.11739L24.6728 3.17473C24.675 2.63127 24.7108 3.00908 24.5754 3.61132C24.4902 3.99059 24.2764 4.76004 23.7196 5.61346C23.1 6.56308 22.2345 7.343 21.2155 7.86175C20.301 8.3273 19.5088 8.45635 19.1446 8.50004C18.9466 8.5238 18.7954 8.53105 18.7156 8.53369C18.673 8.5351 18.6408 8.53549 18.6215 8.5356C18.6116 8.53566 18.6041 8.53565 18.5994 8.53562C18.5946 8.5356 18.5921 8.53557 18.5921 8.53557C18.5921 8.53557 18.5941 8.5356 18.5985 8.53568C18.6029 8.53577 18.6091 8.53591 18.6175 8.53613C18.635 8.53658 18.6579 8.53726 18.6898 8.5383C18.8145 8.54236 18.7786 8.5415 18.95 8.54718C19.1684 8.55442 19.4665 8.56295 19.8148 8.56295V-5.43705ZM10.6729 3.11939C10.6726 3.20064 10.666 3.66422 10.7072 4.15837C10.7461 4.62589 10.8623 5.68145 11.4031 6.85788C12.0267 8.21469 13.192 9.66305 15.0583 10.5216C16.7485 11.2992 18.3216 11.2696 19.2759 11.1513L17.5525 -2.74225C18.1344 -2.81444 19.4284 -2.87835 20.9094 -2.19702C22.5665 -1.43467 23.5926 -0.144425 24.1237 1.01107C24.5719 1.98619 24.6423 2.79725 24.6588 2.99573C24.6776 3.22085 24.672 3.39087 24.6728 3.17272L10.6729 3.11939ZM19.2798 11.1508C20.5289 10.9951 22.3821 10.4569 23.914 8.81703C25.3828 7.24475 25.7486 5.50768 25.8629 4.69906C25.9228 4.27526 25.9377 3.92315 25.9434 3.74297C25.9464 3.64603 25.9477 3.56203 25.9484 3.51453C25.9494 3.44433 25.9491 3.45259 25.9495 3.42775C25.9512 3.33023 25.9577 3.79835 25.8208 4.40535L12.1642 1.32333C11.9611 2.22345 11.9549 2.9941 11.9516 3.18839C11.9436 3.65506 11.9399 3.1696 12.0006 2.74018C12.0795 2.18178 12.3719 0.66405 13.6834 -0.739891C15.0581 -2.21145 16.6702 -2.63231 17.5486 -2.74177L19.2798 11.1508ZM25.2542 -0.264724L25.2531 -0.267006L12.7296 5.99112L12.7308 5.9934L25.2542 -0.264724Z" fill="#00566D" mask="url(#path-11-inside-5_443_845)"/>
</svg>
