<svg width="15" height="10" viewBox="0 0 15 10" fill="none" xmlns="http://www.w3.org/2000/svg">
<path fill-rule="evenodd" clip-rule="evenodd" d="M14.7237 1.74297C14.9711 1.43467 14.9218 0.984152 14.6135 0.736701C14.3052 0.489249 13.8547 0.538572 13.6072 0.846866L7.92249 7.92937L7.48716 7.49404C7.20763 7.21451 6.75442 7.21451 6.47488 7.49404C6.19535 7.77357 6.19535 8.22678 6.47488 8.50632L7.47478 9.50623C7.61861 9.65005 7.81683 9.7259 8.01993 9.71481C8.22303 9.70373 8.41182 9.60676 8.53914 9.44814L14.7237 1.74297ZM10.6375 1.74297C10.8849 1.43468 10.8356 0.984158 10.5273 0.736706C10.219 0.489255 9.76848 0.538578 9.52103 0.846872L3.83627 7.92939L1.90088 5.99406C1.62134 5.71454 1.16813 5.71454 0.888596 5.99408C0.609068 6.27362 0.609076 6.72683 0.888613 7.00636L3.38858 9.50624C3.53241 9.65006 3.73063 9.72591 3.93372 9.71482C4.13682 9.70373 4.32561 9.60677 4.45293 9.44814L10.6375 1.74297Z" fill="#007BFC"/>
</svg>
