<svg width="20" height="21" viewBox="0 0 20 21" fill="none" xmlns="http://www.w3.org/2000/svg">
<path fill-rule="evenodd" clip-rule="evenodd" d="M10.9001 1.5001C10.9001 1.00304 10.4972 0.600098 10.0001 0.600098C9.50304 0.600098 9.1001 1.00304 9.1001 1.5001V9.6001H1.0001C0.50304 9.6001 0.100098 10.003 0.100098 10.5001C0.100098 10.9972 0.50304 11.4001 1.0001 11.4001H9.1001V19.5001C9.1001 19.9972 9.50304 20.4001 10.0001 20.4001C10.4972 20.4001 10.9001 19.9972 10.9001 19.5001V11.4001H19.0001C19.4972 11.4001 19.9001 10.9972 19.9001 10.5001C19.9001 10.003 19.4972 9.6001 19.0001 9.6001H10.9001V1.5001Z" fill="#1D1D1F"/>
</svg>
