<svg width="22" height="20" viewBox="0 0 22 20" fill="none" xmlns="http://www.w3.org/2000/svg">
<path fill-rule="evenodd" clip-rule="evenodd" d="M9.15292 0C8.48994 0 7.85412 0.263366 7.38533 0.732159L6.68127 1.43622C6.51254 1.60495 6.28368 1.69975 6.04505 1.69975H5.04937C2.26068 1.69975 0 3.96043 0 6.74911V13.973C0 16.7617 2.26067 19.0224 5.04936 19.0224H16.9476C19.7363 19.0224 21.997 16.7617 21.997 13.973V6.74911C21.997 3.96043 19.7363 1.69975 16.9476 1.69975H15.9519C15.7133 1.69975 15.4844 1.60495 15.3157 1.43622L14.6116 0.732159C14.1428 0.263366 13.507 0 12.844 0H9.15292ZM8.5167 1.86353C8.68544 1.69479 8.91429 1.6 9.15292 1.6H12.844C13.0827 1.6 13.3115 1.69479 13.4803 1.86353L14.1843 2.56759C14.6531 3.03638 15.2889 3.29975 15.9519 3.29975H16.9476C18.8526 3.29975 20.397 4.84408 20.397 6.74911V13.973C20.397 15.8781 18.8526 17.4224 16.9476 17.4224H5.04936C3.14433 17.4224 1.6 15.8781 1.6 13.973V6.74911C1.6 4.84408 3.14433 3.29975 5.04937 3.29975H6.04505C6.70803 3.29975 7.34385 3.03638 7.81264 2.56759L8.5167 1.86353ZM7.54898 10.1486C7.54898 8.24353 9.09331 6.69919 10.9983 6.69919C12.9034 6.69919 14.4477 8.24353 14.4477 10.1486C14.4477 12.0536 12.9034 13.5979 10.9983 13.5979C9.09331 13.5979 7.54898 12.0536 7.54898 10.1486ZM10.9983 5.09919C8.20965 5.09919 5.94898 7.35987 5.94898 10.1486C5.94898 12.9372 8.20965 15.1979 10.9983 15.1979C13.787 15.1979 16.0477 12.9372 16.0477 10.1486C16.0477 7.35987 13.787 5.09919 10.9983 5.09919Z" fill="#1D1D1F"/>
</svg>
