<svg width="16" height="24" viewBox="0 0 16 24" fill="none" xmlns="http://www.w3.org/2000/svg">
<path fill-rule="evenodd" clip-rule="evenodd" d="M3.69971 4.8C3.69971 2.42518 5.62488 0.5 7.99971 0.5C10.3745 0.5 12.2997 2.42518 12.2997 4.8V12.3C12.2997 14.6748 10.3745 16.6 7.99971 16.6C5.62488 16.6 3.69971 14.6748 3.69971 12.3V4.8ZM7.99971 2.1C6.50854 2.1 5.29971 3.30883 5.29971 4.8V12.3C5.29971 13.7912 6.50854 15 7.99971 15C9.49088 15 10.6997 13.7912 10.6997 12.3V4.8C10.6997 3.30883 9.49088 2.1 7.99971 2.1ZM0.999707 11.5C1.44153 11.5 1.79971 11.8582 1.79971 12.3C1.79971 13.1142 1.96007 13.9204 2.27165 14.6726C2.58323 15.4249 3.03992 16.1083 3.61564 16.6841C4.19137 17.2598 4.87485 17.7165 5.62707 18.0281C6.37929 18.3396 7.18551 18.5 7.99971 18.5C8.8139 18.5 9.62012 18.3396 10.3723 18.0281C11.1246 17.7165 11.808 17.2598 12.3838 16.6841C12.9595 16.1083 13.4162 15.4249 13.7278 14.6726C14.0393 13.9204 14.1997 13.1142 14.1997 12.3C14.1997 11.8582 14.5579 11.5 14.9997 11.5C15.4415 11.5 15.7997 11.8582 15.7997 12.3C15.7997 13.3243 15.598 14.3386 15.206 15.2849C14.814 16.2313 14.2394 17.0911 13.5151 17.8154C12.7908 18.5397 11.931 19.1143 10.9846 19.5063C10.2857 19.7958 9.54975 19.9815 8.80005 20.0588V22.5C8.80005 22.9418 8.44188 23.3 8.00005 23.3C7.55822 23.3 7.20005 22.9418 7.20005 22.5V20.0589C6.45011 19.9816 5.7139 19.7958 5.01478 19.5063C4.06844 19.1143 3.20857 18.5397 2.48427 17.8154C1.75998 17.0911 1.18543 16.2313 0.793446 15.2849C0.40146 14.3386 0.199707 13.3243 0.199707 12.3C0.199707 11.8582 0.557879 11.5 0.999707 11.5Z" fill="#1D1D1F"/>
</svg>
