<svg width="24" height="25" viewBox="0 0 24 25" fill="none" xmlns="http://www.w3.org/2000/svg">
<path fill-rule="evenodd" clip-rule="evenodd" d="M11.6154 3.39991L13.9358 3.39991C14.4592 3.3999 14.7591 3.3999 15.0177 3.42026C18.2542 3.67497 20.8248 6.2456 21.0796 9.48208C21.0999 9.74075 21.0999 10.0406 21.0999 10.5641V10.6375C21.0999 11.4379 21.0999 11.877 21.0703 12.2531C20.6998 16.9607 16.9607 20.6998 12.2531 21.0703C11.877 21.0999 11.4379 21.0999 10.6375 21.0999H10.2523C9.55418 21.0999 9.15424 21.0999 8.81002 21.0638C5.71085 20.738 3.2618 18.289 2.93607 15.1898C2.89989 14.8456 2.8999 14.4457 2.89991 13.7477L2.89991 12.1154C2.89981 10.1493 2.89975 9.02143 3.1841 8.08403C3.82397 5.97466 5.47466 4.32397 7.58403 3.6841C8.52143 3.39975 9.64928 3.39981 11.6154 3.39991ZM11.7499 4.59991C9.61273 4.59991 8.67739 4.60643 7.93237 4.83243C6.20653 5.35596 4.85596 6.70653 4.33243 8.43237C4.10643 9.17739 4.09991 10.1127 4.09991 12.2499V13.6999C4.09991 14.4582 4.10074 14.7908 4.12949 15.0644C4.396 17.6001 6.39977 19.6038 8.93546 19.8703C9.20901 19.8991 9.54165 19.8999 10.2999 19.8999H10.5999C11.4471 19.8999 11.8359 19.8994 12.159 19.874C12.2948 19.8633 12.3997 19.7475 12.3993 19.6065C12.3992 19.573 12.3991 19.5395 12.399 19.5059C12.3967 18.7485 12.3943 17.9838 12.4564 17.2239C12.5139 16.5197 12.633 15.938 12.9013 15.4115C13.3423 14.546 14.046 13.8423 14.9115 13.4013C15.438 13.133 16.0197 13.0139 16.7239 12.9564C17.5477 12.8891 18.3759 12.8928 19.1976 12.8973C19.4426 12.8987 19.533 12.8969 19.6098 12.861C19.6766 12.8297 19.745 12.7681 19.783 12.7049C19.8269 12.632 19.8371 12.5506 19.8591 12.3267C19.8646 12.271 19.8696 12.2151 19.874 12.159C19.8994 11.8359 19.8999 11.4471 19.8999 10.5999C19.8999 10.0313 19.8994 9.78181 19.8833 9.57623C19.6749 6.9282 17.5716 4.82496 14.9236 4.61656C14.718 4.60038 14.4685 4.59991 13.8999 4.59991H11.7499ZM18.975 14.0977C18.2535 14.0944 17.5347 14.0941 16.8216 14.1524C16.1917 14.2039 15.7855 14.3028 15.4563 14.4705C14.8166 14.7965 14.2965 15.3166 13.9705 15.9563C13.8028 16.2855 13.7039 16.6917 13.6524 17.3216C13.6127 17.8078 13.603 18.3966 13.6006 19.1525C13.6003 19.2573 13.6002 19.3287 13.6053 19.3834C13.6103 19.4368 13.6194 19.4631 13.6307 19.481C13.6561 19.5214 13.7032 19.5559 13.7493 19.568C13.7705 19.5735 13.7976 19.5743 13.8467 19.5639C13.8976 19.5531 13.9618 19.5328 14.0566 19.5025C16.4655 18.734 18.3982 16.9129 19.3176 14.5764C19.3561 14.4785 19.3822 14.4119 19.3971 14.3589C19.4115 14.3076 19.4122 14.2794 19.4076 14.2575C19.3974 14.2092 19.3638 14.1596 19.3227 14.1322C19.3048 14.1203 19.2774 14.1103 19.2205 14.1045C19.1625 14.0986 19.0863 14.0982 18.975 14.0977Z" fill="#1D1D1F"/>
</svg>
