<svg width="21" height="21" viewBox="0 0 21 21" fill="none" xmlns="http://www.w3.org/2000/svg">
<path d="M15.7676 20.1555C12.8452 20.1555 9.2666 18.3303 5.9751 15.0388C2.66309 11.7268 0.858398 8.15846 0.858398 5.22584C0.858398 3.45192 1.34033 2.27272 2.50928 1.22682C2.59131 1.15504 2.67334 1.08326 2.76562 1.00123C3.45264 0.385998 4.12939 0.0886352 4.77539 0.0988891C5.51367 0.109143 6.20068 0.529553 6.83643 1.44215L8.90771 4.42604C9.54346 5.33864 9.61523 6.42555 8.75391 7.28688L7.97461 8.07643C7.73877 8.31227 7.72852 8.50709 7.86182 8.74293C8.27197 9.38893 9.04102 10.2708 9.84082 11.0603C10.5996 11.8191 11.7173 12.7932 12.271 13.1419C12.4966 13.2854 12.7017 13.2752 12.9375 13.0393L13.7271 12.2498C14.5884 11.3987 15.665 11.4705 16.5879 12.1062L19.5718 14.1775C20.4844 14.8132 20.915 15.5003 20.915 16.2385C20.915 16.8845 20.6279 17.5613 20.0127 18.2483C19.9409 18.3303 19.8589 18.4226 19.7769 18.5047C18.7412 19.6736 17.562 20.1555 15.7676 20.1555ZM15.7778 18.5764C16.916 18.5559 17.8901 18.1663 18.5874 17.3665C18.6489 17.2947 18.6899 17.2434 18.7515 17.1716C19.0181 16.864 19.1616 16.5359 19.1616 16.2385C19.1616 15.9309 19.0488 15.6746 18.7412 15.4695L15.7573 13.4802C15.4292 13.2752 15.0806 13.2547 14.7627 13.5725L13.8604 14.4749C13.1528 15.1824 12.2915 15.1311 11.6045 14.6184C10.8047 14.0237 9.56396 12.9163 8.78467 12.1267C7.99512 11.3474 6.97998 10.199 6.39551 9.40944C5.88281 8.72242 5.83154 7.8611 6.53906 7.15358L7.44141 6.25123C7.75928 5.93336 7.73877 5.57448 7.52344 5.2566L5.53418 2.27272C5.33936 1.9651 5.07275 1.85231 4.77539 1.85231C4.47803 1.85231 4.1499 1.99586 3.84229 2.26246C3.77051 2.31373 3.71924 2.365 3.64746 2.42653C2.84766 3.12379 2.44775 4.09791 2.42725 5.22584C2.37598 7.84059 4.47803 11.3064 7.1543 13.9724C9.81006 16.6179 13.1631 18.6277 15.7778 18.5764Z" fill="#FEFEFE"/>
</svg>
