<svg width="20" height="22" viewBox="0 0 20 22" fill="none" xmlns="http://www.w3.org/2000/svg">
<path id="Vector" d="M10 0.379884C10.5442 0.379506 11.0814 0.503515 11.5704 0.74244C12.0593 0.981364 12.4873 1.32888 12.8214 1.75846L12.8571 1.80846H16.4286C17.3492 1.80756 18.2345 2.16219 18.9 2.79835C19.5654 3.4345 19.9595 4.30304 20 5.22274V18.237C20 19.1842 19.6237 20.0926 18.954 20.7624C18.2842 21.4322 17.3758 21.8085 16.4286 21.8085H3.57143C2.62423 21.8085 1.71582 21.4322 1.04605 20.7624C0.376274 20.0926 0 19.1842 0 18.237V5.37988C0 4.43268 0.376274 3.52428 1.04605 2.8545C1.71582 2.18473 2.62423 1.80846 3.57143 1.80846H7.14286L7.17857 1.75846C7.49535 1.3501 7.89698 1.01536 8.35574 0.777345C8.8145 0.539335 9.31944 0.403726 9.83572 0.379884H10ZM11.0714 7.52274H8.92857V10.737H5.71429V12.8799H8.92857V16.0942H11.0714V12.8799H14.2857V10.737H11.0714V7.52274ZM10 2.52274C9.71584 2.52274 9.44332 2.63562 9.24239 2.83656C9.04145 3.03749 8.92857 3.31001 8.92857 3.59417C8.92857 3.87833 9.04145 4.15085 9.24239 4.35178C9.44332 4.55272 9.71584 4.6656 10 4.6656C10.2842 4.6656 10.5567 4.55272 10.7576 4.35178C10.9585 4.15085 11.0714 3.87833 11.0714 3.59417C11.0714 3.31001 10.9585 3.03749 10.7576 2.83656C10.5567 2.63562 10.2842 2.52274 10 2.52274Z" fill="#1D1D1F"/>
</svg>
