<svg width="14" height="15" viewBox="0 0 14 15" fill="none" xmlns="http://www.w3.org/2000/svg">
<path id="Star 1" d="M6.5479 0.957121C6.72831 0.575191 7.27169 0.575191 7.4521 0.957121L9.17302 4.60039C9.2459 4.75469 9.39245 4.86116 9.56172 4.8828L13.5585 5.39366C13.9775 5.44721 14.1454 5.964 13.8379 6.2536L10.9047 9.01612C10.7805 9.13312 10.7245 9.3054 10.7563 9.47308L11.5055 13.4321C11.584 13.8471 11.1444 14.1665 10.7739 13.9635L7.24023 12.0276C7.09057 11.9456 6.90943 11.9456 6.75977 12.0276L3.22606 13.9635C2.85561 14.1665 2.416 13.8471 2.49454 13.4321L3.24375 9.47308C3.27548 9.3054 3.2195 9.13312 3.09528 9.01612L0.162117 6.2536C-0.145371 5.964 0.0225447 5.44721 0.441531 5.39366L4.43828 4.8828C4.60755 4.86116 4.7541 4.75469 4.82698 4.60039L6.5479 0.957121Z" fill="#EBBD09"/>
</svg>
