<svg width="30" height="30" viewBox="0 0 30 30" fill="none" xmlns="http://www.w3.org/2000/svg">
<path id="Vector" d="M25 2.34776e-06C26.2888 -0.00124582 27.5284 0.495233 28.46 1.38585C29.3916 2.27646 29.9433 3.49242 30 4.78V19C30.0012 20.2888 29.5048 21.5284 28.6142 22.46C27.7235 23.3916 26.5076 23.9433 25.22 24H19.16L15 29.08L10.84 24H5C3.75019 23.9999 2.54576 23.5316 1.62399 22.6876C0.702232 21.8436 0.129985 20.685 0.0200023 19.44L2.34776e-06 19.22V5C-0.00124582 3.71117 0.495233 2.47164 1.38585 1.54003C2.27646 0.608425 3.49242 0.0567103 4.78 2.34776e-06H5H25ZM25 2H5C4.23458 1.99862 3.49758 2.28987 2.93987 2.81411C2.38216 3.33836 2.04593 4.05596 2 4.82V19C1.99862 19.7654 2.28987 20.5024 2.81411 21.0601C3.33836 21.6178 4.05596 21.9541 4.82 22H11.8L15 25.92L18.2 22H25C25.7654 22.0014 26.5024 21.7101 27.0601 21.1859C27.6178 20.6616 27.9541 19.944 28 19.18V5C28.0014 4.23458 27.7101 3.49758 27.1859 2.93987C26.6616 2.38216 25.944 2.04593 25.18 2H25Z" fill="#1D1D1F"/>
</svg>
