<svg width="17" height="11" viewBox="0 0 17 11" fill="none" xmlns="http://www.w3.org/2000/svg">
<path fill-rule="evenodd" clip-rule="evenodd" d="M17 1C17 0.447716 16.5523 0 16 0H15C14.4477 0 14 0.447716 14 1V9.66668C14 10.219 14.4477 10.6667 15 10.6667H16C16.5523 10.6667 17 10.219 17 9.66668V1ZM10.3334 2.33334H11.3334C11.8856 2.33334 12.3334 2.78105 12.3334 3.33334V9.66668C12.3334 10.219 11.8856 10.6667 11.3334 10.6667H10.3334C9.78107 10.6667 9.33335 10.219 9.33335 9.66668V3.33334C9.33335 2.78105 9.78107 2.33334 10.3334 2.33334ZM6.66668 4.66667H5.66668C5.11439 4.66667 4.66667 5.11439 4.66667 5.66668V9.66668C4.66667 10.219 5.11439 10.6667 5.66668 10.6667H6.66668C7.21896 10.6667 7.66668 10.219 7.66668 9.66668V5.66668C7.66668 5.11439 7.21896 4.66667 6.66668 4.66667ZM3.00001 7.66668C3.00001 7.11439 2.55229 6.66668 2 6.66668H1C0.447716 6.66668 0 7.11439 0 7.66668V9.66668C0 10.219 0.447716 10.6667 1 10.6667H2C2.55229 10.6667 3.00001 10.219 3.00001 9.66668V7.66668Z" fill="black"/>
</svg>
